<?xml version="1.0" encoding="UTF-8" standalone="no"?>
<!DOCTYPE svg PUBLIC "-//W3C//DTD SVG 1.1//EN"
 "http://www.w3.org/Graphics/SVG/1.1/DTD/svg11.dtd">
<!-- Generated by graphviz version 2.43.0 (0)
 -->
<!-- Title: ComputationGraph Pages: 1 -->
<svg width="952pt" height="152pt"
 viewBox="0.00 0.00 952.35 152.00" xmlns="http://www.w3.org/2000/svg" xmlns:xlink="http://www.w3.org/1999/xlink">
<g id="graph0" class="graph" transform="scale(1 1) rotate(0) translate(4 148)">
<title>ComputationGraph</title>
<polygon fill="white" stroke="transparent" points="-4,4 -4,-148 948.35,-148 948.35,4 -4,4"/>
<!-- n0 -->
<g id="node1" class="node">
<title>n0</title>
<path fill="lightblue" stroke="black" d="M69.5,-144C69.5,-144 16.5,-144 16.5,-144 10.5,-144 4.5,-138 4.5,-132 4.5,-132 4.5,-120 4.5,-120 4.5,-114 10.5,-108 16.5,-108 16.5,-108 69.5,-108 69.5,-108 75.5,-108 81.5,-114 81.5,-120 81.5,-120 81.5,-132 81.5,-132 81.5,-138 75.5,-144 69.5,-144"/>
<text text-anchor="middle" x="43" y="-122.3" font-family="Times,serif" font-size="14.00">a = 2.00</text>
</g>
<!-- op4 -->
<g id="node5" class="node">
<title>op4</title>
<path fill="lightgreen" stroke="black" d="M136.05,-113.19C136.05,-113.19 128.95,-106.09 128.95,-106.09 125.41,-102.55 125.41,-95.45 128.95,-91.91 128.95,-91.91 136.05,-84.81 136.05,-84.81 139.59,-81.26 146.69,-81.26 150.23,-84.81 150.23,-84.81 157.33,-91.91 157.33,-91.91 160.88,-95.45 160.88,-102.55 157.33,-106.09 157.33,-106.09 150.23,-113.19 150.23,-113.19 146.69,-116.74 139.59,-116.74 136.05,-113.19"/>
<text text-anchor="middle" x="143.14" y="-95.3" font-family="Times,serif" font-size="14.00">*</text>
</g>
<!-- n0&#45;&gt;op4 -->
<g id="edge1" class="edge">
<title>n0&#45;&gt;op4</title>
<path fill="none" stroke="black" d="M81.66,-115.64C93.26,-112.45 105.75,-109.01 116.36,-106.09"/>
<polygon fill="black" stroke="black" points="117.52,-109.4 126.23,-103.38 115.66,-102.66 117.52,-109.4"/>
</g>
<!-- n1 -->
<g id="node2" class="node">
<title>n1</title>
<path fill="lightblue" stroke="black" d="M74,-90C74,-90 12,-90 12,-90 6,-90 0,-84 0,-78 0,-78 0,-66 0,-66 0,-60 6,-54 12,-54 12,-54 74,-54 74,-54 80,-54 86,-60 86,-66 86,-66 86,-78 86,-78 86,-84 80,-90 74,-90"/>
<text text-anchor="middle" x="43" y="-68.3" font-family="Times,serif" font-size="14.00">x = 10.00</text>
</g>
<!-- n1&#45;&gt;op4 -->
<g id="edge2" class="edge">
<title>n1&#45;&gt;op4</title>
<path fill="none" stroke="black" d="M86.19,-83.61C96.46,-86.43 107.13,-89.37 116.37,-91.91"/>
<polygon fill="black" stroke="black" points="115.53,-95.31 126.1,-94.59 117.39,-88.56 115.53,-95.31"/>
</g>
<!-- n2 -->
<g id="node3" class="node">
<title>n2</title>
<path fill="lightblue" stroke="black" d="M266.28,-63C266.28,-63 212.28,-63 212.28,-63 206.28,-63 200.28,-57 200.28,-51 200.28,-51 200.28,-39 200.28,-39 200.28,-33 206.28,-27 212.28,-27 212.28,-27 266.28,-27 266.28,-27 272.28,-27 278.28,-33 278.28,-39 278.28,-39 278.28,-51 278.28,-51 278.28,-57 272.28,-63 266.28,-63"/>
<text text-anchor="middle" x="239.28" y="-41.3" font-family="Times,serif" font-size="14.00">b = 3.00</text>
</g>
<!-- op5 -->
<g id="node7" class="node">
<title>op5</title>
<path fill="lightgreen" stroke="black" d="M332.45,-90.33C332.45,-90.33 322.61,-80.49 322.61,-80.49 318.37,-76.24 318.37,-67.76 322.61,-63.51 322.61,-63.51 332.45,-53.67 332.45,-53.67 336.69,-49.43 345.18,-49.43 349.42,-53.67 349.42,-53.67 359.26,-63.51 359.26,-63.51 363.51,-67.76 363.51,-76.24 359.26,-80.49 359.26,-80.49 349.42,-90.33 349.42,-90.33 345.18,-94.57 336.69,-94.57 332.45,-90.33"/>
<text text-anchor="middle" x="340.94" y="-68.3" font-family="Times,serif" font-size="14.00">+</text>
</g>
<!-- n2&#45;&gt;op5 -->
<g id="edge5" class="edge">
<title>n2&#45;&gt;op5</title>
<path fill="none" stroke="black" d="M278.53,-55.36C288.87,-58.17 299.93,-61.16 309.76,-63.82"/>
<polygon fill="black" stroke="black" points="308.92,-67.22 319.49,-66.46 310.76,-60.47 308.92,-67.22"/>
</g>
<!-- n3 -->
<g id="node4" class="node">
<title>n3</title>
<path fill="lightblue" stroke="black" d="M495.59,-36C495.59,-36 437.59,-36 437.59,-36 431.59,-36 425.59,-30 425.59,-24 425.59,-24 425.59,-12 425.59,-12 425.59,-6 431.59,0 437.59,0 437.59,0 495.59,0 495.59,0 501.59,0 507.59,-6 507.59,-12 507.59,-12 507.59,-24 507.59,-24 507.59,-30 501.59,-36 495.59,-36"/>
<text text-anchor="middle" x="466.59" y="-14.3" font-family="Times,serif" font-size="14.00">y = &#45;2.00</text>
</g>
<!-- op6 -->
<g id="node9" class="node">
<title>op6</title>
<path fill="lightgreen" stroke="black" d="M578.53,-57.74C578.53,-57.74 572.16,-51.37 572.16,-51.37 568.97,-48.18 568.97,-41.82 572.16,-38.63 572.16,-38.63 578.53,-32.26 578.53,-32.26 581.71,-29.08 588.08,-29.08 591.26,-32.26 591.26,-32.26 597.63,-38.63 597.63,-38.63 600.82,-41.82 600.82,-48.18 597.63,-51.37 597.63,-51.37 591.26,-57.74 591.26,-57.74 588.08,-60.92 581.71,-60.92 578.53,-57.74"/>
<text text-anchor="middle" x="584.89" y="-41.3" font-family="Times,serif" font-size="14.00">&#45;</text>
</g>
<!-- n3&#45;&gt;op6 -->
<g id="edge7" class="edge">
<title>n3&#45;&gt;op6</title>
<path fill="none" stroke="black" d="M507.62,-27.29C524.64,-31.24 543.97,-35.73 558.91,-39.2"/>
<polygon fill="black" stroke="black" points="558.39,-42.67 568.92,-41.52 559.97,-35.85 558.39,-42.67"/>
</g>
<!-- n4 -->
<g id="node6" class="node">
<title>n4</title>
<path fill="lightyellow" stroke="black" d="M255.78,-117C255.78,-117 222.78,-117 222.78,-117 216.78,-117 210.78,-111 210.78,-105 210.78,-105 210.78,-93 210.78,-93 210.78,-87 216.78,-81 222.78,-81 222.78,-81 255.78,-81 255.78,-81 261.78,-81 267.78,-87 267.78,-93 267.78,-93 267.78,-105 267.78,-105 267.78,-111 261.78,-117 255.78,-117"/>
<text text-anchor="middle" x="239.28" y="-95.3" font-family="Times,serif" font-size="14.00">20.00</text>
</g>
<!-- op4&#45;&gt;n4 -->
<g id="edge3" class="edge">
<title>op4&#45;&gt;n4</title>
<path fill="none" stroke="black" d="M164.57,-99C175.13,-99 188.36,-99 200.69,-99"/>
<polygon fill="black" stroke="black" points="200.75,-102.5 210.75,-99 200.75,-95.5 200.75,-102.5"/>
</g>
<!-- n4&#45;&gt;op5 -->
<g id="edge4" class="edge">
<title>n4&#45;&gt;op5</title>
<path fill="none" stroke="black" d="M268.04,-91.48C281.07,-87.95 296.63,-83.73 309.94,-80.13"/>
<polygon fill="black" stroke="black" points="310.86,-83.51 319.59,-77.51 309.03,-76.75 310.86,-83.51"/>
</g>
<!-- n5 -->
<g id="node8" class="node">
<title>n5</title>
<path fill="lightyellow" stroke="black" d="M517.59,-90C517.59,-90 415.59,-90 415.59,-90 409.59,-90 403.59,-84 403.59,-78 403.59,-78 403.59,-66 403.59,-66 403.59,-60 409.59,-54 415.59,-54 415.59,-54 517.59,-54 517.59,-54 523.59,-54 529.59,-60 529.59,-66 529.59,-66 529.59,-78 529.59,-78 529.59,-84 523.59,-90 517.59,-90"/>
<text text-anchor="middle" x="466.59" y="-68.3" font-family="Times,serif" font-size="14.00">y_pred = 23.00</text>
</g>
<!-- op5&#45;&gt;n5 -->
<g id="edge6" class="edge">
<title>op5&#45;&gt;n5</title>
<path fill="none" stroke="black" d="M367.86,-72C375.47,-72 384.2,-72 393.24,-72"/>
<polygon fill="black" stroke="black" points="393.53,-75.5 403.53,-72 393.53,-68.5 393.53,-75.5"/>
</g>
<!-- n5&#45;&gt;op6 -->
<g id="edge8" class="edge">
<title>n5&#45;&gt;op6</title>
<path fill="none" stroke="black" d="M529.83,-57.55C540.27,-55.13 550.54,-52.74 559.27,-50.72"/>
<polygon fill="black" stroke="black" points="560.13,-54.11 569.08,-48.44 558.54,-47.29 560.13,-54.11"/>
</g>
<!-- n6 -->
<g id="node10" class="node">
<title>n6</title>
<path fill="lightyellow" stroke="black" d="M690.2,-63C690.2,-63 652.2,-63 652.2,-63 646.2,-63 640.2,-57 640.2,-51 640.2,-51 640.2,-39 640.2,-39 640.2,-33 646.2,-27 652.2,-27 652.2,-27 690.2,-27 690.2,-27 696.2,-27 702.2,-33 702.2,-39 702.2,-39 702.2,-51 702.2,-51 702.2,-57 696.2,-63 690.2,-63"/>
<text text-anchor="middle" x="671.2" y="-41.3" font-family="Times,serif" font-size="14.00">&#45;25.00</text>
</g>
<!-- op6&#45;&gt;n6 -->
<g id="edge9" class="edge">
<title>op6&#45;&gt;n6</title>
<path fill="none" stroke="black" d="M604.19,-45C611.79,-45 620.93,-45 629.96,-45"/>
<polygon fill="black" stroke="black" points="630.01,-48.5 640.01,-45 630.01,-41.5 630.01,-48.5"/>
</g>
<!-- op7 -->
<g id="node11" class="node">
<title>op7</title>
<path fill="lightgreen" stroke="black" d="M757.29,-64.16C757.29,-64.16 746.61,-53.49 746.61,-53.49 742.36,-49.24 742.36,-40.76 746.61,-36.51 746.61,-36.51 757.29,-25.84 757.29,-25.84 761.53,-21.59 770.01,-21.59 774.26,-25.84 774.26,-25.84 784.94,-36.51 784.94,-36.51 789.18,-40.76 789.18,-49.24 784.94,-53.49 784.94,-53.49 774.26,-64.16 774.26,-64.16 770.01,-68.41 761.53,-68.41 757.29,-64.16"/>
<text text-anchor="middle" x="765.77" y="-41.3" font-family="Times,serif" font-size="14.00">x²</text>
</g>
<!-- n6&#45;&gt;op7 -->
<g id="edge10" class="edge">
<title>n6&#45;&gt;op7</title>
<path fill="none" stroke="black" d="M702.25,-45C710.44,-45 719.39,-45 727.91,-45"/>
<polygon fill="black" stroke="black" points="727.99,-48.5 737.99,-45 727.99,-41.5 727.99,-48.5"/>
</g>
<!-- n7 -->
<g id="node12" class="node">
<title>n7</title>
<path fill="lightyellow" stroke="black" d="M932.35,-63C932.35,-63 841.35,-63 841.35,-63 835.35,-63 829.35,-57 829.35,-51 829.35,-51 829.35,-39 829.35,-39 829.35,-33 835.35,-27 841.35,-27 841.35,-27 932.35,-27 932.35,-27 938.35,-27 944.35,-33 944.35,-39 944.35,-39 944.35,-51 944.35,-51 944.35,-57 938.35,-63 932.35,-63"/>
<text text-anchor="middle" x="886.85" y="-41.3" font-family="Times,serif" font-size="14.00">loss = 625.00</text>
</g>
<!-- op7&#45;&gt;n7 -->
<g id="edge11" class="edge">
<title>op7&#45;&gt;n7</title>
<path fill="none" stroke="black" d="M793.49,-45C801.17,-45 809.9,-45 818.85,-45"/>
<polygon fill="black" stroke="black" points="819.02,-48.5 829.02,-45 819.02,-41.5 819.02,-48.5"/>
</g>
</g>
</svg>
