<?xml version="1.0" encoding="UTF-8" standalone="no"?>
<!DOCTYPE svg PUBLIC "-//W3C//DTD SVG 1.1//EN"
 "http://www.w3.org/Graphics/SVG/1.1/DTD/svg11.dtd">
<!-- Generated by graphviz version 2.43.0 (0)
 -->
<!-- Title: ComputationGraph Pages: 1 -->
<svg width="1116pt" height="368pt"
 viewBox="0.00 0.00 1116.50 368.00" xmlns="http://www.w3.org/2000/svg" xmlns:xlink="http://www.w3.org/1999/xlink">
<g id="graph0" class="graph" transform="scale(1 1) rotate(0) translate(4 364)">
<title>ComputationGraph</title>
<polygon fill="white" stroke="transparent" points="-4,4 -4,-364 1112.5,-364 1112.5,4 -4,4"/>
<!-- n0 -->
<g id="node1" class="node">
<title>n0</title>
<path fill="lightblue" stroke="black" d="M42,-211C42,-211 12,-211 12,-211 6,-211 0,-205 0,-199 0,-199 0,-187 0,-187 0,-181 6,-175 12,-175 12,-175 42,-175 42,-175 48,-175 54,-181 54,-187 54,-187 54,-199 54,-199 54,-205 48,-211 42,-211"/>
</g>
<!-- op5 -->
<g id="node6" class="node">
<title>op5</title>
<path fill="lightgreen" stroke="black" d="M104.05,-288.19C104.05,-288.19 96.95,-281.09 96.95,-281.09 93.41,-277.55 93.41,-270.45 96.95,-266.91 96.95,-266.91 104.05,-259.81 104.05,-259.81 107.59,-256.26 114.69,-256.26 118.23,-259.81 118.23,-259.81 125.33,-266.91 125.33,-266.91 128.88,-270.45 128.88,-277.55 125.33,-281.09 125.33,-281.09 118.23,-288.19 118.23,-288.19 114.69,-291.74 107.59,-291.74 104.05,-288.19"/>
<text text-anchor="middle" x="111.14" y="-270.3" font-family="Times,serif" font-size="14.00">*</text>
</g>
<!-- n0&#45;&gt;op5 -->
<g id="edge1" class="edge">
<title>n0&#45;&gt;op5</title>
<path fill="none" stroke="black" d="M46.64,-211.38C60.41,-224.96 79.03,-243.32 92.55,-256.65"/>
<polygon fill="black" stroke="black" points="90.26,-259.31 99.84,-263.84 95.18,-254.33 90.26,-259.31"/>
</g>
<!-- op12 -->
<g id="node17" class="node">
<title>op12</title>
<path fill="lightgreen" stroke="black" d="M104.05,-99.19C104.05,-99.19 96.95,-92.09 96.95,-92.09 93.41,-88.55 93.41,-81.45 96.95,-77.91 96.95,-77.91 104.05,-70.81 104.05,-70.81 107.59,-67.26 114.69,-67.26 118.23,-70.81 118.23,-70.81 125.33,-77.91 125.33,-77.91 128.88,-81.45 128.88,-88.55 125.33,-92.09 125.33,-92.09 118.23,-99.19 118.23,-99.19 114.69,-102.74 107.59,-102.74 104.05,-99.19"/>
<text text-anchor="middle" x="111.14" y="-81.3" font-family="Times,serif" font-size="14.00">*</text>
</g>
<!-- n0&#45;&gt;op12 -->
<g id="edge13" class="edge">
<title>n0&#45;&gt;op12</title>
<path fill="none" stroke="black" d="M41.93,-174.68C56.69,-155.28 79.89,-124.77 95.07,-104.82"/>
<polygon fill="black" stroke="black" points="97.95,-106.81 101.22,-96.73 92.38,-102.57 97.95,-106.81"/>
</g>
<!-- n1 -->
<g id="node2" class="node">
<title>n1</title>
<path fill="lightblue" stroke="black" d="M210.28,-198C210.28,-198 180.28,-198 180.28,-198 174.28,-198 168.28,-192 168.28,-186 168.28,-186 168.28,-174 168.28,-174 168.28,-168 174.28,-162 180.28,-162 180.28,-162 210.28,-162 210.28,-162 216.28,-162 222.28,-168 222.28,-174 222.28,-174 222.28,-186 222.28,-186 222.28,-192 216.28,-198 210.28,-198"/>
</g>
<!-- op7 -->
<g id="node10" class="node">
<title>op7</title>
<path fill="lightgreen" stroke="black" d="M277.84,-241.19C277.84,-241.19 270.75,-234.09 270.75,-234.09 267.2,-230.55 267.2,-223.45 270.75,-219.91 270.75,-219.91 277.84,-212.81 277.84,-212.81 281.39,-209.26 288.48,-209.26 292.03,-212.81 292.03,-212.81 299.12,-219.91 299.12,-219.91 302.67,-223.45 302.67,-230.55 299.12,-234.09 299.12,-234.09 292.03,-241.19 292.03,-241.19 288.48,-244.74 281.39,-244.74 277.84,-241.19"/>
<text text-anchor="middle" x="284.94" y="-223.3" font-family="Times,serif" font-size="14.00">*</text>
</g>
<!-- n1&#45;&gt;op7 -->
<g id="edge7" class="edge">
<title>n1&#45;&gt;op7</title>
<path fill="none" stroke="black" d="M222.58,-194.1C235,-200.76 249.66,-208.62 261.53,-214.99"/>
<polygon fill="black" stroke="black" points="259.9,-218.08 270.37,-219.72 263.21,-211.91 259.9,-218.08"/>
</g>
<!-- op14 -->
<g id="node21" class="node">
<title>op14</title>
<path fill="lightgreen" stroke="black" d="M277.84,-146.19C277.84,-146.19 270.75,-139.09 270.75,-139.09 267.2,-135.55 267.2,-128.45 270.75,-124.91 270.75,-124.91 277.84,-117.81 277.84,-117.81 281.39,-114.26 288.48,-114.26 292.03,-117.81 292.03,-117.81 299.12,-124.91 299.12,-124.91 302.67,-128.45 302.67,-135.55 299.12,-139.09 299.12,-139.09 292.03,-146.19 292.03,-146.19 288.48,-149.74 281.39,-149.74 277.84,-146.19"/>
<text text-anchor="middle" x="284.94" y="-128.3" font-family="Times,serif" font-size="14.00">*</text>
</g>
<!-- n1&#45;&gt;op14 -->
<g id="edge19" class="edge">
<title>n1&#45;&gt;op14</title>
<path fill="none" stroke="black" d="M222.58,-165.6C235,-158.8 249.66,-150.77 261.53,-144.27"/>
<polygon fill="black" stroke="black" points="263.28,-147.3 270.37,-139.43 259.91,-141.16 263.28,-147.3"/>
</g>
<!-- n2 -->
<g id="node3" class="node">
<title>n2</title>
<path fill="lightblue" stroke="black" d="M42,-292C42,-292 12,-292 12,-292 6,-292 0,-286 0,-280 0,-280 0,-268 0,-268 0,-262 6,-256 12,-256 12,-256 42,-256 42,-256 48,-256 54,-262 54,-268 54,-268 54,-280 54,-280 54,-286 48,-292 42,-292"/>
</g>
<!-- n2&#45;&gt;op5 -->
<g id="edge2" class="edge">
<title>n2&#45;&gt;op5</title>
<path fill="none" stroke="black" d="M54.44,-274C62.49,-274 71.4,-274 79.68,-274"/>
<polygon fill="black" stroke="black" points="79.74,-277.5 89.74,-274 79.74,-270.5 79.74,-277.5"/>
</g>
<!-- n3 -->
<g id="node4" class="node">
<title>n3</title>
<path fill="lightblue" stroke="black" d="M210.28,-252C210.28,-252 180.28,-252 180.28,-252 174.28,-252 168.28,-246 168.28,-240 168.28,-240 168.28,-228 168.28,-228 168.28,-222 174.28,-216 180.28,-216 180.28,-216 210.28,-216 210.28,-216 216.28,-216 222.28,-222 222.28,-228 222.28,-228 222.28,-240 222.28,-240 222.28,-246 216.28,-252 210.28,-252"/>
</g>
<!-- n3&#45;&gt;op7 -->
<g id="edge8" class="edge">
<title>n3&#45;&gt;op7</title>
<path fill="none" stroke="black" d="M222.58,-231.9C232.69,-231.09 244.28,-230.17 254.65,-229.34"/>
<polygon fill="black" stroke="black" points="255.21,-232.81 264.9,-228.52 254.65,-225.83 255.21,-232.81"/>
</g>
<!-- n4 -->
<g id="node5" class="node">
<title>n4</title>
<path fill="lightblue" stroke="black" d="M210.28,-360C210.28,-360 180.28,-360 180.28,-360 174.28,-360 168.28,-354 168.28,-348 168.28,-348 168.28,-336 168.28,-336 168.28,-330 174.28,-324 180.28,-324 180.28,-324 210.28,-324 210.28,-324 216.28,-324 222.28,-330 222.28,-336 222.28,-336 222.28,-348 222.28,-348 222.28,-354 216.28,-360 210.28,-360"/>
</g>
<!-- op6 -->
<g id="node8" class="node">
<title>op6</title>
<path fill="lightgreen" stroke="black" d="M276.45,-311.33C276.45,-311.33 266.61,-301.49 266.61,-301.49 262.37,-297.24 262.37,-288.76 266.61,-284.51 266.61,-284.51 276.45,-274.67 276.45,-274.67 280.69,-270.43 289.18,-270.43 293.42,-274.67 293.42,-274.67 303.26,-284.51 303.26,-284.51 307.51,-288.76 307.51,-297.24 303.26,-301.49 303.26,-301.49 293.42,-311.33 293.42,-311.33 289.18,-315.57 280.69,-315.57 276.45,-311.33"/>
<text text-anchor="middle" x="284.94" y="-289.3" font-family="Times,serif" font-size="14.00">+</text>
</g>
<!-- n4&#45;&gt;op6 -->
<g id="edge4" class="edge">
<title>n4&#45;&gt;op6</title>
<path fill="none" stroke="black" d="M222.58,-327.3C233.93,-320.96 247.15,-313.56 258.41,-307.27"/>
<polygon fill="black" stroke="black" points="260.3,-310.22 267.32,-302.29 256.88,-304.11 260.3,-310.22"/>
</g>
<!-- n5 -->
<g id="node7" class="node">
<title>n5</title>
<path fill="lightyellow" stroke="black" d="M210.28,-306C210.28,-306 180.28,-306 180.28,-306 174.28,-306 168.28,-300 168.28,-294 168.28,-294 168.28,-282 168.28,-282 168.28,-276 174.28,-270 180.28,-270 180.28,-270 210.28,-270 210.28,-270 216.28,-270 222.28,-276 222.28,-282 222.28,-282 222.28,-294 222.28,-294 222.28,-300 216.28,-306 210.28,-306"/>
</g>
<!-- op5&#45;&gt;n5 -->
<g id="edge3" class="edge">
<title>op5&#45;&gt;n5</title>
<path fill="none" stroke="black" d="M129.56,-276.97C137.88,-278.39 148.16,-280.14 158.06,-281.83"/>
<polygon fill="black" stroke="black" points="157.7,-285.32 168.14,-283.55 158.87,-278.41 157.7,-285.32"/>
</g>
<!-- n5&#45;&gt;op6 -->
<g id="edge5" class="edge">
<title>n5&#45;&gt;op6</title>
<path fill="none" stroke="black" d="M222.58,-289.5C230.99,-289.98 240.43,-290.52 249.34,-291.03"/>
<polygon fill="black" stroke="black" points="249.27,-294.53 259.45,-291.6 249.67,-287.54 249.27,-294.53"/>
</g>
<!-- n6 -->
<g id="node9" class="node">
<title>n6</title>
<path fill="lightyellow" stroke="black" d="M389.59,-307C389.59,-307 359.59,-307 359.59,-307 353.59,-307 347.59,-301 347.59,-295 347.59,-295 347.59,-283 347.59,-283 347.59,-277 353.59,-271 359.59,-271 359.59,-271 389.59,-271 389.59,-271 395.59,-271 401.59,-277 401.59,-283 401.59,-283 401.59,-295 401.59,-295 401.59,-301 395.59,-307 389.59,-307"/>
</g>
<!-- op6&#45;&gt;n6 -->
<g id="edge6" class="edge">
<title>op6&#45;&gt;n6</title>
<path fill="none" stroke="black" d="M310.82,-291.86C319.04,-291.49 328.37,-291.06 337.26,-290.66"/>
<polygon fill="black" stroke="black" points="337.59,-294.15 347.42,-290.19 337.27,-287.15 337.59,-294.15"/>
</g>
<!-- op8 -->
<g id="node12" class="node">
<title>op8</title>
<path fill="lightgreen" stroke="black" d="M455.76,-248.33C455.76,-248.33 445.92,-238.49 445.92,-238.49 441.68,-234.24 441.68,-225.76 445.92,-221.51 445.92,-221.51 455.76,-211.67 455.76,-211.67 460.01,-207.43 468.49,-207.43 472.73,-211.67 472.73,-211.67 482.57,-221.51 482.57,-221.51 486.82,-225.76 486.82,-234.24 482.57,-238.49 482.57,-238.49 472.73,-248.33 472.73,-248.33 468.49,-252.57 460.01,-252.57 455.76,-248.33"/>
<text text-anchor="middle" x="464.25" y="-226.3" font-family="Times,serif" font-size="14.00">+</text>
</g>
<!-- n6&#45;&gt;op8 -->
<g id="edge10" class="edge">
<title>n6&#45;&gt;op8</title>
<path fill="none" stroke="black" d="M401.89,-271.3C413.79,-263.29 427.74,-253.9 439.34,-246.09"/>
<polygon fill="black" stroke="black" points="441.33,-248.97 447.67,-240.48 437.42,-243.16 441.33,-248.97"/>
</g>
<!-- n7 -->
<g id="node11" class="node">
<title>n7</title>
<path fill="lightyellow" stroke="black" d="M389.59,-247C389.59,-247 359.59,-247 359.59,-247 353.59,-247 347.59,-241 347.59,-235 347.59,-235 347.59,-223 347.59,-223 347.59,-217 353.59,-211 359.59,-211 359.59,-211 389.59,-211 389.59,-211 395.59,-211 401.59,-217 401.59,-223 401.59,-223 401.59,-235 401.59,-235 401.59,-241 395.59,-247 389.59,-247"/>
</g>
<!-- op7&#45;&gt;n7 -->
<g id="edge9" class="edge">
<title>op7&#45;&gt;n7</title>
<path fill="none" stroke="black" d="M305.83,-227.45C315.17,-227.67 326.6,-227.93 337.39,-228.17"/>
<polygon fill="black" stroke="black" points="337.38,-231.67 347.46,-228.4 337.54,-224.68 337.38,-231.67"/>
</g>
<!-- n7&#45;&gt;op8 -->
<g id="edge11" class="edge">
<title>n7&#45;&gt;op8</title>
<path fill="none" stroke="black" d="M401.89,-229.3C409.92,-229.39 418.89,-229.49 427.44,-229.59"/>
<polygon fill="black" stroke="black" points="427.53,-233.09 437.57,-229.71 427.61,-226.09 427.53,-233.09"/>
</g>
<!-- n8 -->
<g id="node13" class="node">
<title>n8</title>
<path fill="lightyellow" stroke="black" d="M568.9,-248C568.9,-248 538.9,-248 538.9,-248 532.9,-248 526.9,-242 526.9,-236 526.9,-236 526.9,-224 526.9,-224 526.9,-218 532.9,-212 538.9,-212 538.9,-212 568.9,-212 568.9,-212 574.9,-212 580.9,-218 580.9,-224 580.9,-224 580.9,-236 580.9,-236 580.9,-242 574.9,-248 568.9,-248"/>
</g>
<!-- op8&#45;&gt;n8 -->
<g id="edge12" class="edge">
<title>op8&#45;&gt;n8</title>
<path fill="none" stroke="black" d="M491.07,-230C499.04,-230 507.98,-230 516.52,-230"/>
<polygon fill="black" stroke="black" points="516.66,-233.5 526.66,-230 516.66,-226.5 516.66,-233.5"/>
</g>
<!-- op19 -->
<g id="node28" class="node">
<title>op19</title>
<path fill="lightgreen" stroke="black" d="M630.95,-192.19C630.95,-192.19 623.86,-185.09 623.86,-185.09 620.31,-181.55 620.31,-174.45 623.86,-170.91 623.86,-170.91 630.95,-163.81 630.95,-163.81 634.5,-160.26 641.59,-160.26 645.14,-163.81 645.14,-163.81 652.23,-170.91 652.23,-170.91 655.78,-174.45 655.78,-181.55 652.23,-185.09 652.23,-185.09 645.14,-192.19 645.14,-192.19 641.59,-195.74 634.5,-195.74 630.95,-192.19"/>
<text text-anchor="middle" x="638.04" y="-174.3" font-family="Times,serif" font-size="14.00">*</text>
</g>
<!-- n8&#45;&gt;op19 -->
<g id="edge25" class="edge">
<title>n8&#45;&gt;op19</title>
<path fill="none" stroke="black" d="M581.35,-213.26C592.52,-206.19 605.35,-198.06 615.88,-191.4"/>
<polygon fill="black" stroke="black" points="617.87,-194.28 624.44,-185.98 614.12,-188.37 617.87,-194.28"/>
</g>
<!-- n9 -->
<g id="node14" class="node">
<title>n9</title>
<path fill="lightblue" stroke="black" d="M42,-103C42,-103 12,-103 12,-103 6,-103 0,-97 0,-91 0,-91 0,-79 0,-79 0,-73 6,-67 12,-67 12,-67 42,-67 42,-67 48,-67 54,-73 54,-79 54,-79 54,-91 54,-91 54,-97 48,-103 42,-103"/>
</g>
<!-- n9&#45;&gt;op12 -->
<g id="edge14" class="edge">
<title>n9&#45;&gt;op12</title>
<path fill="none" stroke="black" d="M54.44,-85C62.49,-85 71.4,-85 79.68,-85"/>
<polygon fill="black" stroke="black" points="79.74,-88.5 89.74,-85 79.74,-81.5 79.74,-88.5"/>
</g>
<!-- n10 -->
<g id="node15" class="node">
<title>n10</title>
<path fill="lightblue" stroke="black" d="M210.28,-144C210.28,-144 180.28,-144 180.28,-144 174.28,-144 168.28,-138 168.28,-132 168.28,-132 168.28,-120 168.28,-120 168.28,-114 174.28,-108 180.28,-108 180.28,-108 210.28,-108 210.28,-108 216.28,-108 222.28,-114 222.28,-120 222.28,-120 222.28,-132 222.28,-132 222.28,-138 216.28,-144 210.28,-144"/>
</g>
<!-- n10&#45;&gt;op14 -->
<g id="edge20" class="edge">
<title>n10&#45;&gt;op14</title>
<path fill="none" stroke="black" d="M222.58,-127.8C232.69,-128.49 244.28,-129.29 254.65,-130"/>
<polygon fill="black" stroke="black" points="254.68,-133.51 264.9,-130.7 255.16,-126.52 254.68,-133.51"/>
</g>
<!-- n11 -->
<g id="node16" class="node">
<title>n11</title>
<path fill="lightblue" stroke="black" d="M210.28,-36C210.28,-36 180.28,-36 180.28,-36 174.28,-36 168.28,-30 168.28,-24 168.28,-24 168.28,-12 168.28,-12 168.28,-6 174.28,0 180.28,0 180.28,0 210.28,0 210.28,0 216.28,0 222.28,-6 222.28,-12 222.28,-12 222.28,-24 222.28,-24 222.28,-30 216.28,-36 210.28,-36"/>
</g>
<!-- op13 -->
<g id="node19" class="node">
<title>op13</title>
<path fill="lightgreen" stroke="black" d="M276.45,-84.33C276.45,-84.33 266.61,-74.49 266.61,-74.49 262.37,-70.24 262.37,-61.76 266.61,-57.51 266.61,-57.51 276.45,-47.67 276.45,-47.67 280.69,-43.43 289.18,-43.43 293.42,-47.67 293.42,-47.67 303.26,-57.51 303.26,-57.51 307.51,-61.76 307.51,-70.24 303.26,-74.49 303.26,-74.49 293.42,-84.33 293.42,-84.33 289.18,-88.57 280.69,-88.57 276.45,-84.33"/>
<text text-anchor="middle" x="284.94" y="-62.3" font-family="Times,serif" font-size="14.00">+</text>
</g>
<!-- n11&#45;&gt;op13 -->
<g id="edge16" class="edge">
<title>n11&#45;&gt;op13</title>
<path fill="none" stroke="black" d="M222.58,-32.4C233.85,-38.57 246.97,-45.76 258.17,-51.89"/>
<polygon fill="black" stroke="black" points="256.6,-55.02 267.06,-56.76 259.97,-48.88 256.6,-55.02"/>
</g>
<!-- n12 -->
<g id="node18" class="node">
<title>n12</title>
<path fill="lightyellow" stroke="black" d="M210.28,-90C210.28,-90 180.28,-90 180.28,-90 174.28,-90 168.28,-84 168.28,-78 168.28,-78 168.28,-66 168.28,-66 168.28,-60 174.28,-54 180.28,-54 180.28,-54 210.28,-54 210.28,-54 216.28,-54 222.28,-60 222.28,-66 222.28,-66 222.28,-78 222.28,-78 222.28,-84 216.28,-90 210.28,-90"/>
</g>
<!-- op12&#45;&gt;n12 -->
<g id="edge15" class="edge">
<title>op12&#45;&gt;n12</title>
<path fill="none" stroke="black" d="M129.96,-82.18C138.23,-80.87 148.37,-79.27 158.13,-77.72"/>
<polygon fill="black" stroke="black" points="158.74,-81.17 168.07,-76.15 157.64,-74.25 158.74,-81.17"/>
</g>
<!-- n12&#45;&gt;op13 -->
<g id="edge17" class="edge">
<title>n12&#45;&gt;op13</title>
<path fill="none" stroke="black" d="M222.58,-70.2C231.06,-69.62 240.59,-68.97 249.57,-68.35"/>
<polygon fill="black" stroke="black" points="250.01,-71.83 259.75,-67.66 249.53,-64.85 250.01,-71.83"/>
</g>
<!-- n13 -->
<g id="node20" class="node">
<title>n13</title>
<path fill="lightyellow" stroke="black" d="M389.59,-87C389.59,-87 359.59,-87 359.59,-87 353.59,-87 347.59,-81 347.59,-75 347.59,-75 347.59,-63 347.59,-63 347.59,-57 353.59,-51 359.59,-51 359.59,-51 389.59,-51 389.59,-51 395.59,-51 401.59,-57 401.59,-63 401.59,-63 401.59,-75 401.59,-75 401.59,-81 395.59,-87 389.59,-87"/>
</g>
<!-- op13&#45;&gt;n13 -->
<g id="edge18" class="edge">
<title>op13&#45;&gt;n13</title>
<path fill="none" stroke="black" d="M311.29,-66.87C319.43,-67.15 328.61,-67.46 337.38,-67.76"/>
<polygon fill="black" stroke="black" points="337.27,-71.26 347.38,-68.1 337.51,-64.26 337.27,-71.26"/>
</g>
<!-- op15 -->
<g id="node23" class="node">
<title>op15</title>
<path fill="lightgreen" stroke="black" d="M455.76,-138.33C455.76,-138.33 445.92,-128.49 445.92,-128.49 441.68,-124.24 441.68,-115.76 445.92,-111.51 445.92,-111.51 455.76,-101.67 455.76,-101.67 460.01,-97.43 468.49,-97.43 472.73,-101.67 472.73,-101.67 482.57,-111.51 482.57,-111.51 486.82,-115.76 486.82,-124.24 482.57,-128.49 482.57,-128.49 472.73,-138.33 472.73,-138.33 468.49,-142.57 460.01,-142.57 455.76,-138.33"/>
<text text-anchor="middle" x="464.25" y="-116.3" font-family="Times,serif" font-size="14.00">+</text>
</g>
<!-- n13&#45;&gt;op15 -->
<g id="edge22" class="edge">
<title>n13&#45;&gt;op15</title>
<path fill="none" stroke="black" d="M401.89,-84.3C413.32,-90.95 426.65,-98.7 437.95,-105.28"/>
<polygon fill="black" stroke="black" points="436.49,-108.48 446.89,-110.48 440.01,-102.43 436.49,-108.48"/>
</g>
<!-- n14 -->
<g id="node22" class="node">
<title>n14</title>
<path fill="lightyellow" stroke="black" d="M389.59,-144C389.59,-144 359.59,-144 359.59,-144 353.59,-144 347.59,-138 347.59,-132 347.59,-132 347.59,-120 347.59,-120 347.59,-114 353.59,-108 359.59,-108 359.59,-108 389.59,-108 389.59,-108 395.59,-108 401.59,-114 401.59,-120 401.59,-120 401.59,-132 401.59,-132 401.59,-138 395.59,-144 389.59,-144"/>
</g>
<!-- op14&#45;&gt;n14 -->
<g id="edge21" class="edge">
<title>op14&#45;&gt;n14</title>
<path fill="none" stroke="black" d="M304.96,-130.7C314.34,-130.06 325.99,-129.26 337.02,-128.5"/>
<polygon fill="black" stroke="black" points="337.56,-131.97 347.29,-127.8 337.08,-124.99 337.56,-131.97"/>
</g>
<!-- n14&#45;&gt;op15 -->
<g id="edge23" class="edge">
<title>n14&#45;&gt;op15</title>
<path fill="none" stroke="black" d="M401.89,-124.2C410.37,-123.62 419.9,-122.97 428.88,-122.35"/>
<polygon fill="black" stroke="black" points="429.32,-125.83 439.06,-121.66 428.85,-118.85 429.32,-125.83"/>
</g>
<!-- n15 -->
<g id="node24" class="node">
<title>n15</title>
<path fill="lightyellow" stroke="black" d="M568.9,-138C568.9,-138 538.9,-138 538.9,-138 532.9,-138 526.9,-132 526.9,-126 526.9,-126 526.9,-114 526.9,-114 526.9,-108 532.9,-102 538.9,-102 538.9,-102 568.9,-102 568.9,-102 574.9,-102 580.9,-108 580.9,-114 580.9,-114 580.9,-126 580.9,-126 580.9,-132 574.9,-138 568.9,-138"/>
</g>
<!-- op15&#45;&gt;n15 -->
<g id="edge24" class="edge">
<title>op15&#45;&gt;n15</title>
<path fill="none" stroke="black" d="M491.07,-120C499.04,-120 507.98,-120 516.52,-120"/>
<polygon fill="black" stroke="black" points="516.66,-123.5 526.66,-120 516.66,-116.5 516.66,-123.5"/>
</g>
<!-- op21 -->
<g id="node32" class="node">
<title>op21</title>
<path fill="lightgreen" stroke="black" d="M630.95,-131.19C630.95,-131.19 623.86,-124.09 623.86,-124.09 620.31,-120.55 620.31,-113.45 623.86,-109.91 623.86,-109.91 630.95,-102.81 630.95,-102.81 634.5,-99.26 641.59,-99.26 645.14,-102.81 645.14,-102.81 652.23,-109.91 652.23,-109.91 655.78,-113.45 655.78,-120.55 652.23,-124.09 652.23,-124.09 645.14,-131.19 645.14,-131.19 641.59,-134.74 634.5,-134.74 630.95,-131.19"/>
<text text-anchor="middle" x="638.04" y="-113.3" font-family="Times,serif" font-size="14.00">*</text>
</g>
<!-- n15&#45;&gt;op21 -->
<g id="edge31" class="edge">
<title>n15&#45;&gt;op21</title>
<path fill="none" stroke="black" d="M581.35,-119.03C589.59,-118.73 598.74,-118.4 607.2,-118.09"/>
<polygon fill="black" stroke="black" points="607.56,-121.58 617.43,-117.72 607.31,-114.58 607.56,-121.58"/>
</g>
<!-- n16 -->
<g id="node25" class="node">
<title>n16</title>
<path fill="lightblue" stroke="black" d="M568.9,-194C568.9,-194 538.9,-194 538.9,-194 532.9,-194 526.9,-188 526.9,-182 526.9,-182 526.9,-170 526.9,-170 526.9,-164 532.9,-158 538.9,-158 538.9,-158 568.9,-158 568.9,-158 574.9,-158 580.9,-164 580.9,-170 580.9,-170 580.9,-182 580.9,-182 580.9,-188 574.9,-194 568.9,-194"/>
</g>
<!-- n16&#45;&gt;op19 -->
<g id="edge26" class="edge">
<title>n16&#45;&gt;op19</title>
<path fill="none" stroke="black" d="M581.35,-176.64C589.52,-176.84 598.59,-177.06 606.99,-177.27"/>
<polygon fill="black" stroke="black" points="607.08,-180.77 617.17,-177.52 607.25,-173.77 607.08,-180.77"/>
</g>
<!-- n17 -->
<g id="node26" class="node">
<title>n17</title>
<path fill="lightblue" stroke="black" d="M568.9,-84C568.9,-84 538.9,-84 538.9,-84 532.9,-84 526.9,-78 526.9,-72 526.9,-72 526.9,-60 526.9,-60 526.9,-54 532.9,-48 538.9,-48 538.9,-48 568.9,-48 568.9,-48 574.9,-48 580.9,-54 580.9,-60 580.9,-60 580.9,-72 580.9,-72 580.9,-78 574.9,-84 568.9,-84"/>
</g>
<!-- n17&#45;&gt;op21 -->
<g id="edge32" class="edge">
<title>n17&#45;&gt;op21</title>
<path fill="none" stroke="black" d="M581.35,-82.42C592.52,-89.35 605.35,-97.32 615.88,-103.86"/>
<polygon fill="black" stroke="black" points="614.1,-106.87 624.44,-109.18 617.79,-100.93 614.1,-106.87"/>
</g>
<!-- n18 -->
<g id="node27" class="node">
<title>n18</title>
<path fill="lightblue" stroke="black" d="M737.18,-250C737.18,-250 707.18,-250 707.18,-250 701.18,-250 695.18,-244 695.18,-238 695.18,-238 695.18,-226 695.18,-226 695.18,-220 701.18,-214 707.18,-214 707.18,-214 737.18,-214 737.18,-214 743.18,-214 749.18,-220 749.18,-226 749.18,-226 749.18,-238 749.18,-238 749.18,-244 743.18,-250 737.18,-250"/>
</g>
<!-- op20 -->
<g id="node30" class="node">
<title>op20</title>
<path fill="lightgreen" stroke="black" d="M803.7,-198.33C803.7,-198.33 793.86,-188.49 793.86,-188.49 789.62,-184.24 789.62,-175.76 793.86,-171.51 793.86,-171.51 803.7,-161.67 803.7,-161.67 807.94,-157.43 816.43,-157.43 820.67,-161.67 820.67,-161.67 830.51,-171.51 830.51,-171.51 834.75,-175.76 834.75,-184.24 830.51,-188.49 830.51,-188.49 820.67,-198.33 820.67,-198.33 816.43,-202.57 807.94,-202.57 803.7,-198.33"/>
<text text-anchor="middle" x="812.18" y="-176.3" font-family="Times,serif" font-size="14.00">+</text>
</g>
<!-- n18&#45;&gt;op20 -->
<g id="edge28" class="edge">
<title>n18&#45;&gt;op20</title>
<path fill="none" stroke="black" d="M749.59,-216.4C761.17,-209.55 774.71,-201.56 786.13,-194.8"/>
<polygon fill="black" stroke="black" points="787.94,-197.8 794.77,-189.7 784.38,-191.78 787.94,-197.8"/>
</g>
<!-- n19 -->
<g id="node29" class="node">
<title>n19</title>
<path fill="lightyellow" stroke="black" d="M737.18,-196C737.18,-196 707.18,-196 707.18,-196 701.18,-196 695.18,-190 695.18,-184 695.18,-184 695.18,-172 695.18,-172 695.18,-166 701.18,-160 707.18,-160 707.18,-160 737.18,-160 737.18,-160 743.18,-160 749.18,-166 749.18,-172 749.18,-172 749.18,-184 749.18,-184 749.18,-190 743.18,-196 737.18,-196"/>
</g>
<!-- op19&#45;&gt;n19 -->
<g id="edge27" class="edge">
<title>op19&#45;&gt;n19</title>
<path fill="none" stroke="black" d="M659.35,-178C667.07,-178 676.11,-178 684.86,-178"/>
<polygon fill="black" stroke="black" points="684.91,-181.5 694.91,-178 684.91,-174.5 684.91,-181.5"/>
</g>
<!-- n19&#45;&gt;op20 -->
<g id="edge29" class="edge">
<title>n19&#45;&gt;op20</title>
<path fill="none" stroke="black" d="M749.59,-178.6C757.72,-178.78 766.82,-178.99 775.47,-179.19"/>
<polygon fill="black" stroke="black" points="775.63,-182.69 785.71,-179.42 775.79,-175.69 775.63,-182.69"/>
</g>
<!-- n20 -->
<g id="node31" class="node">
<title>n20</title>
<path fill="lightyellow" stroke="black" d="M917.18,-193C917.18,-193 887.18,-193 887.18,-193 881.18,-193 875.18,-187 875.18,-181 875.18,-181 875.18,-169 875.18,-169 875.18,-163 881.18,-157 887.18,-157 887.18,-157 917.18,-157 917.18,-157 923.18,-157 929.18,-163 929.18,-169 929.18,-169 929.18,-181 929.18,-181 929.18,-187 923.18,-193 917.18,-193"/>
</g>
<!-- op20&#45;&gt;n20 -->
<g id="edge30" class="edge">
<title>op20&#45;&gt;n20</title>
<path fill="none" stroke="black" d="M837.7,-178.61C846.12,-178.13 855.74,-177.58 864.9,-177.06"/>
<polygon fill="black" stroke="black" points="865.17,-180.55 874.96,-176.49 864.77,-173.56 865.17,-180.55"/>
</g>
<!-- op22 -->
<g id="node34" class="node">
<title>op22</title>
<path fill="lightgreen" stroke="black" d="M983.35,-166.33C983.35,-166.33 973.51,-156.49 973.51,-156.49 969.27,-152.24 969.27,-143.76 973.51,-139.51 973.51,-139.51 983.35,-129.67 983.35,-129.67 987.6,-125.43 996.08,-125.43 1000.33,-129.67 1000.33,-129.67 1010.17,-139.51 1010.17,-139.51 1014.41,-143.76 1014.41,-152.24 1010.17,-156.49 1010.17,-156.49 1000.33,-166.33 1000.33,-166.33 996.08,-170.57 987.6,-170.57 983.35,-166.33"/>
<text text-anchor="middle" x="991.84" y="-144.3" font-family="Times,serif" font-size="14.00">+</text>
</g>
<!-- n20&#45;&gt;op22 -->
<g id="edge34" class="edge">
<title>n20&#45;&gt;op22</title>
<path fill="none" stroke="black" d="M929.48,-166.9C939.47,-163.82 950.91,-160.3 961.18,-157.14"/>
<polygon fill="black" stroke="black" points="962.44,-160.41 970.97,-154.12 960.38,-153.72 962.44,-160.41"/>
</g>
<!-- n21 -->
<g id="node33" class="node">
<title>n21</title>
<path fill="lightyellow" stroke="black" d="M827.18,-135C827.18,-135 797.18,-135 797.18,-135 791.18,-135 785.18,-129 785.18,-123 785.18,-123 785.18,-111 785.18,-111 785.18,-105 791.18,-99 797.18,-99 797.18,-99 827.18,-99 827.18,-99 833.18,-99 839.18,-105 839.18,-111 839.18,-111 839.18,-123 839.18,-123 839.18,-129 833.18,-135 827.18,-135"/>
</g>
<!-- op21&#45;&gt;n21 -->
<g id="edge33" class="edge">
<title>op21&#45;&gt;n21</title>
<path fill="none" stroke="black" d="M659.47,-117C687.88,-117 739.78,-117 774.87,-117"/>
<polygon fill="black" stroke="black" points="775.18,-120.5 785.18,-117 775.18,-113.5 775.18,-120.5"/>
</g>
<!-- n21&#45;&gt;op22 -->
<g id="edge35" class="edge">
<title>n21&#45;&gt;op22</title>
<path fill="none" stroke="black" d="M839.4,-121.57C871.15,-127.11 924.62,-136.44 958.79,-142.41"/>
<polygon fill="black" stroke="black" points="958.28,-145.87 968.73,-144.14 959.48,-138.97 958.28,-145.87"/>
</g>
<!-- n22 -->
<g id="node35" class="node">
<title>n22</title>
<path fill="lightyellow" stroke="black" d="M1096.5,-166C1096.5,-166 1066.5,-166 1066.5,-166 1060.5,-166 1054.5,-160 1054.5,-154 1054.5,-154 1054.5,-142 1054.5,-142 1054.5,-136 1060.5,-130 1066.5,-130 1066.5,-130 1096.5,-130 1096.5,-130 1102.5,-130 1108.5,-136 1108.5,-142 1108.5,-142 1108.5,-154 1108.5,-154 1108.5,-160 1102.5,-166 1096.5,-166"/>
</g>
<!-- op22&#45;&gt;n22 -->
<g id="edge36" class="edge">
<title>op22&#45;&gt;n22</title>
<path fill="none" stroke="black" d="M1018.67,-148C1026.64,-148 1035.57,-148 1044.11,-148"/>
<polygon fill="black" stroke="black" points="1044.25,-151.5 1054.25,-148 1044.25,-144.5 1044.25,-151.5"/>
</g>
</g>
</svg>
