<?xml version="1.0" encoding="UTF-8" standalone="no"?>
<!DOCTYPE svg PUBLIC "-//W3C//DTD SVG 1.1//EN"
 "http://www.w3.org/Graphics/SVG/1.1/DTD/svg11.dtd">
<!-- Generated by graphviz version 2.43.0 (0)
 -->
<!-- Title: ComputationGraph Pages: 1 -->
<svg width="939pt" height="1232pt"
 viewBox="0.00 0.00 939.00 1232.00" xmlns="http://www.w3.org/2000/svg" xmlns:xlink="http://www.w3.org/1999/xlink">
<g id="graph0" class="graph" transform="scale(1 1) rotate(0) translate(4 1228)">
<title>ComputationGraph</title>
<polygon fill="white" stroke="transparent" points="-4,4 -4,-1228 935,-1228 935,4 -4,4"/>
<!-- n0 -->
<g id="node1" class="node">
<title>n0</title>
<path fill="lightblue" stroke="black" d="M55.5,-1075C55.5,-1075 20.5,-1075 20.5,-1075 14.5,-1075 8.5,-1069 8.5,-1063 8.5,-1063 8.5,-1051 8.5,-1051 8.5,-1045 14.5,-1039 20.5,-1039 20.5,-1039 55.5,-1039 55.5,-1039 61.5,-1039 67.5,-1045 67.5,-1051 67.5,-1051 67.5,-1063 67.5,-1063 67.5,-1069 61.5,-1075 55.5,-1075"/>
<text text-anchor="middle" x="38" y="-1053.3" font-family="Times,serif" font-size="14.00">l0 a_0</text>
</g>
<!-- op17 -->
<g id="node44" class="node">
<title>op17</title>
<path fill="lightgreen" stroke="black" d="M124,-1123C124,-1123 118,-1117 118,-1117 115,-1114 115,-1108 118,-1105 118,-1105 124,-1099 124,-1099 127,-1096 133,-1096 136,-1099 136,-1099 142,-1105 142,-1105 145,-1108 145,-1114 142,-1117 142,-1117 136,-1123 136,-1123 133,-1126 127,-1126 124,-1123"/>
<text text-anchor="middle" x="130" y="-1107.3" font-family="Times,serif" font-size="14.00">*</text>
</g>
<!-- n0&#45;&gt;op17 -->
<g id="edge1" class="edge">
<title>n0&#45;&gt;op17</title>
<path fill="none" stroke="black" d="M67.97,-1074.38C81.43,-1082.46 97.1,-1091.86 109.18,-1099.11"/>
<polygon fill="black" stroke="black" points="107.63,-1102.26 118,-1104.4 111.23,-1096.25 107.63,-1102.26"/>
</g>
<!-- op21 -->
<g id="node48" class="node">
<title>op21</title>
<path fill="lightgreen" stroke="black" d="M124,-1069C124,-1069 118,-1063 118,-1063 115,-1060 115,-1054 118,-1051 118,-1051 124,-1045 124,-1045 127,-1042 133,-1042 136,-1045 136,-1045 142,-1051 142,-1051 145,-1054 145,-1060 142,-1063 142,-1063 136,-1069 136,-1069 133,-1072 127,-1072 124,-1069"/>
<text text-anchor="middle" x="130" y="-1053.3" font-family="Times,serif" font-size="14.00">*</text>
</g>
<!-- n0&#45;&gt;op21 -->
<g id="edge10" class="edge">
<title>n0&#45;&gt;op21</title>
<path fill="none" stroke="black" d="M67.97,-1057C78.84,-1057 91.14,-1057 101.84,-1057"/>
<polygon fill="black" stroke="black" points="101.89,-1060.5 111.89,-1057 101.89,-1053.5 101.89,-1060.5"/>
</g>
<!-- op25 -->
<g id="node52" class="node">
<title>op25</title>
<path fill="lightgreen" stroke="black" d="M124,-1015C124,-1015 118,-1009 118,-1009 115,-1006 115,-1000 118,-997 118,-997 124,-991 124,-991 127,-988 133,-988 136,-991 136,-991 142,-997 142,-997 145,-1000 145,-1006 142,-1009 142,-1009 136,-1015 136,-1015 133,-1018 127,-1018 124,-1015"/>
<text text-anchor="middle" x="130" y="-999.3" font-family="Times,serif" font-size="14.00">*</text>
</g>
<!-- n0&#45;&gt;op25 -->
<g id="edge19" class="edge">
<title>n0&#45;&gt;op25</title>
<path fill="none" stroke="black" d="M67.97,-1039.62C81.43,-1031.54 97.1,-1022.14 109.18,-1014.89"/>
<polygon fill="black" stroke="black" points="111.23,-1017.75 118,-1009.6 107.63,-1011.74 111.23,-1017.75"/>
</g>
<!-- op29 -->
<g id="node56" class="node">
<title>op29</title>
<path fill="lightgreen" stroke="black" d="M124,-961C124,-961 118,-955 118,-955 115,-952 115,-946 118,-943 118,-943 124,-937 124,-937 127,-934 133,-934 136,-937 136,-937 142,-943 142,-943 145,-946 145,-952 142,-955 142,-955 136,-961 136,-961 133,-964 127,-964 124,-961"/>
<text text-anchor="middle" x="130" y="-945.3" font-family="Times,serif" font-size="14.00">*</text>
</g>
<!-- n0&#45;&gt;op29 -->
<g id="edge28" class="edge">
<title>n0&#45;&gt;op29</title>
<path fill="none" stroke="black" d="M66.23,-1038.91C69.69,-1036.11 73.04,-1033.11 76,-1030 80.94,-1024.8 102.84,-990.55 116.9,-968.28"/>
<polygon fill="black" stroke="black" points="120,-969.92 122.37,-959.59 114.08,-966.19 120,-969.92"/>
</g>
<!-- op33 -->
<g id="node60" class="node">
<title>op33</title>
<path fill="lightgreen" stroke="black" d="M124,-799C124,-799 118,-793 118,-793 115,-790 115,-784 118,-781 118,-781 124,-775 124,-775 127,-772 133,-772 136,-775 136,-775 142,-781 142,-781 145,-784 145,-790 142,-793 142,-793 136,-799 136,-799 133,-802 127,-802 124,-799"/>
<text text-anchor="middle" x="130" y="-783.3" font-family="Times,serif" font-size="14.00">*</text>
</g>
<!-- n0&#45;&gt;op33 -->
<g id="edge37" class="edge">
<title>n0&#45;&gt;op33</title>
<path fill="none" stroke="black" d="M67.74,-1039.49C70.88,-1036.64 73.74,-1033.46 76,-1030 99.43,-994.04 118.43,-867.39 125.75,-812.58"/>
<polygon fill="black" stroke="black" points="129.27,-812.71 127.1,-802.33 122.33,-811.79 129.27,-812.71"/>
</g>
<!-- n1 -->
<g id="node2" class="node">
<title>n1</title>
<path fill="lightblue" stroke="black" d="M55.5,-589C55.5,-589 20.5,-589 20.5,-589 14.5,-589 8.5,-583 8.5,-577 8.5,-577 8.5,-565 8.5,-565 8.5,-559 14.5,-553 20.5,-553 20.5,-553 55.5,-553 55.5,-553 61.5,-553 67.5,-559 67.5,-565 67.5,-565 67.5,-577 67.5,-577 67.5,-583 61.5,-589 55.5,-589"/>
<text text-anchor="middle" x="38" y="-567.3" font-family="Times,serif" font-size="14.00">l0 a_1</text>
</g>
<!-- op19 -->
<g id="node46" class="node">
<title>op19</title>
<path fill="lightgreen" stroke="black" d="M124,-691C124,-691 118,-685 118,-685 115,-682 115,-676 118,-673 118,-673 124,-667 124,-667 127,-664 133,-664 136,-667 136,-667 142,-673 142,-673 145,-676 145,-682 142,-685 142,-685 136,-691 136,-691 133,-694 127,-694 124,-691"/>
<text text-anchor="middle" x="130" y="-675.3" font-family="Times,serif" font-size="14.00">*</text>
</g>
<!-- n1&#45;&gt;op19 -->
<g id="edge5" class="edge">
<title>n1&#45;&gt;op19</title>
<path fill="none" stroke="black" d="M66.23,-589.09C69.69,-591.89 73.04,-594.89 76,-598 80.94,-603.2 102.84,-637.45 116.9,-659.72"/>
<polygon fill="black" stroke="black" points="114.08,-661.81 122.37,-668.41 120,-658.08 114.08,-661.81"/>
</g>
<!-- op23 -->
<g id="node50" class="node">
<title>op23</title>
<path fill="lightgreen" stroke="black" d="M124,-637C124,-637 118,-631 118,-631 115,-628 115,-622 118,-619 118,-619 124,-613 124,-613 127,-610 133,-610 136,-613 136,-613 142,-619 142,-619 145,-622 145,-628 142,-631 142,-631 136,-637 136,-637 133,-640 127,-640 124,-637"/>
<text text-anchor="middle" x="130" y="-621.3" font-family="Times,serif" font-size="14.00">*</text>
</g>
<!-- n1&#45;&gt;op23 -->
<g id="edge14" class="edge">
<title>n1&#45;&gt;op23</title>
<path fill="none" stroke="black" d="M67.97,-588.38C81.43,-596.46 97.1,-605.86 109.18,-613.11"/>
<polygon fill="black" stroke="black" points="107.63,-616.26 118,-618.4 111.23,-610.25 107.63,-616.26"/>
</g>
<!-- op27 -->
<g id="node54" class="node">
<title>op27</title>
<path fill="lightgreen" stroke="black" d="M124,-583C124,-583 118,-577 118,-577 115,-574 115,-568 118,-565 118,-565 124,-559 124,-559 127,-556 133,-556 136,-559 136,-559 142,-565 142,-565 145,-568 145,-574 142,-577 142,-577 136,-583 136,-583 133,-586 127,-586 124,-583"/>
<text text-anchor="middle" x="130" y="-567.3" font-family="Times,serif" font-size="14.00">*</text>
</g>
<!-- n1&#45;&gt;op27 -->
<g id="edge23" class="edge">
<title>n1&#45;&gt;op27</title>
<path fill="none" stroke="black" d="M67.97,-571C78.84,-571 91.14,-571 101.84,-571"/>
<polygon fill="black" stroke="black" points="101.89,-574.5 111.89,-571 101.89,-567.5 101.89,-574.5"/>
</g>
<!-- op31 -->
<g id="node58" class="node">
<title>op31</title>
<path fill="lightgreen" stroke="black" d="M124,-502C124,-502 118,-496 118,-496 115,-493 115,-487 118,-484 118,-484 124,-478 124,-478 127,-475 133,-475 136,-478 136,-478 142,-484 142,-484 145,-487 145,-493 142,-496 142,-496 136,-502 136,-502 133,-505 127,-505 124,-502"/>
<text text-anchor="middle" x="130" y="-486.3" font-family="Times,serif" font-size="14.00">*</text>
</g>
<!-- n1&#45;&gt;op31 -->
<g id="edge32" class="edge">
<title>n1&#45;&gt;op31</title>
<path fill="none" stroke="black" d="M64.9,-552.94C68.7,-550.05 72.51,-547.02 76,-544 89.47,-532.37 103.52,-517.92 113.77,-506.9"/>
<polygon fill="black" stroke="black" points="116.62,-508.98 120.8,-499.24 111.46,-504.25 116.62,-508.98"/>
</g>
<!-- op35 -->
<g id="node62" class="node">
<title>op35</title>
<path fill="lightgreen" stroke="black" d="M124,-371C124,-371 118,-365 118,-365 115,-362 115,-356 118,-353 118,-353 124,-347 124,-347 127,-344 133,-344 136,-347 136,-347 142,-353 142,-353 145,-356 145,-362 142,-365 142,-365 136,-371 136,-371 133,-374 127,-374 124,-371"/>
<text text-anchor="middle" x="130" y="-355.3" font-family="Times,serif" font-size="14.00">*</text>
</g>
<!-- n1&#45;&gt;op35 -->
<g id="edge41" class="edge">
<title>n1&#45;&gt;op35</title>
<path fill="none" stroke="black" d="M67.53,-553.35C70.7,-550.52 73.63,-547.39 76,-544 94.34,-517.75 114.93,-427.08 124.12,-383.19"/>
<polygon fill="black" stroke="black" points="127.56,-383.85 126.15,-373.34 120.7,-382.43 127.56,-383.85"/>
</g>
<!-- n2 -->
<g id="node3" class="node">
<title>n2</title>
<path fill="lightblue" stroke="black" d="M64,-1183C64,-1183 12,-1183 12,-1183 6,-1183 0,-1177 0,-1171 0,-1171 0,-1159 0,-1159 0,-1153 6,-1147 12,-1147 12,-1147 64,-1147 64,-1147 70,-1147 76,-1153 76,-1159 76,-1159 76,-1171 76,-1171 76,-1177 70,-1183 64,-1183"/>
<text text-anchor="middle" x="38" y="-1161.3" font-family="Times,serif" font-size="14.00">l1 w_0,0</text>
</g>
<!-- n2&#45;&gt;op17 -->
<g id="edge2" class="edge">
<title>n2&#45;&gt;op17</title>
<path fill="none" stroke="black" d="M69.47,-1146.72C82.54,-1138.88 97.44,-1129.94 109.06,-1122.96"/>
<polygon fill="black" stroke="black" points="111.17,-1125.78 117.94,-1117.63 107.57,-1119.78 111.17,-1125.78"/>
</g>
<!-- n3 -->
<g id="node4" class="node">
<title>n3</title>
<path fill="lightblue" stroke="black" d="M64,-697C64,-697 12,-697 12,-697 6,-697 0,-691 0,-685 0,-685 0,-673 0,-673 0,-667 6,-661 12,-661 12,-661 64,-661 64,-661 70,-661 76,-667 76,-673 76,-673 76,-685 76,-685 76,-691 70,-697 64,-697"/>
<text text-anchor="middle" x="38" y="-675.3" font-family="Times,serif" font-size="14.00">l1 w_0,1</text>
</g>
<!-- n3&#45;&gt;op19 -->
<g id="edge6" class="edge">
<title>n3&#45;&gt;op19</title>
<path fill="none" stroke="black" d="M76.13,-679C84.74,-679 93.76,-679 101.86,-679"/>
<polygon fill="black" stroke="black" points="101.86,-682.5 111.86,-679 101.86,-675.5 101.86,-682.5"/>
</g>
<!-- n4 -->
<g id="node5" class="node">
<title>n4</title>
<path fill="lightblue" stroke="black" d="M64,-1129C64,-1129 12,-1129 12,-1129 6,-1129 0,-1123 0,-1117 0,-1117 0,-1105 0,-1105 0,-1099 6,-1093 12,-1093 12,-1093 64,-1093 64,-1093 70,-1093 76,-1099 76,-1105 76,-1105 76,-1117 76,-1117 76,-1123 70,-1129 64,-1129"/>
<text text-anchor="middle" x="38" y="-1107.3" font-family="Times,serif" font-size="14.00">l1 w_1,0</text>
</g>
<!-- n4&#45;&gt;op21 -->
<g id="edge11" class="edge">
<title>n4&#45;&gt;op21</title>
<path fill="none" stroke="black" d="M69.47,-1092.72C82.54,-1084.88 97.44,-1075.94 109.06,-1068.96"/>
<polygon fill="black" stroke="black" points="111.17,-1071.78 117.94,-1063.63 107.57,-1065.78 111.17,-1071.78"/>
</g>
<!-- n5 -->
<g id="node6" class="node">
<title>n5</title>
<path fill="lightblue" stroke="black" d="M64,-643C64,-643 12,-643 12,-643 6,-643 0,-637 0,-631 0,-631 0,-619 0,-619 0,-613 6,-607 12,-607 12,-607 64,-607 64,-607 70,-607 76,-613 76,-619 76,-619 76,-631 76,-631 76,-637 70,-643 64,-643"/>
<text text-anchor="middle" x="38" y="-621.3" font-family="Times,serif" font-size="14.00">l1 w_1,1</text>
</g>
<!-- n5&#45;&gt;op23 -->
<g id="edge15" class="edge">
<title>n5&#45;&gt;op23</title>
<path fill="none" stroke="black" d="M76.13,-625C84.74,-625 93.76,-625 101.86,-625"/>
<polygon fill="black" stroke="black" points="101.86,-628.5 111.86,-625 101.86,-621.5 101.86,-628.5"/>
</g>
<!-- n6 -->
<g id="node7" class="node">
<title>n6</title>
<path fill="lightblue" stroke="black" d="M64,-1021C64,-1021 12,-1021 12,-1021 6,-1021 0,-1015 0,-1009 0,-1009 0,-997 0,-997 0,-991 6,-985 12,-985 12,-985 64,-985 64,-985 70,-985 76,-991 76,-997 76,-997 76,-1009 76,-1009 76,-1015 70,-1021 64,-1021"/>
<text text-anchor="middle" x="38" y="-999.3" font-family="Times,serif" font-size="14.00">l1 w_2,0</text>
</g>
<!-- n6&#45;&gt;op25 -->
<g id="edge20" class="edge">
<title>n6&#45;&gt;op25</title>
<path fill="none" stroke="black" d="M76.13,-1003C84.74,-1003 93.76,-1003 101.86,-1003"/>
<polygon fill="black" stroke="black" points="101.86,-1006.5 111.86,-1003 101.86,-999.5 101.86,-1006.5"/>
</g>
<!-- n7 -->
<g id="node8" class="node">
<title>n7</title>
<path fill="lightblue" stroke="black" d="M64,-535C64,-535 12,-535 12,-535 6,-535 0,-529 0,-523 0,-523 0,-511 0,-511 0,-505 6,-499 12,-499 12,-499 64,-499 64,-499 70,-499 76,-505 76,-511 76,-511 76,-523 76,-523 76,-529 70,-535 64,-535"/>
<text text-anchor="middle" x="38" y="-513.3" font-family="Times,serif" font-size="14.00">l1 w_2,1</text>
</g>
<!-- n7&#45;&gt;op27 -->
<g id="edge24" class="edge">
<title>n7&#45;&gt;op27</title>
<path fill="none" stroke="black" d="M69.47,-535.28C82.54,-543.12 97.44,-552.06 109.06,-559.04"/>
<polygon fill="black" stroke="black" points="107.57,-562.22 117.94,-564.37 111.17,-556.22 107.57,-562.22"/>
</g>
<!-- n8 -->
<g id="node9" class="node">
<title>n8</title>
<path fill="lightblue" stroke="black" d="M64,-967C64,-967 12,-967 12,-967 6,-967 0,-961 0,-955 0,-955 0,-943 0,-943 0,-937 6,-931 12,-931 12,-931 64,-931 64,-931 70,-931 76,-937 76,-943 76,-943 76,-955 76,-955 76,-961 70,-967 64,-967"/>
<text text-anchor="middle" x="38" y="-945.3" font-family="Times,serif" font-size="14.00">l1 w_3,0</text>
</g>
<!-- n8&#45;&gt;op29 -->
<g id="edge29" class="edge">
<title>n8&#45;&gt;op29</title>
<path fill="none" stroke="black" d="M76.13,-949C84.74,-949 93.76,-949 101.86,-949"/>
<polygon fill="black" stroke="black" points="101.86,-952.5 111.86,-949 101.86,-945.5 101.86,-952.5"/>
</g>
<!-- n9 -->
<g id="node10" class="node">
<title>n9</title>
<path fill="lightblue" stroke="black" d="M64,-481C64,-481 12,-481 12,-481 6,-481 0,-475 0,-469 0,-469 0,-457 0,-457 0,-451 6,-445 12,-445 12,-445 64,-445 64,-445 70,-445 76,-451 76,-457 76,-457 76,-469 76,-469 76,-475 70,-481 64,-481"/>
<text text-anchor="middle" x="38" y="-459.3" font-family="Times,serif" font-size="14.00">l1 w_3,1</text>
</g>
<!-- n9&#45;&gt;op31 -->
<g id="edge33" class="edge">
<title>n9&#45;&gt;op31</title>
<path fill="none" stroke="black" d="M76.13,-474.14C86.15,-477.14 96.71,-480.31 105.74,-483.02"/>
<polygon fill="black" stroke="black" points="104.92,-486.43 115.5,-485.95 106.93,-479.72 104.92,-486.43"/>
</g>
<!-- n10 -->
<g id="node11" class="node">
<title>n10</title>
<path fill="lightblue" stroke="black" d="M64,-805C64,-805 12,-805 12,-805 6,-805 0,-799 0,-793 0,-793 0,-781 0,-781 0,-775 6,-769 12,-769 12,-769 64,-769 64,-769 70,-769 76,-775 76,-781 76,-781 76,-793 76,-793 76,-799 70,-805 64,-805"/>
<text text-anchor="middle" x="38" y="-783.3" font-family="Times,serif" font-size="14.00">l1 w_4,0</text>
</g>
<!-- n10&#45;&gt;op33 -->
<g id="edge38" class="edge">
<title>n10&#45;&gt;op33</title>
<path fill="none" stroke="black" d="M76.13,-787C84.74,-787 93.76,-787 101.86,-787"/>
<polygon fill="black" stroke="black" points="101.86,-790.5 111.86,-787 101.86,-783.5 101.86,-790.5"/>
</g>
<!-- n11 -->
<g id="node12" class="node">
<title>n11</title>
<path fill="lightblue" stroke="black" d="M64,-373C64,-373 12,-373 12,-373 6,-373 0,-367 0,-361 0,-361 0,-349 0,-349 0,-343 6,-337 12,-337 12,-337 64,-337 64,-337 70,-337 76,-343 76,-349 76,-349 76,-361 76,-361 76,-367 70,-373 64,-373"/>
<text text-anchor="middle" x="38" y="-351.3" font-family="Times,serif" font-size="14.00">l1 w_4,1</text>
</g>
<!-- n11&#45;&gt;op35 -->
<g id="edge42" class="edge">
<title>n11&#45;&gt;op35</title>
<path fill="none" stroke="black" d="M76.13,-356.65C84.88,-357.04 94.04,-357.45 102.24,-357.81"/>
<polygon fill="black" stroke="black" points="102.19,-361.31 112.33,-358.26 102.5,-354.32 102.19,-361.31"/>
</g>
<!-- n12 -->
<g id="node13" class="node">
<title>n12</title>
<path fill="lightblue" stroke="black" d="M55.5,-319C55.5,-319 20.5,-319 20.5,-319 14.5,-319 8.5,-313 8.5,-307 8.5,-307 8.5,-295 8.5,-295 8.5,-289 14.5,-283 20.5,-283 20.5,-283 55.5,-283 55.5,-283 61.5,-283 67.5,-289 67.5,-295 67.5,-295 67.5,-307 67.5,-307 67.5,-313 61.5,-319 55.5,-319"/>
<text text-anchor="middle" x="38" y="-297.3" font-family="Times,serif" font-size="14.00">l1 b_0</text>
</g>
<!-- op18 -->
<g id="node45" class="node">
<title>op18</title>
<path fill="lightgreen" stroke="black" d="M196,-1035C196,-1035 190,-1029 190,-1029 187,-1026 187,-1020 190,-1017 190,-1017 196,-1011 196,-1011 199,-1008 205,-1008 208,-1011 208,-1011 214,-1017 214,-1017 217,-1020 217,-1026 214,-1029 214,-1029 208,-1035 208,-1035 205,-1038 199,-1038 196,-1035"/>
<text text-anchor="middle" x="202" y="-1019.3" font-family="Times,serif" font-size="14.00">+</text>
</g>
<!-- n12&#45;&gt;op18 -->
<g id="edge3" class="edge">
<title>n12&#45;&gt;op18</title>
<path fill="none" stroke="black" d="M67.57,-300.59C92.93,-301.91 128.84,-308.27 148,-332 186.89,-380.17 178.13,-826.37 184,-888 187.66,-926.44 193.58,-970.84 197.38,-997.91"/>
<polygon fill="black" stroke="black" points="193.95,-998.64 198.82,-1008.05 200.88,-997.66 193.95,-998.64"/>
</g>
<!-- n13 -->
<g id="node14" class="node">
<title>n13</title>
<path fill="lightblue" stroke="black" d="M55.5,-859C55.5,-859 20.5,-859 20.5,-859 14.5,-859 8.5,-853 8.5,-847 8.5,-847 8.5,-835 8.5,-835 8.5,-829 14.5,-823 20.5,-823 20.5,-823 55.5,-823 55.5,-823 61.5,-823 67.5,-829 67.5,-835 67.5,-835 67.5,-847 67.5,-847 67.5,-853 61.5,-859 55.5,-859"/>
<text text-anchor="middle" x="38" y="-837.3" font-family="Times,serif" font-size="14.00">l1 b_1</text>
</g>
<!-- op22 -->
<g id="node49" class="node">
<title>op22</title>
<path fill="lightgreen" stroke="black" d="M196,-873C196,-873 190,-867 190,-867 187,-864 187,-858 190,-855 190,-855 196,-849 196,-849 199,-846 205,-846 208,-849 208,-849 214,-855 214,-855 217,-858 217,-864 214,-867 214,-867 208,-873 208,-873 205,-876 199,-876 196,-873"/>
<text text-anchor="middle" x="202" y="-857.3" font-family="Times,serif" font-size="14.00">+</text>
</g>
<!-- n13&#45;&gt;op22 -->
<g id="edge12" class="edge">
<title>n13&#45;&gt;op22</title>
<path fill="none" stroke="black" d="M67.59,-844.53C98.2,-848.31 146.3,-854.25 175.61,-857.87"/>
<polygon fill="black" stroke="black" points="175.5,-861.38 185.85,-859.13 176.36,-854.43 175.5,-861.38"/>
</g>
<!-- n14 -->
<g id="node15" class="node">
<title>n14</title>
<path fill="lightblue" stroke="black" d="M55.5,-751C55.5,-751 20.5,-751 20.5,-751 14.5,-751 8.5,-745 8.5,-739 8.5,-739 8.5,-727 8.5,-727 8.5,-721 14.5,-715 20.5,-715 20.5,-715 55.5,-715 55.5,-715 61.5,-715 67.5,-721 67.5,-727 67.5,-727 67.5,-739 67.5,-739 67.5,-745 61.5,-751 55.5,-751"/>
<text text-anchor="middle" x="38" y="-729.3" font-family="Times,serif" font-size="14.00">l1 b_2</text>
</g>
<!-- op26 -->
<g id="node53" class="node">
<title>op26</title>
<path fill="lightgreen" stroke="black" d="M196,-817C196,-817 190,-811 190,-811 187,-808 187,-802 190,-799 190,-799 196,-793 196,-793 199,-790 205,-790 208,-793 208,-793 214,-799 214,-799 217,-802 217,-808 214,-811 214,-811 208,-817 208,-817 205,-820 199,-820 196,-817"/>
<text text-anchor="middle" x="202" y="-801.3" font-family="Times,serif" font-size="14.00">+</text>
</g>
<!-- n14&#45;&gt;op26 -->
<g id="edge21" class="edge">
<title>n14&#45;&gt;op26</title>
<path fill="none" stroke="black" d="M67.58,-736.41C90.34,-739.97 122.49,-746.93 148,-760 162.24,-767.29 175.95,-779.1 185.85,-788.79"/>
<polygon fill="black" stroke="black" points="183.41,-791.3 192.92,-795.98 188.4,-786.4 183.41,-791.3"/>
</g>
<!-- n15 -->
<g id="node16" class="node">
<title>n15</title>
<path fill="lightblue" stroke="black" d="M55.5,-913C55.5,-913 20.5,-913 20.5,-913 14.5,-913 8.5,-907 8.5,-901 8.5,-901 8.5,-889 8.5,-889 8.5,-883 14.5,-877 20.5,-877 20.5,-877 55.5,-877 55.5,-877 61.5,-877 67.5,-883 67.5,-889 67.5,-889 67.5,-901 67.5,-901 67.5,-907 61.5,-913 55.5,-913"/>
<text text-anchor="middle" x="38" y="-891.3" font-family="Times,serif" font-size="14.00">l1 b_3</text>
</g>
<!-- op30 -->
<g id="node57" class="node">
<title>op30</title>
<path fill="lightgreen" stroke="black" d="M196,-763C196,-763 190,-757 190,-757 187,-754 187,-748 190,-745 190,-745 196,-739 196,-739 199,-736 205,-736 208,-739 208,-739 214,-745 214,-745 217,-748 217,-754 214,-757 214,-757 208,-763 208,-763 205,-766 199,-766 196,-763"/>
<text text-anchor="middle" x="202" y="-747.3" font-family="Times,serif" font-size="14.00">+</text>
</g>
<!-- n15&#45;&gt;op30 -->
<g id="edge30" class="edge">
<title>n15&#45;&gt;op30</title>
<path fill="none" stroke="black" d="M64.11,-876.74C68.09,-873.83 72.16,-870.84 76,-868 108.16,-844.21 118.94,-841.48 148,-814 162.68,-800.12 177.31,-782.35 187.47,-769.23"/>
<polygon fill="black" stroke="black" points="190.47,-771.07 193.73,-760.99 184.89,-766.83 190.47,-771.07"/>
</g>
<!-- n16 -->
<g id="node17" class="node">
<title>n16</title>
<path fill="lightblue" stroke="black" d="M55.5,-427C55.5,-427 20.5,-427 20.5,-427 14.5,-427 8.5,-421 8.5,-415 8.5,-415 8.5,-403 8.5,-403 8.5,-397 14.5,-391 20.5,-391 20.5,-391 55.5,-391 55.5,-391 61.5,-391 67.5,-397 67.5,-403 67.5,-403 67.5,-415 67.5,-415 67.5,-421 61.5,-427 55.5,-427"/>
<text text-anchor="middle" x="38" y="-405.3" font-family="Times,serif" font-size="14.00">l1 b_4</text>
</g>
<!-- op34 -->
<g id="node61" class="node">
<title>op34</title>
<path fill="lightgreen" stroke="black" d="M196,-421C196,-421 190,-415 190,-415 187,-412 187,-406 190,-403 190,-403 196,-397 196,-397 199,-394 205,-394 208,-397 208,-397 214,-403 214,-403 217,-406 217,-412 214,-415 214,-415 208,-421 208,-421 205,-424 199,-424 196,-421"/>
<text text-anchor="middle" x="202" y="-405.3" font-family="Times,serif" font-size="14.00">+</text>
</g>
<!-- n16&#45;&gt;op34 -->
<g id="edge39" class="edge">
<title>n16&#45;&gt;op34</title>
<path fill="none" stroke="black" d="M67.59,-409C97.52,-409 144.19,-409 173.65,-409"/>
<polygon fill="black" stroke="black" points="173.66,-412.5 183.66,-409 173.66,-405.5 173.66,-412.5"/>
</g>
<!-- n20 -->
<g id="node18" class="node">
<title>n20</title>
<path fill="lightyellow" stroke="black" d="M383.5,-1170C383.5,-1170 348.5,-1170 348.5,-1170 342.5,-1170 336.5,-1164 336.5,-1158 336.5,-1158 336.5,-1146 336.5,-1146 336.5,-1140 342.5,-1134 348.5,-1134 348.5,-1134 383.5,-1134 383.5,-1134 389.5,-1134 395.5,-1140 395.5,-1146 395.5,-1146 395.5,-1158 395.5,-1158 395.5,-1164 389.5,-1170 383.5,-1170"/>
<text text-anchor="middle" x="366" y="-1148.3" font-family="Times,serif" font-size="14.00">l1 a_0</text>
</g>
<!-- op55 -->
<g id="node64" class="node">
<title>op55</title>
<path fill="lightgreen" stroke="black" d="M452,-1164C452,-1164 446,-1158 446,-1158 443,-1155 443,-1149 446,-1146 446,-1146 452,-1140 452,-1140 455,-1137 461,-1137 464,-1140 464,-1140 470,-1146 470,-1146 473,-1149 473,-1155 470,-1158 470,-1158 464,-1164 464,-1164 461,-1167 455,-1167 452,-1164"/>
<text text-anchor="middle" x="458" y="-1148.3" font-family="Times,serif" font-size="14.00">*</text>
</g>
<!-- n20&#45;&gt;op55 -->
<g id="edge46" class="edge">
<title>n20&#45;&gt;op55</title>
<path fill="none" stroke="black" d="M395.97,-1152C406.84,-1152 419.14,-1152 429.84,-1152"/>
<polygon fill="black" stroke="black" points="429.89,-1155.5 439.89,-1152 429.89,-1148.5 429.89,-1155.5"/>
</g>
<!-- op65 -->
<g id="node74" class="node">
<title>op65</title>
<path fill="lightgreen" stroke="black" d="M452,-1110C452,-1110 446,-1104 446,-1104 443,-1101 443,-1095 446,-1092 446,-1092 452,-1086 452,-1086 455,-1083 461,-1083 464,-1086 464,-1086 470,-1092 470,-1092 473,-1095 473,-1101 470,-1104 470,-1104 464,-1110 464,-1110 461,-1113 455,-1113 452,-1110"/>
<text text-anchor="middle" x="458" y="-1094.3" font-family="Times,serif" font-size="14.00">*</text>
</g>
<!-- n20&#45;&gt;op65 -->
<g id="edge67" class="edge">
<title>n20&#45;&gt;op65</title>
<path fill="none" stroke="black" d="M395.97,-1134.62C409.43,-1126.54 425.1,-1117.14 437.18,-1109.89"/>
<polygon fill="black" stroke="black" points="439.23,-1112.75 446,-1104.6 435.63,-1106.74 439.23,-1112.75"/>
</g>
<!-- op75 -->
<g id="node84" class="node">
<title>op75</title>
<path fill="lightgreen" stroke="black" d="M452,-1002C452,-1002 446,-996 446,-996 443,-993 443,-987 446,-984 446,-984 452,-978 452,-978 455,-975 461,-975 464,-978 464,-978 470,-984 470,-984 473,-987 473,-993 470,-996 470,-996 464,-1002 464,-1002 461,-1005 455,-1005 452,-1002"/>
<text text-anchor="middle" x="458" y="-986.3" font-family="Times,serif" font-size="14.00">*</text>
</g>
<!-- n20&#45;&gt;op75 -->
<g id="edge88" class="edge">
<title>n20&#45;&gt;op75</title>
<path fill="none" stroke="black" d="M395.6,-1133.8C398.68,-1131.1 401.57,-1128.15 404,-1125 430.05,-1091.24 444.83,-1043.06 451.85,-1014.32"/>
<polygon fill="black" stroke="black" points="455.32,-1014.86 454.17,-1004.33 448.5,-1013.28 455.32,-1014.86"/>
</g>
<!-- n24 -->
<g id="node19" class="node">
<title>n24</title>
<path fill="lightyellow" stroke="black" d="M383.5,-900C383.5,-900 348.5,-900 348.5,-900 342.5,-900 336.5,-894 336.5,-888 336.5,-888 336.5,-876 336.5,-876 336.5,-870 342.5,-864 348.5,-864 348.5,-864 383.5,-864 383.5,-864 389.5,-864 395.5,-870 395.5,-876 395.5,-876 395.5,-888 395.5,-888 395.5,-894 389.5,-900 383.5,-900"/>
<text text-anchor="middle" x="366" y="-878.3" font-family="Times,serif" font-size="14.00">l1 a_1</text>
</g>
<!-- op57 -->
<g id="node66" class="node">
<title>op57</title>
<path fill="lightgreen" stroke="black" d="M452,-928C452,-928 446,-922 446,-922 443,-919 443,-913 446,-910 446,-910 452,-904 452,-904 455,-901 461,-901 464,-904 464,-904 470,-910 470,-910 473,-913 473,-919 470,-922 470,-922 464,-928 464,-928 461,-931 455,-931 452,-928"/>
<text text-anchor="middle" x="458" y="-912.3" font-family="Times,serif" font-size="14.00">*</text>
</g>
<!-- n24&#45;&gt;op57 -->
<g id="edge50" class="edge">
<title>n24&#45;&gt;op57</title>
<path fill="none" stroke="black" d="M395.97,-892.94C408.69,-897.75 423.37,-903.3 435.15,-907.75"/>
<polygon fill="black" stroke="black" points="434.04,-911.07 444.63,-911.33 436.51,-904.52 434.04,-911.07"/>
</g>
<!-- op67 -->
<g id="node76" class="node">
<title>op67</title>
<path fill="lightgreen" stroke="black" d="M452,-855C452,-855 446,-849 446,-849 443,-846 443,-840 446,-837 446,-837 452,-831 452,-831 455,-828 461,-828 464,-831 464,-831 470,-837 470,-837 473,-840 473,-846 470,-849 470,-849 464,-855 464,-855 461,-858 455,-858 452,-855"/>
<text text-anchor="middle" x="458" y="-839.3" font-family="Times,serif" font-size="14.00">*</text>
</g>
<!-- n24&#45;&gt;op67 -->
<g id="edge71" class="edge">
<title>n24&#45;&gt;op67</title>
<path fill="none" stroke="black" d="M395.97,-869.45C408.85,-863.87 423.74,-857.41 435.59,-852.28"/>
<polygon fill="black" stroke="black" points="437.31,-855.35 445.09,-848.16 434.53,-848.92 437.31,-855.35"/>
</g>
<!-- op77 -->
<g id="node86" class="node">
<title>op77</title>
<path fill="lightgreen" stroke="black" d="M452,-786C452,-786 446,-780 446,-780 443,-777 443,-771 446,-768 446,-768 452,-762 452,-762 455,-759 461,-759 464,-762 464,-762 470,-768 470,-768 473,-771 473,-777 470,-780 470,-780 464,-786 464,-786 461,-789 455,-789 452,-786"/>
<text text-anchor="middle" x="458" y="-770.3" font-family="Times,serif" font-size="14.00">*</text>
</g>
<!-- n24&#45;&gt;op77 -->
<g id="edge92" class="edge">
<title>n24&#45;&gt;op77</title>
<path fill="none" stroke="black" d="M394.23,-863.91C397.69,-861.11 401.04,-858.11 404,-855 421.42,-836.67 436.67,-811.9 446.29,-794.6"/>
<polygon fill="black" stroke="black" points="449.59,-795.84 451.27,-785.38 443.44,-792.51 449.59,-795.84"/>
</g>
<!-- n28 -->
<g id="node20" class="node">
<title>n28</title>
<path fill="lightyellow" stroke="black" d="M383.5,-684C383.5,-684 348.5,-684 348.5,-684 342.5,-684 336.5,-678 336.5,-672 336.5,-672 336.5,-660 336.5,-660 336.5,-654 342.5,-648 348.5,-648 348.5,-648 383.5,-648 383.5,-648 389.5,-648 395.5,-654 395.5,-660 395.5,-660 395.5,-672 395.5,-672 395.5,-678 389.5,-684 383.5,-684"/>
<text text-anchor="middle" x="366" y="-662.3" font-family="Times,serif" font-size="14.00">l1 a_2</text>
</g>
<!-- op59 -->
<g id="node68" class="node">
<title>op59</title>
<path fill="lightgreen" stroke="black" d="M452,-698C452,-698 446,-692 446,-692 443,-689 443,-683 446,-680 446,-680 452,-674 452,-674 455,-671 461,-671 464,-674 464,-674 470,-680 470,-680 473,-683 473,-689 470,-692 470,-692 464,-698 464,-698 461,-701 455,-701 452,-698"/>
<text text-anchor="middle" x="458" y="-682.3" font-family="Times,serif" font-size="14.00">*</text>
</g>
<!-- n28&#45;&gt;op59 -->
<g id="edge54" class="edge">
<title>n28&#45;&gt;op59</title>
<path fill="none" stroke="black" d="M395.97,-672.44C407.81,-675.07 421.35,-678.08 432.66,-680.59"/>
<polygon fill="black" stroke="black" points="432.18,-684.07 442.7,-682.82 433.7,-677.24 432.18,-684.07"/>
</g>
<!-- op69 -->
<g id="node78" class="node">
<title>op69</title>
<path fill="lightgreen" stroke="black" d="M452,-637C452,-637 446,-631 446,-631 443,-628 443,-622 446,-619 446,-619 452,-613 452,-613 455,-610 461,-610 464,-613 464,-613 470,-619 470,-619 473,-622 473,-628 470,-631 470,-631 464,-637 464,-637 461,-640 455,-640 452,-637"/>
<text text-anchor="middle" x="458" y="-621.3" font-family="Times,serif" font-size="14.00">*</text>
</g>
<!-- n28&#45;&gt;op69 -->
<g id="edge75" class="edge">
<title>n28&#45;&gt;op69</title>
<path fill="none" stroke="black" d="M395.97,-652.8C408.98,-646.88 424.04,-640.01 435.95,-634.59"/>
<polygon fill="black" stroke="black" points="437.44,-637.76 445.09,-630.42 434.54,-631.39 437.44,-637.76"/>
</g>
<!-- op79 -->
<g id="node88" class="node">
<title>op79</title>
<path fill="lightgreen" stroke="black" d="M452,-579C452,-579 446,-573 446,-573 443,-570 443,-564 446,-561 446,-561 452,-555 452,-555 455,-552 461,-552 464,-555 464,-555 470,-561 470,-561 473,-564 473,-570 470,-573 470,-573 464,-579 464,-579 461,-582 455,-582 452,-579"/>
<text text-anchor="middle" x="458" y="-563.3" font-family="Times,serif" font-size="14.00">*</text>
</g>
<!-- n28&#45;&gt;op79 -->
<g id="edge96" class="edge">
<title>n28&#45;&gt;op79</title>
<path fill="none" stroke="black" d="M394.07,-647.76C397.55,-644.98 400.96,-642.03 404,-639 420.03,-623.04 434.99,-601.91 444.9,-586.68"/>
<polygon fill="black" stroke="black" points="447.97,-588.37 450.38,-578.05 442.06,-584.61 447.97,-588.37"/>
</g>
<!-- n32 -->
<g id="node21" class="node">
<title>n32</title>
<path fill="lightyellow" stroke="black" d="M383.5,-468C383.5,-468 348.5,-468 348.5,-468 342.5,-468 336.5,-462 336.5,-456 336.5,-456 336.5,-444 336.5,-444 336.5,-438 342.5,-432 348.5,-432 348.5,-432 383.5,-432 383.5,-432 389.5,-432 395.5,-438 395.5,-444 395.5,-444 395.5,-456 395.5,-456 395.5,-462 389.5,-468 383.5,-468"/>
<text text-anchor="middle" x="366" y="-446.3" font-family="Times,serif" font-size="14.00">l1 a_3</text>
</g>
<!-- op61 -->
<g id="node70" class="node">
<title>op61</title>
<path fill="lightgreen" stroke="black" d="M452,-513C452,-513 446,-507 446,-507 443,-504 443,-498 446,-495 446,-495 452,-489 452,-489 455,-486 461,-486 464,-489 464,-489 470,-495 470,-495 473,-498 473,-504 470,-507 470,-507 464,-513 464,-513 461,-516 455,-516 452,-513"/>
<text text-anchor="middle" x="458" y="-497.3" font-family="Times,serif" font-size="14.00">*</text>
</g>
<!-- n32&#45;&gt;op61 -->
<g id="edge58" class="edge">
<title>n32&#45;&gt;op61</title>
<path fill="none" stroke="black" d="M395.97,-466.42C409.43,-474.05 425.1,-482.92 437.18,-489.77"/>
<polygon fill="black" stroke="black" points="435.58,-492.88 446,-494.77 439.03,-486.79 435.58,-492.88"/>
</g>
<!-- op71 -->
<g id="node80" class="node">
<title>op71</title>
<path fill="lightgreen" stroke="black" d="M452,-456C452,-456 446,-450 446,-450 443,-447 443,-441 446,-438 446,-438 452,-432 452,-432 455,-429 461,-429 464,-432 464,-432 470,-438 470,-438 473,-441 473,-447 470,-450 470,-450 464,-456 464,-456 461,-459 455,-459 452,-456"/>
<text text-anchor="middle" x="458" y="-440.3" font-family="Times,serif" font-size="14.00">*</text>
</g>
<!-- n32&#45;&gt;op71 -->
<g id="edge79" class="edge">
<title>n32&#45;&gt;op71</title>
<path fill="none" stroke="black" d="M395.97,-448.07C407.15,-447.32 419.84,-446.48 430.75,-445.75"/>
<polygon fill="black" stroke="black" points="431.19,-449.23 440.93,-445.07 430.72,-442.24 431.19,-449.23"/>
</g>
<!-- op81 -->
<g id="node90" class="node">
<title>op81</title>
<path fill="lightgreen" stroke="black" d="M452,-398C452,-398 446,-392 446,-392 443,-389 443,-383 446,-380 446,-380 452,-374 452,-374 455,-371 461,-371 464,-374 464,-374 470,-380 470,-380 473,-383 473,-389 470,-392 470,-392 464,-398 464,-398 461,-401 455,-401 452,-398"/>
<text text-anchor="middle" x="458" y="-382.3" font-family="Times,serif" font-size="14.00">*</text>
</g>
<!-- n32&#45;&gt;op81 -->
<g id="edge100" class="edge">
<title>n32&#45;&gt;op81</title>
<path fill="none" stroke="black" d="M392.55,-431.83C407.24,-421.38 425.36,-408.5 438.65,-399.05"/>
<polygon fill="black" stroke="black" points="440.84,-401.78 446.96,-393.14 436.79,-396.08 440.84,-401.78"/>
</g>
<!-- n36 -->
<g id="node22" class="node">
<title>n36</title>
<path fill="lightyellow" stroke="black" d="M383.5,-252C383.5,-252 348.5,-252 348.5,-252 342.5,-252 336.5,-246 336.5,-240 336.5,-240 336.5,-228 336.5,-228 336.5,-222 342.5,-216 348.5,-216 348.5,-216 383.5,-216 383.5,-216 389.5,-216 395.5,-222 395.5,-228 395.5,-228 395.5,-240 395.5,-240 395.5,-246 389.5,-252 383.5,-252"/>
<text text-anchor="middle" x="366" y="-230.3" font-family="Times,serif" font-size="14.00">l1 a_4</text>
</g>
<!-- op63 -->
<g id="node72" class="node">
<title>op63</title>
<path fill="lightgreen" stroke="black" d="M452,-300C452,-300 446,-294 446,-294 443,-291 443,-285 446,-282 446,-282 452,-276 452,-276 455,-273 461,-273 464,-276 464,-276 470,-282 470,-282 473,-285 473,-291 470,-294 470,-294 464,-300 464,-300 461,-303 455,-303 452,-300"/>
<text text-anchor="middle" x="458" y="-284.3" font-family="Times,serif" font-size="14.00">*</text>
</g>
<!-- n36&#45;&gt;op63 -->
<g id="edge62" class="edge">
<title>n36&#45;&gt;op63</title>
<path fill="none" stroke="black" d="M395.97,-251.38C409.43,-259.46 425.1,-268.86 437.18,-276.11"/>
<polygon fill="black" stroke="black" points="435.63,-279.26 446,-281.4 439.23,-273.25 435.63,-279.26"/>
</g>
<!-- op73 -->
<g id="node82" class="node">
<title>op73</title>
<path fill="lightgreen" stroke="black" d="M452,-246C452,-246 446,-240 446,-240 443,-237 443,-231 446,-228 446,-228 452,-222 452,-222 455,-219 461,-219 464,-222 464,-222 470,-228 470,-228 473,-231 473,-237 470,-240 470,-240 464,-246 464,-246 461,-249 455,-249 452,-246"/>
<text text-anchor="middle" x="458" y="-230.3" font-family="Times,serif" font-size="14.00">*</text>
</g>
<!-- n36&#45;&gt;op73 -->
<g id="edge83" class="edge">
<title>n36&#45;&gt;op73</title>
<path fill="none" stroke="black" d="M395.97,-234C406.84,-234 419.14,-234 429.84,-234"/>
<polygon fill="black" stroke="black" points="429.89,-237.5 439.89,-234 429.89,-230.5 429.89,-237.5"/>
</g>
<!-- op83 -->
<g id="node92" class="node">
<title>op83</title>
<path fill="lightgreen" stroke="black" d="M452,-192C452,-192 446,-186 446,-186 443,-183 443,-177 446,-174 446,-174 452,-168 452,-168 455,-165 461,-165 464,-168 464,-168 470,-174 470,-174 473,-177 473,-183 470,-186 470,-186 464,-192 464,-192 461,-195 455,-195 452,-192"/>
<text text-anchor="middle" x="458" y="-176.3" font-family="Times,serif" font-size="14.00">*</text>
</g>
<!-- n36&#45;&gt;op83 -->
<g id="edge104" class="edge">
<title>n36&#45;&gt;op83</title>
<path fill="none" stroke="black" d="M395.97,-216.62C409.43,-208.54 425.1,-199.14 437.18,-191.89"/>
<polygon fill="black" stroke="black" points="439.23,-194.75 446,-186.6 435.63,-188.74 439.23,-194.75"/>
</g>
<!-- n37 -->
<g id="node23" class="node">
<title>n37</title>
<path fill="lightblue" stroke="black" d="M392,-1224C392,-1224 340,-1224 340,-1224 334,-1224 328,-1218 328,-1212 328,-1212 328,-1200 328,-1200 328,-1194 334,-1188 340,-1188 340,-1188 392,-1188 392,-1188 398,-1188 404,-1194 404,-1200 404,-1200 404,-1212 404,-1212 404,-1218 398,-1224 392,-1224"/>
<text text-anchor="middle" x="366" y="-1202.3" font-family="Times,serif" font-size="14.00">l2 w_0,0</text>
</g>
<!-- n37&#45;&gt;op55 -->
<g id="edge47" class="edge">
<title>n37&#45;&gt;op55</title>
<path fill="none" stroke="black" d="M397.47,-1187.72C410.54,-1179.88 425.44,-1170.94 437.06,-1163.96"/>
<polygon fill="black" stroke="black" points="439.17,-1166.78 445.94,-1158.63 435.57,-1160.78 439.17,-1166.78"/>
</g>
<!-- n38 -->
<g id="node24" class="node">
<title>n38</title>
<path fill="lightblue" stroke="black" d="M392,-954C392,-954 340,-954 340,-954 334,-954 328,-948 328,-942 328,-942 328,-930 328,-930 328,-924 334,-918 340,-918 340,-918 392,-918 392,-918 398,-918 404,-924 404,-930 404,-930 404,-942 404,-942 404,-948 398,-954 392,-954"/>
<text text-anchor="middle" x="366" y="-932.3" font-family="Times,serif" font-size="14.00">l2 w_0,1</text>
</g>
<!-- n38&#45;&gt;op57 -->
<g id="edge51" class="edge">
<title>n38&#45;&gt;op57</title>
<path fill="none" stroke="black" d="M404.13,-927.75C413.9,-925.58 424.19,-923.29 433.07,-921.32"/>
<polygon fill="black" stroke="black" points="434.06,-924.68 443.06,-919.1 432.54,-917.85 434.06,-924.68"/>
</g>
<!-- n39 -->
<g id="node25" class="node">
<title>n39</title>
<path fill="lightblue" stroke="black" d="M392,-738C392,-738 340,-738 340,-738 334,-738 328,-732 328,-726 328,-726 328,-714 328,-714 328,-708 334,-702 340,-702 340,-702 392,-702 392,-702 398,-702 404,-708 404,-714 404,-714 404,-726 404,-726 404,-732 398,-738 392,-738"/>
<text text-anchor="middle" x="366" y="-716.3" font-family="Times,serif" font-size="14.00">l2 w_0,2</text>
</g>
<!-- n39&#45;&gt;op59 -->
<g id="edge55" class="edge">
<title>n39&#45;&gt;op59</title>
<path fill="none" stroke="black" d="M404.13,-705.97C414.54,-702.04 425.53,-697.89 434.78,-694.39"/>
<polygon fill="black" stroke="black" points="436.24,-697.58 444.36,-690.77 433.77,-691.03 436.24,-697.58"/>
</g>
<!-- n40 -->
<g id="node26" class="node">
<title>n40</title>
<path fill="lightblue" stroke="black" d="M392,-522C392,-522 340,-522 340,-522 334,-522 328,-516 328,-510 328,-510 328,-498 328,-498 328,-492 334,-486 340,-486 340,-486 392,-486 392,-486 398,-486 404,-492 404,-498 404,-498 404,-510 404,-510 404,-516 398,-522 392,-522"/>
<text text-anchor="middle" x="366" y="-500.3" font-family="Times,serif" font-size="14.00">l2 w_0,3</text>
</g>
<!-- n40&#45;&gt;op61 -->
<g id="edge59" class="edge">
<title>n40&#45;&gt;op61</title>
<path fill="none" stroke="black" d="M404.13,-502.76C412.88,-502.47 422.04,-502.17 430.24,-501.89"/>
<polygon fill="black" stroke="black" points="430.45,-505.39 440.33,-501.56 430.22,-498.39 430.45,-505.39"/>
</g>
<!-- n41 -->
<g id="node27" class="node">
<title>n41</title>
<path fill="lightblue" stroke="black" d="M392,-306C392,-306 340,-306 340,-306 334,-306 328,-300 328,-294 328,-294 328,-282 328,-282 328,-276 334,-270 340,-270 340,-270 392,-270 392,-270 398,-270 404,-276 404,-282 404,-282 404,-294 404,-294 404,-300 398,-306 392,-306"/>
<text text-anchor="middle" x="366" y="-284.3" font-family="Times,serif" font-size="14.00">l2 w_0,4</text>
</g>
<!-- n41&#45;&gt;op63 -->
<g id="edge63" class="edge">
<title>n41&#45;&gt;op63</title>
<path fill="none" stroke="black" d="M404.13,-288C412.74,-288 421.76,-288 429.86,-288"/>
<polygon fill="black" stroke="black" points="429.86,-291.5 439.86,-288 429.86,-284.5 429.86,-291.5"/>
</g>
<!-- n42 -->
<g id="node28" class="node">
<title>n42</title>
<path fill="lightblue" stroke="black" d="M392,-1116C392,-1116 340,-1116 340,-1116 334,-1116 328,-1110 328,-1104 328,-1104 328,-1092 328,-1092 328,-1086 334,-1080 340,-1080 340,-1080 392,-1080 392,-1080 398,-1080 404,-1086 404,-1092 404,-1092 404,-1104 404,-1104 404,-1110 398,-1116 392,-1116"/>
<text text-anchor="middle" x="366" y="-1094.3" font-family="Times,serif" font-size="14.00">l2 w_1,0</text>
</g>
<!-- n42&#45;&gt;op65 -->
<g id="edge68" class="edge">
<title>n42&#45;&gt;op65</title>
<path fill="none" stroke="black" d="M404.13,-1098C412.74,-1098 421.76,-1098 429.86,-1098"/>
<polygon fill="black" stroke="black" points="429.86,-1101.5 439.86,-1098 429.86,-1094.5 429.86,-1101.5"/>
</g>
<!-- n43 -->
<g id="node29" class="node">
<title>n43</title>
<path fill="lightblue" stroke="black" d="M392,-846C392,-846 340,-846 340,-846 334,-846 328,-840 328,-834 328,-834 328,-822 328,-822 328,-816 334,-810 340,-810 340,-810 392,-810 392,-810 398,-810 404,-816 404,-822 404,-822 404,-834 404,-834 404,-840 398,-846 392,-846"/>
<text text-anchor="middle" x="366" y="-824.3" font-family="Times,serif" font-size="14.00">l2 w_1,1</text>
</g>
<!-- n43&#45;&gt;op67 -->
<g id="edge72" class="edge">
<title>n43&#45;&gt;op67</title>
<path fill="none" stroke="black" d="M404.13,-834.19C413.52,-835.75 423.39,-837.4 432.03,-838.84"/>
<polygon fill="black" stroke="black" points="431.73,-842.34 442.17,-840.53 432.88,-835.43 431.73,-842.34"/>
</g>
<!-- n44 -->
<g id="node30" class="node">
<title>n44</title>
<path fill="lightblue" stroke="black" d="M392,-630C392,-630 340,-630 340,-630 334,-630 328,-624 328,-618 328,-618 328,-606 328,-606 328,-600 334,-594 340,-594 340,-594 392,-594 392,-594 398,-594 404,-600 404,-606 404,-606 404,-618 404,-618 404,-624 398,-630 392,-630"/>
<text text-anchor="middle" x="366" y="-608.3" font-family="Times,serif" font-size="14.00">l2 w_1,2</text>
</g>
<!-- n44&#45;&gt;op69 -->
<g id="edge76" class="edge">
<title>n44&#45;&gt;op69</title>
<path fill="none" stroke="black" d="M404.13,-617.36C413.39,-618.7 423.11,-620.1 431.65,-621.34"/>
<polygon fill="black" stroke="black" points="431.32,-624.83 441.72,-622.79 432.32,-617.9 431.32,-624.83"/>
</g>
<!-- n45 -->
<g id="node31" class="node">
<title>n45</title>
<path fill="lightblue" stroke="black" d="M392,-414C392,-414 340,-414 340,-414 334,-414 328,-408 328,-402 328,-402 328,-390 328,-390 328,-384 334,-378 340,-378 340,-378 392,-378 392,-378 398,-378 404,-384 404,-390 404,-390 404,-402 404,-402 404,-408 398,-414 392,-414"/>
<text text-anchor="middle" x="366" y="-392.3" font-family="Times,serif" font-size="14.00">l2 w_1,3</text>
</g>
<!-- n45&#45;&gt;op71 -->
<g id="edge80" class="edge">
<title>n45&#45;&gt;op71</title>
<path fill="none" stroke="black" d="M400.77,-414.01C412.84,-420.45 426.05,-427.5 436.64,-433.14"/>
<polygon fill="black" stroke="black" points="435.05,-436.26 445.52,-437.88 438.34,-430.08 435.05,-436.26"/>
</g>
<!-- n46 -->
<g id="node32" class="node">
<title>n46</title>
<path fill="lightblue" stroke="black" d="M392,-198C392,-198 340,-198 340,-198 334,-198 328,-192 328,-186 328,-186 328,-174 328,-174 328,-168 334,-162 340,-162 340,-162 392,-162 392,-162 398,-162 404,-168 404,-174 404,-174 404,-186 404,-186 404,-192 398,-198 392,-198"/>
<text text-anchor="middle" x="366" y="-176.3" font-family="Times,serif" font-size="14.00">l2 w_1,4</text>
</g>
<!-- n46&#45;&gt;op73 -->
<g id="edge84" class="edge">
<title>n46&#45;&gt;op73</title>
<path fill="none" stroke="black" d="M397.47,-198.28C410.54,-206.12 425.44,-215.06 437.06,-222.04"/>
<polygon fill="black" stroke="black" points="435.57,-225.22 445.94,-227.37 439.17,-219.22 435.57,-225.22"/>
</g>
<!-- n47 -->
<g id="node33" class="node">
<title>n47</title>
<path fill="lightblue" stroke="black" d="M392,-1008C392,-1008 340,-1008 340,-1008 334,-1008 328,-1002 328,-996 328,-996 328,-984 328,-984 328,-978 334,-972 340,-972 340,-972 392,-972 392,-972 398,-972 404,-978 404,-984 404,-984 404,-996 404,-996 404,-1002 398,-1008 392,-1008"/>
<text text-anchor="middle" x="366" y="-986.3" font-family="Times,serif" font-size="14.00">l2 w_2,0</text>
</g>
<!-- n47&#45;&gt;op75 -->
<g id="edge89" class="edge">
<title>n47&#45;&gt;op75</title>
<path fill="none" stroke="black" d="M404.13,-990C412.74,-990 421.76,-990 429.86,-990"/>
<polygon fill="black" stroke="black" points="429.86,-993.5 439.86,-990 429.86,-986.5 429.86,-993.5"/>
</g>
<!-- n48 -->
<g id="node34" class="node">
<title>n48</title>
<path fill="lightblue" stroke="black" d="M392,-792C392,-792 340,-792 340,-792 334,-792 328,-786 328,-780 328,-780 328,-768 328,-768 328,-762 334,-756 340,-756 340,-756 392,-756 392,-756 398,-756 404,-762 404,-768 404,-768 404,-780 404,-780 404,-786 398,-792 392,-792"/>
<text text-anchor="middle" x="366" y="-770.3" font-family="Times,serif" font-size="14.00">l2 w_2,1</text>
</g>
<!-- n48&#45;&gt;op77 -->
<g id="edge93" class="edge">
<title>n48&#45;&gt;op77</title>
<path fill="none" stroke="black" d="M404.13,-774C412.74,-774 421.76,-774 429.86,-774"/>
<polygon fill="black" stroke="black" points="429.86,-777.5 439.86,-774 429.86,-770.5 429.86,-777.5"/>
</g>
<!-- n49 -->
<g id="node35" class="node">
<title>n49</title>
<path fill="lightblue" stroke="black" d="M392,-576C392,-576 340,-576 340,-576 334,-576 328,-570 328,-564 328,-564 328,-552 328,-552 328,-546 334,-540 340,-540 340,-540 392,-540 392,-540 398,-540 404,-546 404,-552 404,-552 404,-564 404,-564 404,-570 398,-576 392,-576"/>
<text text-anchor="middle" x="366" y="-554.3" font-family="Times,serif" font-size="14.00">l2 w_2,2</text>
</g>
<!-- n49&#45;&gt;op79 -->
<g id="edge97" class="edge">
<title>n49&#45;&gt;op79</title>
<path fill="none" stroke="black" d="M404.13,-561.71C413.25,-562.63 422.82,-563.58 431.27,-564.43"/>
<polygon fill="black" stroke="black" points="430.96,-567.91 441.26,-565.43 431.66,-560.95 430.96,-567.91"/>
</g>
<!-- n50 -->
<g id="node36" class="node">
<title>n50</title>
<path fill="lightblue" stroke="black" d="M392,-360C392,-360 340,-360 340,-360 334,-360 328,-354 328,-348 328,-348 328,-336 328,-336 328,-330 334,-324 340,-324 340,-324 392,-324 392,-324 398,-324 404,-330 404,-336 404,-336 404,-348 404,-348 404,-354 398,-360 392,-360"/>
<text text-anchor="middle" x="366" y="-338.3" font-family="Times,serif" font-size="14.00">l2 w_2,3</text>
</g>
<!-- n50&#45;&gt;op81 -->
<g id="edge101" class="edge">
<title>n50&#45;&gt;op81</title>
<path fill="none" stroke="black" d="M403.87,-360.02C414.96,-365.45 426.74,-371.21 436.38,-375.92"/>
<polygon fill="black" stroke="black" points="435.02,-379.15 445.54,-380.4 438.09,-372.86 435.02,-379.15"/>
</g>
<!-- n51 -->
<g id="node37" class="node">
<title>n51</title>
<path fill="lightblue" stroke="black" d="M392,-144C392,-144 340,-144 340,-144 334,-144 328,-138 328,-132 328,-132 328,-120 328,-120 328,-114 334,-108 340,-108 340,-108 392,-108 392,-108 398,-108 404,-114 404,-120 404,-120 404,-132 404,-132 404,-138 398,-144 392,-144"/>
<text text-anchor="middle" x="366" y="-122.3" font-family="Times,serif" font-size="14.00">l2 w_2,4</text>
</g>
<!-- n51&#45;&gt;op83 -->
<g id="edge105" class="edge">
<title>n51&#45;&gt;op83</title>
<path fill="none" stroke="black" d="M397.47,-144.28C410.54,-152.12 425.44,-161.06 437.06,-168.04"/>
<polygon fill="black" stroke="black" points="435.57,-171.22 445.94,-173.37 439.17,-165.22 435.57,-171.22"/>
</g>
<!-- n52 -->
<g id="node38" class="node">
<title>n52</title>
<path fill="lightblue" stroke="black" d="M383.5,-36C383.5,-36 348.5,-36 348.5,-36 342.5,-36 336.5,-30 336.5,-24 336.5,-24 336.5,-12 336.5,-12 336.5,-6 342.5,0 348.5,0 348.5,0 383.5,0 383.5,0 389.5,0 395.5,-6 395.5,-12 395.5,-12 395.5,-24 395.5,-24 395.5,-30 389.5,-36 383.5,-36"/>
<text text-anchor="middle" x="366" y="-14.3" font-family="Times,serif" font-size="14.00">l2 b_0</text>
</g>
<!-- op56 -->
<g id="node65" class="node">
<title>op56</title>
<path fill="lightgreen" stroke="black" d="M524,-1069C524,-1069 518,-1063 518,-1063 515,-1060 515,-1054 518,-1051 518,-1051 524,-1045 524,-1045 527,-1042 533,-1042 536,-1045 536,-1045 542,-1051 542,-1051 545,-1054 545,-1060 542,-1063 542,-1063 536,-1069 536,-1069 533,-1072 527,-1072 524,-1069"/>
<text text-anchor="middle" x="530" y="-1053.3" font-family="Times,serif" font-size="14.00">+</text>
</g>
<!-- n52&#45;&gt;op56 -->
<g id="edge48" class="edge">
<title>n52&#45;&gt;op56</title>
<path fill="none" stroke="black" d="M394.21,-36.11C397.66,-38.91 401.03,-41.9 404,-45 443.92,-86.65 458.15,-98.14 476,-153 536.34,-338.49 454.08,-843.74 512,-1030 512.96,-1033.07 514.35,-1036.14 515.94,-1039.05"/>
<polygon fill="black" stroke="black" points="513.06,-1041.04 521.38,-1047.61 518.97,-1037.29 513.06,-1041.04"/>
</g>
<!-- n53 -->
<g id="node39" class="node">
<title>n53</title>
<path fill="lightblue" stroke="black" d="M383.5,-1062C383.5,-1062 348.5,-1062 348.5,-1062 342.5,-1062 336.5,-1056 336.5,-1050 336.5,-1050 336.5,-1038 336.5,-1038 336.5,-1032 342.5,-1026 348.5,-1026 348.5,-1026 383.5,-1026 383.5,-1026 389.5,-1026 395.5,-1032 395.5,-1038 395.5,-1038 395.5,-1050 395.5,-1050 395.5,-1056 389.5,-1062 383.5,-1062"/>
<text text-anchor="middle" x="366" y="-1040.3" font-family="Times,serif" font-size="14.00">l2 b_1</text>
</g>
<!-- op66 -->
<g id="node75" class="node">
<title>op66</title>
<path fill="lightgreen" stroke="black" d="M524,-1015C524,-1015 518,-1009 518,-1009 515,-1006 515,-1000 518,-997 518,-997 524,-991 524,-991 527,-988 533,-988 536,-991 536,-991 542,-997 542,-997 545,-1000 545,-1006 542,-1009 542,-1009 536,-1015 536,-1015 533,-1018 527,-1018 524,-1015"/>
<text text-anchor="middle" x="530" y="-999.3" font-family="Times,serif" font-size="14.00">+</text>
</g>
<!-- n53&#45;&gt;op66 -->
<g id="edge69" class="edge">
<title>n53&#45;&gt;op66</title>
<path fill="none" stroke="black" d="M395.72,-1037.01C417.71,-1031.63 448.8,-1023.96 476,-1017 485.78,-1014.5 496.56,-1011.66 505.82,-1009.21"/>
<polygon fill="black" stroke="black" points="506.75,-1012.58 515.51,-1006.63 504.94,-1005.82 506.75,-1012.58"/>
</g>
<!-- n54 -->
<g id="node40" class="node">
<title>n54</title>
<path fill="lightblue" stroke="black" d="M383.5,-90C383.5,-90 348.5,-90 348.5,-90 342.5,-90 336.5,-84 336.5,-78 336.5,-78 336.5,-66 336.5,-66 336.5,-60 342.5,-54 348.5,-54 348.5,-54 383.5,-54 383.5,-54 389.5,-54 395.5,-60 395.5,-66 395.5,-66 395.5,-78 395.5,-78 395.5,-84 389.5,-90 383.5,-90"/>
<text text-anchor="middle" x="366" y="-68.3" font-family="Times,serif" font-size="14.00">l2 b_2</text>
</g>
<!-- op76 -->
<g id="node85" class="node">
<title>op76</title>
<path fill="lightgreen" stroke="black" d="M524,-805C524,-805 518,-799 518,-799 515,-796 515,-790 518,-787 518,-787 524,-781 524,-781 527,-778 533,-778 536,-781 536,-781 542,-787 542,-787 545,-790 545,-796 542,-799 542,-799 536,-805 536,-805 533,-808 527,-808 524,-805"/>
<text text-anchor="middle" x="530" y="-789.3" font-family="Times,serif" font-size="14.00">+</text>
</g>
<!-- n54&#45;&gt;op76 -->
<g id="edge90" class="edge">
<title>n54&#45;&gt;op76</title>
<path fill="none" stroke="black" d="M395.76,-84.69C421.62,-97.77 458.21,-120.81 476,-153 506.04,-207.35 523.94,-651.91 528.07,-766.26"/>
<polygon fill="black" stroke="black" points="524.58,-766.4 528.43,-776.27 531.57,-766.15 524.58,-766.4"/>
</g>
<!-- n64 -->
<g id="node41" class="node">
<title>n64</title>
<path fill="lightyellow" stroke="black" d="M919,-463C919,-463 884,-463 884,-463 878,-463 872,-457 872,-451 872,-451 872,-439 872,-439 872,-433 878,-427 884,-427 884,-427 919,-427 919,-427 925,-427 931,-433 931,-439 931,-439 931,-451 931,-451 931,-457 925,-463 919,-463"/>
<text text-anchor="middle" x="901.5" y="-441.3" font-family="Times,serif" font-size="14.00">l2 a_0</text>
</g>
<!-- n74 -->
<g id="node42" class="node">
<title>n74</title>
<path fill="lightyellow" stroke="black" d="M919,-336C919,-336 884,-336 884,-336 878,-336 872,-330 872,-324 872,-324 872,-312 872,-312 872,-306 878,-300 884,-300 884,-300 919,-300 919,-300 925,-300 931,-306 931,-312 931,-312 931,-324 931,-324 931,-330 925,-336 919,-336"/>
<text text-anchor="middle" x="901.5" y="-314.3" font-family="Times,serif" font-size="14.00">l2 a_1</text>
</g>
<!-- n84 -->
<g id="node43" class="node">
<title>n84</title>
<path fill="lightyellow" stroke="black" d="M919,-266C919,-266 884,-266 884,-266 878,-266 872,-260 872,-254 872,-254 872,-242 872,-242 872,-236 878,-230 884,-230 884,-230 919,-230 919,-230 925,-230 931,-236 931,-242 931,-242 931,-254 931,-254 931,-260 925,-266 919,-266"/>
<text text-anchor="middle" x="901.5" y="-244.3" font-family="Times,serif" font-size="14.00">l2 a_2</text>
</g>
<!-- op17&#45;&gt;op18 -->
<g id="edge4" class="edge">
<title>op17&#45;&gt;op18</title>
<path fill="none" stroke="black" d="M138.76,-1101.25C150.38,-1086.63 172.5,-1058.83 186.99,-1040.61"/>
<polygon fill="black" stroke="black" points="189.93,-1042.53 193.42,-1032.53 184.45,-1038.18 189.93,-1042.53"/>
</g>
<!-- op20 -->
<g id="node47" class="node">
<title>op20</title>
<path fill="lightgreen" stroke="black" d="M268,-1035C268,-1035 262,-1029 262,-1029 259,-1026 259,-1020 262,-1017 262,-1017 268,-1011 268,-1011 271,-1008 277,-1008 280,-1011 280,-1011 286,-1017 286,-1017 289,-1020 289,-1026 286,-1029 286,-1029 280,-1035 280,-1035 277,-1038 271,-1038 268,-1035"/>
<text text-anchor="middle" x="274" y="-1019.3" font-family="Times,serif" font-size="14.00">+</text>
</g>
<!-- op18&#45;&gt;op20 -->
<g id="edge7" class="edge">
<title>op18&#45;&gt;op20</title>
<path fill="none" stroke="black" d="M220.3,-1023C228.02,-1023 237.29,-1023 245.89,-1023"/>
<polygon fill="black" stroke="black" points="245.9,-1026.5 255.9,-1023 245.9,-1019.5 245.9,-1026.5"/>
</g>
<!-- op19&#45;&gt;op20 -->
<g id="edge8" class="edge">
<title>op19&#45;&gt;op20</title>
<path fill="none" stroke="black" d="M145.29,-682.01C165.37,-687.03 201.52,-699.12 220,-724 236.31,-745.95 260.99,-928.67 269.76,-997.19"/>
<polygon fill="black" stroke="black" points="266.34,-998.04 271.08,-1007.52 273.29,-997.16 266.34,-998.04"/>
</g>
<!-- op20&#45;&gt;n20 -->
<g id="edge9" class="edge">
<title>op20&#45;&gt;n20</title>
<path fill="none" stroke="black" d="M279.42,-1035.72C286.98,-1056.2 303.94,-1097 328,-1125 328.51,-1125.59 329.03,-1126.17 329.56,-1126.75"/>
<polygon fill="black" stroke="black" points="327.42,-1129.54 337.09,-1133.86 332.23,-1124.45 327.42,-1129.54"/>
</g>
<!-- op21&#45;&gt;op22 -->
<g id="edge13" class="edge">
<title>op21&#45;&gt;op22</title>
<path fill="none" stroke="black" d="M138.1,-1047.09C141.43,-1042.13 145.26,-1035.93 148,-1030 170.93,-980.38 187.57,-918.19 195.6,-884.8"/>
<polygon fill="black" stroke="black" points="199.02,-885.57 197.9,-875.03 192.2,-883.96 199.02,-885.57"/>
</g>
<!-- op24 -->
<g id="node51" class="node">
<title>op24</title>
<path fill="lightgreen" stroke="black" d="M268,-873C268,-873 262,-867 262,-867 259,-864 259,-858 262,-855 262,-855 268,-849 268,-849 271,-846 277,-846 280,-849 280,-849 286,-855 286,-855 289,-858 289,-864 286,-867 286,-867 280,-873 280,-873 277,-876 271,-876 268,-873"/>
<text text-anchor="middle" x="274" y="-857.3" font-family="Times,serif" font-size="14.00">+</text>
</g>
<!-- op22&#45;&gt;op24 -->
<g id="edge16" class="edge">
<title>op22&#45;&gt;op24</title>
<path fill="none" stroke="black" d="M220.3,-861C228.02,-861 237.29,-861 245.89,-861"/>
<polygon fill="black" stroke="black" points="245.9,-864.5 255.9,-861 245.9,-857.5 245.9,-864.5"/>
</g>
<!-- op23&#45;&gt;op24 -->
<g id="edge17" class="edge">
<title>op23&#45;&gt;op24</title>
<path fill="none" stroke="black" d="M143.01,-630.16C162.15,-639 199.5,-658.83 220,-687 253,-732.36 265.72,-798.54 270.42,-834.81"/>
<polygon fill="black" stroke="black" points="266.98,-835.54 271.63,-845.05 273.93,-834.71 266.98,-835.54"/>
</g>
<!-- op24&#45;&gt;n24 -->
<g id="edge18" class="edge">
<title>op24&#45;&gt;n24</title>
<path fill="none" stroke="black" d="M289.06,-864.28C299.07,-866.62 313.03,-869.87 326.26,-872.96"/>
<polygon fill="black" stroke="black" points="325.62,-876.4 336.15,-875.27 327.21,-869.59 325.62,-876.4"/>
</g>
<!-- op25&#45;&gt;op26 -->
<g id="edge22" class="edge">
<title>op25&#45;&gt;op26</title>
<path fill="none" stroke="black" d="M138.25,-993.16C141.61,-988.21 145.42,-982.01 148,-976 173.66,-916.16 159.29,-894.24 184,-834 185.33,-830.76 186.97,-827.45 188.7,-824.27"/>
<polygon fill="black" stroke="black" points="191.88,-825.76 193.95,-815.37 185.86,-822.2 191.88,-825.76"/>
</g>
<!-- op28 -->
<g id="node55" class="node">
<title>op28</title>
<path fill="lightgreen" stroke="black" d="M268,-678C268,-678 262,-672 262,-672 259,-669 259,-663 262,-660 262,-660 268,-654 268,-654 271,-651 277,-651 280,-654 280,-654 286,-660 286,-660 289,-663 289,-669 286,-672 286,-672 280,-678 280,-678 277,-681 271,-681 268,-678"/>
<text text-anchor="middle" x="274" y="-662.3" font-family="Times,serif" font-size="14.00">+</text>
</g>
<!-- op26&#45;&gt;op28 -->
<g id="edge25" class="edge">
<title>op26&#45;&gt;op28</title>
<path fill="none" stroke="black" d="M209.92,-794.66C213.13,-789.7 216.91,-783.63 220,-778 236.87,-747.26 253.75,-710.25 263.78,-687.42"/>
<polygon fill="black" stroke="black" points="267.1,-688.57 267.89,-678 260.68,-685.77 267.1,-688.57"/>
</g>
<!-- op27&#45;&gt;op28 -->
<g id="edge26" class="edge">
<title>op27&#45;&gt;op28</title>
<path fill="none" stroke="black" d="M141.21,-577.83C164.84,-593.64 223.58,-632.94 254.03,-653.31"/>
<polygon fill="black" stroke="black" points="252.24,-656.32 262.5,-658.97 256.13,-650.5 252.24,-656.32"/>
</g>
<!-- op28&#45;&gt;n28 -->
<g id="edge27" class="edge">
<title>op28&#45;&gt;n28</title>
<path fill="none" stroke="black" d="M292.35,-666C301.99,-666 314.4,-666 326.22,-666"/>
<polygon fill="black" stroke="black" points="326.37,-669.5 336.37,-666 326.37,-662.5 326.37,-669.5"/>
</g>
<!-- op29&#45;&gt;op30 -->
<g id="edge31" class="edge">
<title>op29&#45;&gt;op30</title>
<path fill="none" stroke="black" d="M136.48,-937.26C140.04,-929.37 144.63,-918.69 148,-909 167.85,-851.98 159.65,-833.25 184,-778 185.24,-775.2 186.73,-772.34 188.32,-769.59"/>
<polygon fill="black" stroke="black" points="191.44,-771.19 193.8,-760.86 185.52,-767.47 191.44,-771.19"/>
</g>
<!-- op32 -->
<g id="node59" class="node">
<title>op32</title>
<path fill="lightgreen" stroke="black" d="M268,-502C268,-502 262,-496 262,-496 259,-493 259,-487 262,-484 262,-484 268,-478 268,-478 271,-475 277,-475 280,-478 280,-478 286,-484 286,-484 289,-487 289,-493 286,-496 286,-496 280,-502 280,-502 277,-505 271,-505 268,-502"/>
<text text-anchor="middle" x="274" y="-486.3" font-family="Times,serif" font-size="14.00">+</text>
</g>
<!-- op30&#45;&gt;op32 -->
<g id="edge34" class="edge">
<title>op30&#45;&gt;op32</title>
<path fill="none" stroke="black" d="M206.66,-737.33C217.98,-695.14 252.47,-566.56 266.73,-513.39"/>
<polygon fill="black" stroke="black" points="270.16,-514.1 269.37,-503.53 263.4,-512.28 270.16,-514.1"/>
</g>
<!-- op31&#45;&gt;op32 -->
<g id="edge35" class="edge">
<title>op31&#45;&gt;op32</title>
<path fill="none" stroke="black" d="M148.13,-490C172.33,-490 216.79,-490 245.61,-490"/>
<polygon fill="black" stroke="black" points="245.81,-493.5 255.81,-490 245.81,-486.5 245.81,-493.5"/>
</g>
<!-- op32&#45;&gt;n32 -->
<g id="edge36" class="edge">
<title>op32&#45;&gt;n32</title>
<path fill="none" stroke="black" d="M287.14,-484.61C297.45,-480.02 312.82,-473.19 327.19,-466.8"/>
<polygon fill="black" stroke="black" points="328.71,-469.96 336.43,-462.7 325.87,-463.56 328.71,-469.96"/>
</g>
<!-- op33&#45;&gt;op34 -->
<g id="edge40" class="edge">
<title>op33&#45;&gt;op34</title>
<path fill="none" stroke="black" d="M134.08,-772.98C137.59,-756.85 143.43,-729.56 148,-706 167.53,-605.4 188.16,-485.1 196.81,-433.97"/>
<polygon fill="black" stroke="black" points="200.3,-434.31 198.51,-423.86 193.4,-433.14 200.3,-434.31"/>
</g>
<!-- op36 -->
<g id="node63" class="node">
<title>op36</title>
<path fill="lightgreen" stroke="black" d="M268,-371C268,-371 262,-365 262,-365 259,-362 259,-356 262,-353 262,-353 268,-347 268,-347 271,-344 277,-344 280,-347 280,-347 286,-353 286,-353 289,-356 289,-362 286,-365 286,-365 280,-371 280,-371 277,-374 271,-374 268,-371"/>
<text text-anchor="middle" x="274" y="-355.3" font-family="Times,serif" font-size="14.00">+</text>
</g>
<!-- op34&#45;&gt;op36 -->
<g id="edge43" class="edge">
<title>op34&#45;&gt;op36</title>
<path fill="none" stroke="black" d="M213.03,-401.84C223.84,-394.11 241.29,-381.65 254.58,-372.16"/>
<polygon fill="black" stroke="black" points="256.89,-374.81 262.99,-366.15 252.82,-369.11 256.89,-374.81"/>
</g>
<!-- op35&#45;&gt;op36 -->
<g id="edge44" class="edge">
<title>op35&#45;&gt;op36</title>
<path fill="none" stroke="black" d="M148.13,-359C172.33,-359 216.79,-359 245.61,-359"/>
<polygon fill="black" stroke="black" points="245.81,-362.5 255.81,-359 245.81,-355.5 245.81,-362.5"/>
</g>
<!-- op36&#45;&gt;n36 -->
<g id="edge45" class="edge">
<title>op36&#45;&gt;n36</title>
<path fill="none" stroke="black" d="M279.66,-346.46C287.45,-326.7 304.58,-287.8 328,-261 328.51,-260.42 329.04,-259.84 329.57,-259.26"/>
<polygon fill="black" stroke="black" points="332.23,-261.57 337.14,-252.18 327.45,-256.46 332.23,-261.57"/>
</g>
<!-- op55&#45;&gt;op56 -->
<g id="edge49" class="edge">
<title>op55&#45;&gt;op56</title>
<path fill="none" stroke="black" d="M466.23,-1142.19C477.86,-1126.4 500.91,-1095.12 515.61,-1075.17"/>
<polygon fill="black" stroke="black" points="518.59,-1077.02 521.71,-1066.9 512.96,-1072.87 518.59,-1077.02"/>
</g>
<!-- op58 -->
<g id="node67" class="node">
<title>op58</title>
<path fill="lightgreen" stroke="black" d="M596,-928C596,-928 590,-922 590,-922 587,-919 587,-913 590,-910 590,-910 596,-904 596,-904 599,-901 605,-901 608,-904 608,-904 614,-910 614,-910 617,-913 617,-919 614,-922 614,-922 608,-928 608,-928 605,-931 599,-931 596,-928"/>
<text text-anchor="middle" x="602" y="-912.3" font-family="Times,serif" font-size="14.00">+</text>
</g>
<!-- op56&#45;&gt;op58 -->
<g id="edge52" class="edge">
<title>op56&#45;&gt;op58</title>
<path fill="none" stroke="black" d="M537.94,-1046.67C541.15,-1041.72 544.93,-1035.64 548,-1030 565.09,-998.61 582,-960.73 591.97,-937.51"/>
<polygon fill="black" stroke="black" points="595.23,-938.8 595.92,-928.23 588.79,-936.06 595.23,-938.8"/>
</g>
<!-- op57&#45;&gt;op58 -->
<g id="edge53" class="edge">
<title>op57&#45;&gt;op58</title>
<path fill="none" stroke="black" d="M476.13,-916C500.33,-916 544.79,-916 573.61,-916"/>
<polygon fill="black" stroke="black" points="573.81,-919.5 583.81,-916 573.81,-912.5 573.81,-919.5"/>
</g>
<!-- op60 -->
<g id="node69" class="node">
<title>op60</title>
<path fill="lightgreen" stroke="black" d="M668,-698C668,-698 662,-692 662,-692 659,-689 659,-683 662,-680 662,-680 668,-674 668,-674 671,-671 677,-671 680,-674 680,-674 686,-680 686,-680 689,-683 689,-689 686,-692 686,-692 680,-698 680,-698 677,-701 671,-701 668,-698"/>
<text text-anchor="middle" x="674" y="-682.3" font-family="Times,serif" font-size="14.00">+</text>
</g>
<!-- op58&#45;&gt;op60 -->
<g id="edge56" class="edge">
<title>op58&#45;&gt;op60</title>
<path fill="none" stroke="black" d="M607.87,-903.59C611.41,-894.38 616.23,-881.49 620,-870 638.79,-812.75 657.54,-744.33 666.89,-709.26"/>
<polygon fill="black" stroke="black" points="670.3,-710.06 669.48,-699.49 663.53,-708.26 670.3,-710.06"/>
</g>
<!-- op59&#45;&gt;op60 -->
<g id="edge57" class="edge">
<title>op59&#45;&gt;op60</title>
<path fill="none" stroke="black" d="M476.15,-686C513.17,-686 600.82,-686 645.61,-686"/>
<polygon fill="black" stroke="black" points="645.77,-689.5 655.77,-686 645.77,-682.5 645.77,-689.5"/>
</g>
<!-- op62 -->
<g id="node71" class="node">
<title>op62</title>
<path fill="lightgreen" stroke="black" d="M740,-513C740,-513 734,-507 734,-507 731,-504 731,-498 734,-495 734,-495 740,-489 740,-489 743,-486 749,-486 752,-489 752,-489 758,-495 758,-495 761,-498 761,-504 758,-507 758,-507 752,-513 752,-513 749,-516 743,-516 740,-513"/>
<text text-anchor="middle" x="746" y="-497.3" font-family="Times,serif" font-size="14.00">+</text>
</g>
<!-- op60&#45;&gt;op62 -->
<g id="edge60" class="edge">
<title>op60&#45;&gt;op62</title>
<path fill="none" stroke="black" d="M681.03,-674.83C684.46,-668.28 688.71,-659.78 692,-652 710.82,-607.57 728.5,-553.93 737.92,-524.02"/>
<polygon fill="black" stroke="black" points="741.37,-524.73 741.01,-514.14 734.68,-522.64 741.37,-524.73"/>
</g>
<!-- op61&#45;&gt;op62 -->
<g id="edge61" class="edge">
<title>op61&#45;&gt;op62</title>
<path fill="none" stroke="black" d="M476.03,-501C523.71,-501 658.82,-501 717.37,-501"/>
<polygon fill="black" stroke="black" points="717.69,-504.5 727.69,-501 717.69,-497.5 717.69,-504.5"/>
</g>
<!-- op64 -->
<g id="node73" class="node">
<title>op64</title>
<path fill="lightgreen" stroke="black" d="M812,-457C812,-457 806,-451 806,-451 803,-448 803,-442 806,-439 806,-439 812,-433 812,-433 815,-430 821,-430 824,-433 824,-433 830,-439 830,-439 833,-442 833,-448 830,-451 830,-451 824,-457 824,-457 821,-460 815,-460 812,-457"/>
<text text-anchor="middle" x="818" y="-441.3" font-family="Times,serif" font-size="14.00">+</text>
</g>
<!-- op62&#45;&gt;op64 -->
<g id="edge64" class="edge">
<title>op62&#45;&gt;op64</title>
<path fill="none" stroke="black" d="M756.73,-493.21C767.7,-484.44 785.77,-469.99 799.26,-459.19"/>
<polygon fill="black" stroke="black" points="801.73,-461.7 807.35,-452.72 797.35,-456.23 801.73,-461.7"/>
</g>
<!-- op63&#45;&gt;op64 -->
<g id="edge65" class="edge">
<title>op63&#45;&gt;op64</title>
<path fill="none" stroke="black" d="M470.41,-294.12C494.05,-306.21 550.41,-332 601,-332 601,-332 601,-332 675,-332 716.34,-332 731.26,-333.77 764,-359 785.41,-375.5 800.25,-403.31 808.67,-422.82"/>
<polygon fill="black" stroke="black" points="805.47,-424.24 812.49,-432.17 811.95,-421.59 805.47,-424.24"/>
</g>
<!-- op64&#45;&gt;n64 -->
<g id="edge66" class="edge">
<title>op64&#45;&gt;n64</title>
<path fill="none" stroke="black" d="M836.28,-445C843.67,-445 852.62,-445 861.46,-445"/>
<polygon fill="black" stroke="black" points="861.69,-448.5 871.69,-445 861.69,-441.5 861.69,-448.5"/>
</g>
<!-- op65&#45;&gt;op66 -->
<g id="edge70" class="edge">
<title>op65&#45;&gt;op66</title>
<path fill="none" stroke="black" d="M466.23,-1088.19C477.86,-1072.4 500.91,-1041.12 515.61,-1021.17"/>
<polygon fill="black" stroke="black" points="518.59,-1023.02 521.71,-1012.9 512.96,-1018.87 518.59,-1023.02"/>
</g>
<!-- op68 -->
<g id="node77" class="node">
<title>op68</title>
<path fill="lightgreen" stroke="black" d="M596,-855C596,-855 590,-849 590,-849 587,-846 587,-840 590,-837 590,-837 596,-831 596,-831 599,-828 605,-828 608,-831 608,-831 614,-837 614,-837 617,-840 617,-846 614,-849 614,-849 608,-855 608,-855 605,-858 599,-858 596,-855"/>
<text text-anchor="middle" x="602" y="-839.3" font-family="Times,serif" font-size="14.00">+</text>
</g>
<!-- op66&#45;&gt;op68 -->
<g id="edge73" class="edge">
<title>op66&#45;&gt;op68</title>
<path fill="none" stroke="black" d="M536.26,-990.97C548.02,-964.1 576.56,-898.87 591.51,-864.7"/>
<polygon fill="black" stroke="black" points="594.88,-865.73 595.68,-855.17 588.46,-862.92 594.88,-865.73"/>
</g>
<!-- op67&#45;&gt;op68 -->
<g id="edge74" class="edge">
<title>op67&#45;&gt;op68</title>
<path fill="none" stroke="black" d="M476.13,-843C500.33,-843 544.79,-843 573.61,-843"/>
<polygon fill="black" stroke="black" points="573.81,-846.5 583.81,-843 573.81,-839.5 573.81,-846.5"/>
</g>
<!-- op70 -->
<g id="node79" class="node">
<title>op70</title>
<path fill="lightgreen" stroke="black" d="M668,-637C668,-637 662,-631 662,-631 659,-628 659,-622 662,-619 662,-619 668,-613 668,-613 671,-610 677,-610 680,-613 680,-613 686,-619 686,-619 689,-622 689,-628 686,-631 686,-631 680,-637 680,-637 677,-640 671,-640 668,-637"/>
<text text-anchor="middle" x="674" y="-621.3" font-family="Times,serif" font-size="14.00">+</text>
</g>
<!-- op68&#45;&gt;op70 -->
<g id="edge77" class="edge">
<title>op68&#45;&gt;op70</title>
<path fill="none" stroke="black" d="M606.57,-829.42C616.3,-792.55 643.43,-691.21 656,-659 657.78,-654.45 659.94,-649.69 662.13,-645.22"/>
<polygon fill="black" stroke="black" points="665.36,-646.59 666.8,-636.1 659.13,-643.4 665.36,-646.59"/>
</g>
<!-- op69&#45;&gt;op70 -->
<g id="edge78" class="edge">
<title>op69&#45;&gt;op70</title>
<path fill="none" stroke="black" d="M476.15,-625C513.17,-625 600.82,-625 645.61,-625"/>
<polygon fill="black" stroke="black" points="645.77,-628.5 655.77,-625 645.77,-621.5 645.77,-628.5"/>
</g>
<!-- op72 -->
<g id="node81" class="node">
<title>op72</title>
<path fill="lightgreen" stroke="black" d="M740,-456C740,-456 734,-450 734,-450 731,-447 731,-441 734,-438 734,-438 740,-432 740,-432 743,-429 749,-429 752,-432 752,-432 758,-438 758,-438 761,-441 761,-447 758,-450 758,-450 752,-456 752,-456 749,-459 743,-459 740,-456"/>
<text text-anchor="middle" x="746" y="-440.3" font-family="Times,serif" font-size="14.00">+</text>
</g>
<!-- op70&#45;&gt;op72 -->
<g id="edge81" class="edge">
<title>op70&#45;&gt;op72</title>
<path fill="none" stroke="black" d="M681.55,-614.37C684.98,-608.51 689.06,-601.02 692,-594 713.51,-542.64 706.14,-525.21 728,-474 729.52,-470.43 731.37,-466.75 733.27,-463.23"/>
<polygon fill="black" stroke="black" points="736.32,-464.95 738.26,-454.53 730.25,-461.46 736.32,-464.95"/>
</g>
<!-- op71&#45;&gt;op72 -->
<g id="edge82" class="edge">
<title>op71&#45;&gt;op72</title>
<path fill="none" stroke="black" d="M476.03,-444C523.71,-444 658.82,-444 717.37,-444"/>
<polygon fill="black" stroke="black" points="717.69,-447.5 727.69,-444 717.69,-440.5 717.69,-447.5"/>
</g>
<!-- op74 -->
<g id="node83" class="node">
<title>op74</title>
<path fill="lightgreen" stroke="black" d="M812,-330C812,-330 806,-324 806,-324 803,-321 803,-315 806,-312 806,-312 812,-306 812,-306 815,-303 821,-303 824,-306 824,-306 830,-312 830,-312 833,-315 833,-321 830,-324 830,-324 824,-330 824,-330 821,-333 815,-333 812,-330"/>
<text text-anchor="middle" x="818" y="-314.3" font-family="Times,serif" font-size="14.00">+</text>
</g>
<!-- op72&#45;&gt;op74 -->
<g id="edge85" class="edge">
<title>op72&#45;&gt;op74</title>
<path fill="none" stroke="black" d="M753.21,-432.82C765.07,-411.47 791.08,-364.65 805.97,-337.86"/>
<polygon fill="black" stroke="black" points="809.1,-339.42 810.9,-328.98 802.99,-336.02 809.1,-339.42"/>
</g>
<!-- op73&#45;&gt;op74 -->
<g id="edge86" class="edge">
<title>op73&#45;&gt;op74</title>
<path fill="none" stroke="black" d="M469.56,-240.8C492.5,-254.89 549.02,-286 601,-286 601,-286 601,-286 675,-286 718.47,-286 767.64,-300.45 795.22,-309.93"/>
<polygon fill="black" stroke="black" points="794.08,-313.24 804.67,-313.28 796.42,-306.64 794.08,-313.24"/>
</g>
<!-- op74&#45;&gt;n74 -->
<g id="edge87" class="edge">
<title>op74&#45;&gt;n74</title>
<path fill="none" stroke="black" d="M836.28,-318C843.67,-318 852.62,-318 861.46,-318"/>
<polygon fill="black" stroke="black" points="861.69,-321.5 871.69,-318 861.69,-314.5 861.69,-321.5"/>
</g>
<!-- op75&#45;&gt;op76 -->
<g id="edge91" class="edge">
<title>op75&#45;&gt;op76</title>
<path fill="none" stroke="black" d="M463.64,-977.24C467.08,-967.79 471.85,-954.6 476,-943 492.15,-897.83 510.78,-844.91 521.09,-815.55"/>
<polygon fill="black" stroke="black" points="524.49,-816.45 524.49,-805.85 517.88,-814.13 524.49,-816.45"/>
</g>
<!-- op78 -->
<g id="node87" class="node">
<title>op78</title>
<path fill="lightgreen" stroke="black" d="M596,-759C596,-759 590,-753 590,-753 587,-750 587,-744 590,-741 590,-741 596,-735 596,-735 599,-732 605,-732 608,-735 608,-735 614,-741 614,-741 617,-744 617,-750 614,-753 614,-753 608,-759 608,-759 605,-762 599,-762 596,-759"/>
<text text-anchor="middle" x="602" y="-743.3" font-family="Times,serif" font-size="14.00">+</text>
</g>
<!-- op76&#45;&gt;op78 -->
<g id="edge94" class="edge">
<title>op76&#45;&gt;op78</title>
<path fill="none" stroke="black" d="M541.33,-786.21C551.98,-779.21 568.83,-768.14 581.91,-759.54"/>
<polygon fill="black" stroke="black" points="584.19,-762.23 590.63,-753.82 580.35,-756.38 584.19,-762.23"/>
</g>
<!-- op77&#45;&gt;op78 -->
<g id="edge95" class="edge">
<title>op77&#45;&gt;op78</title>
<path fill="none" stroke="black" d="M473.4,-771.26C497.64,-766.65 546.85,-757.3 576.58,-751.64"/>
<polygon fill="black" stroke="black" points="577.39,-755.05 586.56,-749.74 576.09,-748.17 577.39,-755.05"/>
</g>
<!-- op80 -->
<g id="node89" class="node">
<title>op80</title>
<path fill="lightgreen" stroke="black" d="M668,-579C668,-579 662,-573 662,-573 659,-570 659,-564 662,-561 662,-561 668,-555 668,-555 671,-552 677,-552 680,-555 680,-555 686,-561 686,-561 689,-564 689,-570 686,-573 686,-573 680,-579 680,-579 677,-582 671,-582 668,-579"/>
<text text-anchor="middle" x="674" y="-563.3" font-family="Times,serif" font-size="14.00">+</text>
</g>
<!-- op78&#45;&gt;op80 -->
<g id="edge98" class="edge">
<title>op78&#45;&gt;op80</title>
<path fill="none" stroke="black" d="M606.98,-733.57C615,-707.11 634.2,-646.6 656,-598 657.7,-594.2 659.7,-590.24 661.71,-586.47"/>
<polygon fill="black" stroke="black" points="664.79,-588.13 666.59,-577.69 658.67,-584.73 664.79,-588.13"/>
</g>
<!-- op79&#45;&gt;op80 -->
<g id="edge99" class="edge">
<title>op79&#45;&gt;op80</title>
<path fill="none" stroke="black" d="M476.15,-567C513.17,-567 600.82,-567 645.61,-567"/>
<polygon fill="black" stroke="black" points="645.77,-570.5 655.77,-567 645.77,-563.5 645.77,-570.5"/>
</g>
<!-- op82 -->
<g id="node91" class="node">
<title>op82</title>
<path fill="lightgreen" stroke="black" d="M740,-398C740,-398 734,-392 734,-392 731,-389 731,-383 734,-380 734,-380 740,-374 740,-374 743,-371 749,-371 752,-374 752,-374 758,-380 758,-380 761,-383 761,-389 758,-392 758,-392 752,-398 752,-398 749,-401 743,-401 740,-398"/>
<text text-anchor="middle" x="746" y="-382.3" font-family="Times,serif" font-size="14.00">+</text>
</g>
<!-- op80&#45;&gt;op82 -->
<g id="edge102" class="edge">
<title>op80&#45;&gt;op82</title>
<path fill="none" stroke="black" d="M678.97,-553.47C686.97,-526.83 706.12,-465.91 728,-417 729.7,-413.2 731.69,-409.24 733.7,-405.47"/>
<polygon fill="black" stroke="black" points="736.78,-407.13 738.58,-396.68 730.66,-403.73 736.78,-407.13"/>
</g>
<!-- op81&#45;&gt;op82 -->
<g id="edge103" class="edge">
<title>op81&#45;&gt;op82</title>
<path fill="none" stroke="black" d="M476.03,-386C523.71,-386 658.82,-386 717.37,-386"/>
<polygon fill="black" stroke="black" points="717.69,-389.5 727.69,-386 717.69,-382.5 717.69,-389.5"/>
</g>
<!-- op84 -->
<g id="node93" class="node">
<title>op84</title>
<path fill="lightgreen" stroke="black" d="M812,-260C812,-260 806,-254 806,-254 803,-251 803,-245 806,-242 806,-242 812,-236 812,-236 815,-233 821,-233 824,-236 824,-236 830,-242 830,-242 833,-245 833,-251 830,-254 830,-254 824,-260 824,-260 821,-263 815,-263 812,-260"/>
<text text-anchor="middle" x="818" y="-244.3" font-family="Times,serif" font-size="14.00">+</text>
</g>
<!-- op82&#45;&gt;op84 -->
<g id="edge106" class="edge">
<title>op82&#45;&gt;op84</title>
<path fill="none" stroke="black" d="M752.73,-374.71C764.52,-351.46 791.66,-297.96 806.62,-268.46"/>
<polygon fill="black" stroke="black" points="809.79,-269.95 811.19,-259.45 803.55,-266.78 809.79,-269.95"/>
</g>
<!-- op83&#45;&gt;op84 -->
<g id="edge107" class="edge">
<title>op83&#45;&gt;op84</title>
<path fill="none" stroke="black" d="M470.9,-185.16C494.97,-195.11 551.41,-216 601,-216 601,-216 601,-216 675,-216 718.47,-216 767.64,-230.45 795.22,-239.93"/>
<polygon fill="black" stroke="black" points="794.08,-243.24 804.67,-243.28 796.42,-236.64 794.08,-243.24"/>
</g>
<!-- op84&#45;&gt;n84 -->
<g id="edge108" class="edge">
<title>op84&#45;&gt;n84</title>
<path fill="none" stroke="black" d="M836.28,-248C843.67,-248 852.62,-248 861.46,-248"/>
<polygon fill="black" stroke="black" points="861.69,-251.5 871.69,-248 861.69,-244.5 861.69,-251.5"/>
</g>
</g>
</svg>
