<?xml version="1.0" encoding="UTF-8" standalone="no"?>
<!DOCTYPE svg PUBLIC "-//W3C//DTD SVG 1.1//EN"
 "http://www.w3.org/Graphics/SVG/1.1/DTD/svg11.dtd">
<!-- Generated by graphviz version 2.43.0 (0)
 -->
<!-- Title: ComputationGraph Pages: 1 -->
<svg width="1045pt" height="383pt"
 viewBox="0.00 0.00 1045.00 383.00" xmlns="http://www.w3.org/2000/svg" xmlns:xlink="http://www.w3.org/1999/xlink">
<g id="graph0" class="graph" transform="scale(1 1) rotate(0) translate(4 379)">
<title>ComputationGraph</title>
<polygon fill="white" stroke="transparent" points="-4,4 -4,-379 1041,-379 1041,4 -4,4"/>
<!-- n0 -->
<g id="node1" class="node">
<title>n0</title>
<path fill="lightblue" stroke="black" d="M187,-306C187,-306 12,-306 12,-306 6,-306 0,-300 0,-294 0,-294 0,-282 0,-282 0,-276 6,-270 12,-270 12,-270 187,-270 187,-270 193,-270 199,-276 199,-282 199,-282 199,-294 199,-294 199,-300 193,-306 187,-306"/>
<text text-anchor="middle" x="99.5" y="-284.3" font-family="Times,serif" font-size="14.00">layer0 batch0 activation0</text>
</g>
<!-- op6 -->
<g id="node16" class="node">
<title>op6</title>
<path fill="lightgreen" stroke="black" d="M247,-246C247,-246 241,-240 241,-240 238,-237 238,-231 241,-228 241,-228 247,-222 247,-222 250,-219 256,-219 259,-222 259,-222 265,-228 265,-228 268,-231 268,-237 265,-240 265,-240 259,-246 259,-246 256,-249 250,-249 247,-246"/>
<text text-anchor="middle" x="253" y="-230.3" font-family="Times,serif" font-size="14.00">*</text>
</g>
<!-- n0&#45;&gt;op6 -->
<g id="edge1" class="edge">
<title>n0&#45;&gt;op6</title>
<path fill="none" stroke="black" d="M172.87,-269.99C181.76,-267.24 190.65,-264.23 199,-261 210.27,-256.64 222.31,-250.62 232.06,-245.38"/>
<polygon fill="black" stroke="black" points="233.87,-248.38 240.93,-240.48 230.49,-242.25 233.87,-248.38"/>
</g>
<!-- op10 -->
<g id="node20" class="node">
<title>op10</title>
<path fill="lightgreen" stroke="black" d="M247,-300C247,-300 241,-294 241,-294 238,-291 238,-285 241,-282 241,-282 247,-276 247,-276 250,-273 256,-273 259,-276 259,-276 265,-282 265,-282 268,-285 268,-291 265,-294 265,-294 259,-300 259,-300 256,-303 250,-303 247,-300"/>
<text text-anchor="middle" x="253" y="-284.3" font-family="Times,serif" font-size="14.00">*</text>
</g>
<!-- n0&#45;&gt;op10 -->
<g id="edge11" class="edge">
<title>n0&#45;&gt;op10</title>
<path fill="none" stroke="black" d="M199.01,-288C208.39,-288 217.25,-288 224.94,-288"/>
<polygon fill="black" stroke="black" points="224.98,-291.5 234.98,-288 224.98,-284.5 224.98,-291.5"/>
</g>
<!-- n1 -->
<g id="node2" class="node">
<title>n1</title>
<path fill="lightblue" stroke="black" d="M187,-144C187,-144 12,-144 12,-144 6,-144 0,-138 0,-132 0,-132 0,-120 0,-120 0,-114 6,-108 12,-108 12,-108 187,-108 187,-108 193,-108 199,-114 199,-120 199,-120 199,-132 199,-132 199,-138 193,-144 187,-144"/>
<text text-anchor="middle" x="99.5" y="-122.3" font-family="Times,serif" font-size="14.00">layer0 batch1 activation0</text>
</g>
<!-- op8 -->
<g id="node18" class="node">
<title>op8</title>
<path fill="lightgreen" stroke="black" d="M247,-138C247,-138 241,-132 241,-132 238,-129 238,-123 241,-120 241,-120 247,-114 247,-114 250,-111 256,-111 259,-114 259,-114 265,-120 265,-120 268,-123 268,-129 265,-132 265,-132 259,-138 259,-138 256,-141 250,-141 247,-138"/>
<text text-anchor="middle" x="253" y="-122.3" font-family="Times,serif" font-size="14.00">*</text>
</g>
<!-- n1&#45;&gt;op8 -->
<g id="edge6" class="edge">
<title>n1&#45;&gt;op8</title>
<path fill="none" stroke="black" d="M199.01,-126C208.39,-126 217.25,-126 224.94,-126"/>
<polygon fill="black" stroke="black" points="224.98,-129.5 234.98,-126 224.98,-122.5 224.98,-129.5"/>
</g>
<!-- op12 -->
<g id="node22" class="node">
<title>op12</title>
<path fill="lightgreen" stroke="black" d="M247,-192C247,-192 241,-186 241,-186 238,-183 238,-177 241,-174 241,-174 247,-168 247,-168 250,-165 256,-165 259,-168 259,-168 265,-174 265,-174 268,-177 268,-183 265,-186 265,-186 259,-192 259,-192 256,-195 250,-195 247,-192"/>
<text text-anchor="middle" x="253" y="-176.3" font-family="Times,serif" font-size="14.00">*</text>
</g>
<!-- n1&#45;&gt;op12 -->
<g id="edge16" class="edge">
<title>n1&#45;&gt;op12</title>
<path fill="none" stroke="black" d="M172.87,-144.01C181.76,-146.76 190.65,-149.77 199,-153 210.27,-157.36 222.31,-163.38 232.06,-168.62"/>
<polygon fill="black" stroke="black" points="230.49,-171.75 240.93,-173.52 233.87,-165.62 230.49,-171.75"/>
</g>
<!-- n2 -->
<g id="node3" class="node">
<title>n2</title>
<path fill="lightblue" stroke="black" d="M156,-198C156,-198 43,-198 43,-198 37,-198 31,-192 31,-186 31,-186 31,-174 31,-174 31,-168 37,-162 43,-162 43,-162 156,-162 156,-162 162,-162 168,-168 168,-174 168,-174 168,-186 168,-186 168,-192 162,-198 156,-198"/>
<text text-anchor="middle" x="99.5" y="-176.3" font-family="Times,serif" font-size="14.00">layer1 weight0,0</text>
</g>
<!-- n2&#45;&gt;op6 -->
<g id="edge2" class="edge">
<title>n2&#45;&gt;op6</title>
<path fill="none" stroke="black" d="M168.12,-196.57C178.58,-199.69 189.16,-203.19 199,-207 210.27,-211.36 222.31,-217.38 232.06,-222.62"/>
<polygon fill="black" stroke="black" points="230.49,-225.75 240.93,-227.52 233.87,-219.62 230.49,-225.75"/>
</g>
<!-- n2&#45;&gt;op8 -->
<g id="edge7" class="edge">
<title>n2&#45;&gt;op8</title>
<path fill="none" stroke="black" d="M168.12,-163.43C178.58,-160.31 189.16,-156.81 199,-153 210.27,-148.64 222.31,-142.62 232.06,-137.38"/>
<polygon fill="black" stroke="black" points="233.87,-140.38 240.93,-132.48 230.49,-134.25 233.87,-140.38"/>
</g>
<!-- n3 -->
<g id="node4" class="node">
<title>n3</title>
<path fill="lightblue" stroke="black" d="M156,-252C156,-252 43,-252 43,-252 37,-252 31,-246 31,-240 31,-240 31,-228 31,-228 31,-222 37,-216 43,-216 43,-216 156,-216 156,-216 162,-216 168,-222 168,-228 168,-228 168,-240 168,-240 168,-246 162,-252 156,-252"/>
<text text-anchor="middle" x="99.5" y="-230.3" font-family="Times,serif" font-size="14.00">layer1 weight0,1</text>
</g>
<!-- n3&#45;&gt;op10 -->
<g id="edge12" class="edge">
<title>n3&#45;&gt;op10</title>
<path fill="none" stroke="black" d="M168.12,-250.57C178.58,-253.69 189.16,-257.19 199,-261 210.27,-265.36 222.31,-271.38 232.06,-276.62"/>
<polygon fill="black" stroke="black" points="230.49,-279.75 240.93,-281.52 233.87,-273.62 230.49,-279.75"/>
</g>
<!-- n3&#45;&gt;op12 -->
<g id="edge17" class="edge">
<title>n3&#45;&gt;op12</title>
<path fill="none" stroke="black" d="M168.12,-217.43C178.58,-214.31 189.16,-210.81 199,-207 210.27,-202.64 222.31,-196.62 232.06,-191.38"/>
<polygon fill="black" stroke="black" points="233.87,-194.38 240.93,-186.48 230.49,-188.25 233.87,-194.38"/>
</g>
<!-- n4 -->
<g id="node5" class="node">
<title>n4</title>
<path fill="lightblue" stroke="black" d="M139.5,-75C139.5,-75 59.5,-75 59.5,-75 53.5,-75 47.5,-69 47.5,-63 47.5,-63 47.5,-51 47.5,-51 47.5,-45 53.5,-39 59.5,-39 59.5,-39 139.5,-39 139.5,-39 145.5,-39 151.5,-45 151.5,-51 151.5,-51 151.5,-63 151.5,-63 151.5,-69 145.5,-75 139.5,-75"/>
<text text-anchor="middle" x="99.5" y="-53.3" font-family="Times,serif" font-size="14.00">layer1 bias0</text>
</g>
<!-- op7 -->
<g id="node17" class="node">
<title>op7</title>
<path fill="lightgreen" stroke="black" d="M319,-192C319,-192 313,-186 313,-186 310,-183 310,-177 313,-174 313,-174 319,-168 319,-168 322,-165 328,-165 331,-168 331,-168 337,-174 337,-174 340,-177 340,-183 337,-186 337,-186 331,-192 331,-192 328,-195 322,-195 319,-192"/>
<text text-anchor="middle" x="325" y="-176.3" font-family="Times,serif" font-size="14.00">+</text>
</g>
<!-- n4&#45;&gt;op7 -->
<g id="edge3" class="edge">
<title>n4&#45;&gt;op7</title>
<path fill="none" stroke="black" d="M151.57,-59.77C187.77,-63.93 235.93,-74.15 271,-99 291.92,-113.82 306.73,-139.75 315.28,-158.28"/>
<polygon fill="black" stroke="black" points="312.08,-159.68 319.29,-167.45 318.49,-156.88 312.08,-159.68"/>
</g>
<!-- op9 -->
<g id="node19" class="node">
<title>op9</title>
<path fill="lightgreen" stroke="black" d="M319,-84C319,-84 313,-78 313,-78 310,-75 310,-69 313,-66 313,-66 319,-60 319,-60 322,-57 328,-57 331,-60 331,-60 337,-66 337,-66 340,-69 340,-75 337,-78 337,-78 331,-84 331,-84 328,-87 322,-87 319,-84"/>
<text text-anchor="middle" x="325" y="-68.3" font-family="Times,serif" font-size="14.00">+</text>
</g>
<!-- n4&#45;&gt;op9 -->
<g id="edge8" class="edge">
<title>n4&#45;&gt;op9</title>
<path fill="none" stroke="black" d="M151.66,-58.9C185.55,-60.35 230.97,-62.68 271,-66 280.05,-66.75 289.95,-67.81 298.72,-68.83"/>
<polygon fill="black" stroke="black" points="298.37,-72.31 308.72,-70.02 299.2,-65.36 298.37,-72.31"/>
</g>
<!-- n5 -->
<g id="node6" class="node">
<title>n5</title>
<path fill="lightblue" stroke="black" d="M139.5,-375C139.5,-375 59.5,-375 59.5,-375 53.5,-375 47.5,-369 47.5,-363 47.5,-363 47.5,-351 47.5,-351 47.5,-345 53.5,-339 59.5,-339 59.5,-339 139.5,-339 139.5,-339 145.5,-339 151.5,-345 151.5,-351 151.5,-351 151.5,-363 151.5,-363 151.5,-369 145.5,-375 139.5,-375"/>
<text text-anchor="middle" x="99.5" y="-353.3" font-family="Times,serif" font-size="14.00">layer1 bias1</text>
</g>
<!-- op11 -->
<g id="node21" class="node">
<title>op11</title>
<path fill="lightgreen" stroke="black" d="M319,-354C319,-354 313,-348 313,-348 310,-345 310,-339 313,-336 313,-336 319,-330 319,-330 322,-327 328,-327 331,-330 331,-330 337,-336 337,-336 340,-339 340,-345 337,-348 337,-348 331,-354 331,-354 328,-357 322,-357 319,-354"/>
<text text-anchor="middle" x="325" y="-338.3" font-family="Times,serif" font-size="14.00">+</text>
</g>
<!-- n5&#45;&gt;op11 -->
<g id="edge13" class="edge">
<title>n5&#45;&gt;op11</title>
<path fill="none" stroke="black" d="M151.66,-355.1C185.55,-353.65 230.97,-351.32 271,-348 280.05,-347.25 289.95,-346.19 298.72,-345.17"/>
<polygon fill="black" stroke="black" points="299.2,-348.64 308.72,-343.98 298.37,-341.69 299.2,-348.64"/>
</g>
<!-- op13 -->
<g id="node23" class="node">
<title>op13</title>
<path fill="lightgreen" stroke="black" d="M319,-246C319,-246 313,-240 313,-240 310,-237 310,-231 313,-228 313,-228 319,-222 319,-222 322,-219 328,-219 331,-222 331,-222 337,-228 337,-228 340,-231 340,-237 337,-240 337,-240 331,-246 331,-246 328,-249 322,-249 319,-246"/>
<text text-anchor="middle" x="325" y="-230.3" font-family="Times,serif" font-size="14.00">+</text>
</g>
<!-- n5&#45;&gt;op13 -->
<g id="edge18" class="edge">
<title>n5&#45;&gt;op13</title>
<path fill="none" stroke="black" d="M151.57,-354.23C187.77,-350.07 235.93,-339.85 271,-315 291.92,-300.18 306.73,-274.25 315.28,-255.72"/>
<polygon fill="black" stroke="black" points="318.49,-257.12 319.29,-246.55 312.08,-254.32 318.49,-257.12"/>
</g>
<!-- n7 -->
<g id="node7" class="node">
<title>n7</title>
<path fill="lightyellow" stroke="black" d="M570,-198C570,-198 391,-198 391,-198 385,-198 379,-192 379,-186 379,-186 379,-174 379,-174 379,-168 385,-162 391,-162 391,-162 570,-162 570,-162 576,-162 582,-168 582,-174 582,-174 582,-186 582,-186 582,-192 576,-198 570,-198"/>
<text text-anchor="middle" x="480.5" y="-176.3" font-family="Times,serif" font-size="14.00">layer1 batch0, activation0</text>
</g>
<!-- op17 -->
<g id="node24" class="node">
<title>op17</title>
<path fill="lightgreen" stroke="black" d="M630,-190C630,-190 624,-184 624,-184 621,-181 621,-175 624,-172 624,-172 630,-166 630,-166 633,-163 639,-163 642,-166 642,-166 648,-172 648,-172 651,-175 651,-181 648,-184 648,-184 642,-190 642,-190 639,-193 633,-193 630,-190"/>
<text text-anchor="middle" x="636" y="-174.3" font-family="Times,serif" font-size="14.00">*</text>
</g>
<!-- n7&#45;&gt;op17 -->
<g id="edge21" class="edge">
<title>n7&#45;&gt;op17</title>
<path fill="none" stroke="black" d="M582.17,-178.69C591.55,-178.57 600.39,-178.45 608.06,-178.35"/>
<polygon fill="black" stroke="black" points="608.11,-181.85 618.06,-178.22 608.02,-174.85 608.11,-181.85"/>
</g>
<!-- n9 -->
<g id="node8" class="node">
<title>n9</title>
<path fill="lightyellow" stroke="black" d="M570,-90C570,-90 391,-90 391,-90 385,-90 379,-84 379,-78 379,-78 379,-66 379,-66 379,-60 385,-54 391,-54 391,-54 570,-54 570,-54 576,-54 582,-60 582,-66 582,-66 582,-78 582,-78 582,-84 576,-90 570,-90"/>
<text text-anchor="middle" x="480.5" y="-68.3" font-family="Times,serif" font-size="14.00">layer1 batch1, activation0</text>
</g>
<!-- op21 -->
<g id="node28" class="node">
<title>op21</title>
<path fill="lightgreen" stroke="black" d="M630,-134C630,-134 624,-128 624,-128 621,-125 621,-119 624,-116 624,-116 630,-110 630,-110 633,-107 639,-107 642,-110 642,-110 648,-116 648,-116 651,-119 651,-125 648,-128 648,-128 642,-134 642,-134 639,-137 633,-137 630,-134"/>
<text text-anchor="middle" x="636" y="-118.3" font-family="Times,serif" font-size="14.00">*</text>
</g>
<!-- n9&#45;&gt;op21 -->
<g id="edge30" class="edge">
<title>n9&#45;&gt;op21</title>
<path fill="none" stroke="black" d="M553.81,-90.05C563.36,-92.84 572.96,-95.84 582,-99 592.82,-102.78 604.55,-107.77 614.21,-112.13"/>
<polygon fill="black" stroke="black" points="612.86,-115.37 623.41,-116.38 615.8,-109.01 612.86,-115.37"/>
</g>
<!-- n11 -->
<g id="node9" class="node">
<title>n11</title>
<path fill="lightyellow" stroke="black" d="M570,-360C570,-360 391,-360 391,-360 385,-360 379,-354 379,-348 379,-348 379,-336 379,-336 379,-330 385,-324 391,-324 391,-324 570,-324 570,-324 576,-324 582,-330 582,-336 582,-336 582,-348 582,-348 582,-354 576,-360 570,-360"/>
<text text-anchor="middle" x="480.5" y="-338.3" font-family="Times,serif" font-size="14.00">layer1 batch0, activation1</text>
</g>
<!-- op19 -->
<g id="node26" class="node">
<title>op19</title>
<path fill="lightgreen" stroke="black" d="M630,-300C630,-300 624,-294 624,-294 621,-291 621,-285 624,-282 624,-282 630,-276 630,-276 633,-273 639,-273 642,-276 642,-276 648,-282 648,-282 651,-285 651,-291 648,-294 648,-294 642,-300 642,-300 639,-303 633,-303 630,-300"/>
<text text-anchor="middle" x="636" y="-284.3" font-family="Times,serif" font-size="14.00">*</text>
</g>
<!-- n11&#45;&gt;op19 -->
<g id="edge25" class="edge">
<title>n11&#45;&gt;op19</title>
<path fill="none" stroke="black" d="M555.62,-323.98C564.6,-321.24 573.57,-318.24 582,-315 593.28,-310.67 605.32,-304.65 615.07,-299.4"/>
<polygon fill="black" stroke="black" points="616.88,-302.4 623.94,-294.5 613.5,-296.27 616.88,-302.4"/>
</g>
<!-- n13 -->
<g id="node10" class="node">
<title>n13</title>
<path fill="lightyellow" stroke="black" d="M570,-252C570,-252 391,-252 391,-252 385,-252 379,-246 379,-240 379,-240 379,-228 379,-228 379,-222 385,-216 391,-216 391,-216 570,-216 570,-216 576,-216 582,-222 582,-228 582,-228 582,-240 582,-240 582,-246 576,-252 570,-252"/>
<text text-anchor="middle" x="480.5" y="-230.3" font-family="Times,serif" font-size="14.00">layer1 batch1, activation1</text>
</g>
<!-- op23 -->
<g id="node30" class="node">
<title>op23</title>
<path fill="lightgreen" stroke="black" d="M630,-246C630,-246 624,-240 624,-240 621,-237 621,-231 624,-228 624,-228 630,-222 630,-222 633,-219 639,-219 642,-222 642,-222 648,-228 648,-228 651,-231 651,-237 648,-240 648,-240 642,-246 642,-246 639,-249 633,-249 630,-246"/>
<text text-anchor="middle" x="636" y="-230.3" font-family="Times,serif" font-size="14.00">*</text>
</g>
<!-- n13&#45;&gt;op23 -->
<g id="edge34" class="edge">
<title>n13&#45;&gt;op23</title>
<path fill="none" stroke="black" d="M582.17,-234C591.29,-234 599.9,-234 607.42,-234"/>
<polygon fill="black" stroke="black" points="607.6,-237.5 617.6,-234 607.6,-230.5 607.6,-237.5"/>
</g>
<!-- n14 -->
<g id="node11" class="node">
<title>n14</title>
<path fill="lightblue" stroke="black" d="M537,-144C537,-144 424,-144 424,-144 418,-144 412,-138 412,-132 412,-132 412,-120 412,-120 412,-114 418,-108 424,-108 424,-108 537,-108 537,-108 543,-108 549,-114 549,-120 549,-120 549,-132 549,-132 549,-138 543,-144 537,-144"/>
<text text-anchor="middle" x="480.5" y="-122.3" font-family="Times,serif" font-size="14.00">layer2 weight0,0</text>
</g>
<!-- n14&#45;&gt;op17 -->
<g id="edge22" class="edge">
<title>n14&#45;&gt;op17</title>
<path fill="none" stroke="black" d="M549.05,-142.37C560.17,-145.57 571.48,-149.14 582,-153 593.06,-157.06 604.96,-162.56 614.67,-167.37"/>
<polygon fill="black" stroke="black" points="613.38,-170.63 623.88,-172.04 616.54,-164.39 613.38,-170.63"/>
</g>
<!-- n14&#45;&gt;op21 -->
<g id="edge31" class="edge">
<title>n14&#45;&gt;op21</title>
<path fill="none" stroke="black" d="M549.27,-124.23C570.03,-123.69 591.66,-123.13 608.01,-122.7"/>
<polygon fill="black" stroke="black" points="608.5,-126.19 618.4,-122.43 608.32,-119.19 608.5,-126.19"/>
</g>
<!-- n15 -->
<g id="node12" class="node">
<title>n15</title>
<path fill="lightblue" stroke="black" d="M537,-306C537,-306 424,-306 424,-306 418,-306 412,-300 412,-294 412,-294 412,-282 412,-282 412,-276 418,-270 424,-270 424,-270 537,-270 537,-270 543,-270 549,-276 549,-282 549,-282 549,-294 549,-294 549,-300 543,-306 537,-306"/>
<text text-anchor="middle" x="480.5" y="-284.3" font-family="Times,serif" font-size="14.00">layer2 weight1,0</text>
</g>
<!-- n15&#45;&gt;op19 -->
<g id="edge26" class="edge">
<title>n15&#45;&gt;op19</title>
<path fill="none" stroke="black" d="M549.27,-288C569.76,-288 591.12,-288 607.39,-288"/>
<polygon fill="black" stroke="black" points="607.77,-291.5 617.77,-288 607.77,-284.5 607.77,-291.5"/>
</g>
<!-- n15&#45;&gt;op23 -->
<g id="edge35" class="edge">
<title>n15&#45;&gt;op23</title>
<path fill="none" stroke="black" d="M549.16,-271.91C560.26,-268.67 571.54,-265.02 582,-261 593.28,-256.67 605.32,-250.65 615.07,-245.4"/>
<polygon fill="black" stroke="black" points="616.88,-248.4 623.94,-240.5 613.5,-242.27 616.88,-248.4"/>
</g>
<!-- n16 -->
<g id="node13" class="node">
<title>n16</title>
<path fill="lightblue" stroke="black" d="M520.5,-36C520.5,-36 440.5,-36 440.5,-36 434.5,-36 428.5,-30 428.5,-24 428.5,-24 428.5,-12 428.5,-12 428.5,-6 434.5,0 440.5,0 440.5,0 520.5,0 520.5,0 526.5,0 532.5,-6 532.5,-12 532.5,-12 532.5,-24 532.5,-24 532.5,-30 526.5,-36 520.5,-36"/>
<text text-anchor="middle" x="480.5" y="-14.3" font-family="Times,serif" font-size="14.00">layer2 bias0</text>
</g>
<!-- op18 -->
<g id="node25" class="node">
<title>op18</title>
<path fill="lightgreen" stroke="black" d="M702,-190C702,-190 696,-184 696,-184 693,-181 693,-175 696,-172 696,-172 702,-166 702,-166 705,-163 711,-163 714,-166 714,-166 720,-172 720,-172 723,-175 723,-181 720,-184 720,-184 714,-190 714,-190 711,-193 705,-193 702,-190"/>
<text text-anchor="middle" x="708" y="-174.3" font-family="Times,serif" font-size="14.00">+</text>
</g>
<!-- n16&#45;&gt;op18 -->
<g id="edge23" class="edge">
<title>n16&#45;&gt;op18</title>
<path fill="none" stroke="black" d="M532.54,-28.09C548.77,-32.25 566.52,-37.81 582,-45 617.34,-61.41 626.99,-66.92 654,-95 659.08,-100.28 681.11,-135.69 695.12,-158.52"/>
<polygon fill="black" stroke="black" points="692.19,-160.43 700.39,-167.13 698.16,-156.77 692.19,-160.43"/>
</g>
<!-- op22 -->
<g id="node29" class="node">
<title>op22</title>
<path fill="lightgreen" stroke="black" d="M702,-134C702,-134 696,-128 696,-128 693,-125 693,-119 696,-116 696,-116 702,-110 702,-110 705,-107 711,-107 714,-110 714,-110 720,-116 720,-116 723,-119 723,-125 720,-128 720,-128 714,-134 714,-134 711,-137 705,-137 702,-134"/>
<text text-anchor="middle" x="708" y="-118.3" font-family="Times,serif" font-size="14.00">+</text>
</g>
<!-- n16&#45;&gt;op22 -->
<g id="edge32" class="edge">
<title>n16&#45;&gt;op22</title>
<path fill="none" stroke="black" d="M532.62,-17.76C568.98,-19.8 617.61,-27.19 654,-50 673.57,-62.26 688.3,-84.6 697.2,-101.15"/>
<polygon fill="black" stroke="black" points="694.1,-102.78 701.76,-110.11 700.34,-99.61 694.1,-102.78"/>
</g>
<!-- n20 -->
<g id="node14" class="node">
<title>n20</title>
<path fill="lightyellow" stroke="black" d="M1025,-198C1025,-198 846,-198 846,-198 840,-198 834,-192 834,-186 834,-186 834,-174 834,-174 834,-168 840,-162 846,-162 846,-162 1025,-162 1025,-162 1031,-162 1037,-168 1037,-174 1037,-174 1037,-186 1037,-186 1037,-192 1031,-198 1025,-198"/>
<text text-anchor="middle" x="935.5" y="-176.3" font-family="Times,serif" font-size="14.00">layer2 batch0, activation0</text>
</g>
<!-- n24 -->
<g id="node15" class="node">
<title>n24</title>
<path fill="lightyellow" stroke="black" d="M1025,-143C1025,-143 846,-143 846,-143 840,-143 834,-137 834,-131 834,-131 834,-119 834,-119 834,-113 840,-107 846,-107 846,-107 1025,-107 1025,-107 1031,-107 1037,-113 1037,-119 1037,-119 1037,-131 1037,-131 1037,-137 1031,-143 1025,-143"/>
<text text-anchor="middle" x="935.5" y="-121.3" font-family="Times,serif" font-size="14.00">layer2 batch1, activation0</text>
</g>
<!-- op6&#45;&gt;op7 -->
<g id="edge4" class="edge">
<title>op6&#45;&gt;op7</title>
<path fill="none" stroke="black" d="M263.73,-226.49C274.7,-218.03 292.77,-204.09 306.26,-193.68"/>
<polygon fill="black" stroke="black" points="308.57,-196.32 314.35,-187.44 304.29,-190.78 308.57,-196.32"/>
</g>
<!-- op7&#45;&gt;n7 -->
<g id="edge5" class="edge">
<title>op7&#45;&gt;n7</title>
<path fill="none" stroke="black" d="M343.01,-180C350.1,-180 358.96,-180 368.74,-180"/>
<polygon fill="black" stroke="black" points="368.8,-183.5 378.8,-180 368.8,-176.5 368.8,-183.5"/>
</g>
<!-- op8&#45;&gt;op9 -->
<g id="edge9" class="edge">
<title>op8&#45;&gt;op9</title>
<path fill="none" stroke="black" d="M263.73,-118.49C274.7,-110.03 292.77,-96.09 306.26,-85.68"/>
<polygon fill="black" stroke="black" points="308.57,-88.32 314.35,-79.44 304.29,-82.78 308.57,-88.32"/>
</g>
<!-- op9&#45;&gt;n9 -->
<g id="edge10" class="edge">
<title>op9&#45;&gt;n9</title>
<path fill="none" stroke="black" d="M343.01,-72C350.1,-72 358.96,-72 368.74,-72"/>
<polygon fill="black" stroke="black" points="368.8,-75.5 378.8,-72 368.8,-68.5 368.8,-75.5"/>
</g>
<!-- op10&#45;&gt;op11 -->
<g id="edge14" class="edge">
<title>op10&#45;&gt;op11</title>
<path fill="none" stroke="black" d="M263.73,-295.51C274.7,-303.97 292.77,-317.91 306.26,-328.32"/>
<polygon fill="black" stroke="black" points="304.29,-331.22 314.35,-334.56 308.57,-325.68 304.29,-331.22"/>
</g>
<!-- op11&#45;&gt;n11 -->
<g id="edge15" class="edge">
<title>op11&#45;&gt;n11</title>
<path fill="none" stroke="black" d="M343.01,-342C350.1,-342 358.96,-342 368.74,-342"/>
<polygon fill="black" stroke="black" points="368.8,-345.5 378.8,-342 368.8,-338.5 368.8,-345.5"/>
</g>
<!-- op12&#45;&gt;op13 -->
<g id="edge19" class="edge">
<title>op12&#45;&gt;op13</title>
<path fill="none" stroke="black" d="M263.73,-187.51C274.7,-195.97 292.77,-209.91 306.26,-220.32"/>
<polygon fill="black" stroke="black" points="304.29,-223.22 314.35,-226.56 308.57,-217.68 304.29,-223.22"/>
</g>
<!-- op13&#45;&gt;n13 -->
<g id="edge20" class="edge">
<title>op13&#45;&gt;n13</title>
<path fill="none" stroke="black" d="M343.01,-234C350.1,-234 358.96,-234 368.74,-234"/>
<polygon fill="black" stroke="black" points="368.8,-237.5 378.8,-234 368.8,-230.5 368.8,-237.5"/>
</g>
<!-- op17&#45;&gt;op18 -->
<g id="edge24" class="edge">
<title>op17&#45;&gt;op18</title>
<path fill="none" stroke="black" d="M654.3,-178C662.02,-178 671.29,-178 679.89,-178"/>
<polygon fill="black" stroke="black" points="679.9,-181.5 689.9,-178 679.9,-174.5 679.9,-181.5"/>
</g>
<!-- op20 -->
<g id="node27" class="node">
<title>op20</title>
<path fill="lightgreen" stroke="black" d="M774,-192C774,-192 768,-186 768,-186 765,-183 765,-177 768,-174 768,-174 774,-168 774,-168 777,-165 783,-165 786,-168 786,-168 792,-174 792,-174 795,-177 795,-183 792,-186 792,-186 786,-192 786,-192 783,-195 777,-195 774,-192"/>
<text text-anchor="middle" x="780" y="-176.3" font-family="Times,serif" font-size="14.00">+</text>
</g>
<!-- op18&#45;&gt;op20 -->
<g id="edge27" class="edge">
<title>op18&#45;&gt;op20</title>
<path fill="none" stroke="black" d="M725.59,-178.47C733.41,-178.7 742.94,-178.97 751.77,-179.22"/>
<polygon fill="black" stroke="black" points="751.95,-182.73 762.04,-179.52 752.15,-175.73 751.95,-182.73"/>
</g>
<!-- op19&#45;&gt;op20 -->
<g id="edge28" class="edge">
<title>op19&#45;&gt;op20</title>
<path fill="none" stroke="black" d="M649.74,-283.65C667.93,-277.03 701.8,-263.14 726,-244 742.15,-231.23 756.77,-212.8 766.54,-199"/>
<polygon fill="black" stroke="black" points="769.46,-200.93 772.23,-190.7 763.69,-196.97 769.46,-200.93"/>
</g>
<!-- op20&#45;&gt;n20 -->
<g id="edge29" class="edge">
<title>op20&#45;&gt;n20</title>
<path fill="none" stroke="black" d="M798.01,-180C805.1,-180 813.96,-180 823.74,-180"/>
<polygon fill="black" stroke="black" points="823.8,-183.5 833.8,-180 823.8,-176.5 823.8,-183.5"/>
</g>
<!-- op21&#45;&gt;op22 -->
<g id="edge33" class="edge">
<title>op21&#45;&gt;op22</title>
<path fill="none" stroke="black" d="M654.3,-122C662.02,-122 671.29,-122 679.89,-122"/>
<polygon fill="black" stroke="black" points="679.9,-125.5 689.9,-122 679.9,-118.5 679.9,-125.5"/>
</g>
<!-- op24 -->
<g id="node31" class="node">
<title>op24</title>
<path fill="lightgreen" stroke="black" d="M774,-137C774,-137 768,-131 768,-131 765,-128 765,-122 768,-119 768,-119 774,-113 774,-113 777,-110 783,-110 786,-113 786,-113 792,-119 792,-119 795,-122 795,-128 792,-131 792,-131 786,-137 786,-137 783,-140 777,-140 774,-137"/>
<text text-anchor="middle" x="780" y="-121.3" font-family="Times,serif" font-size="14.00">+</text>
</g>
<!-- op22&#45;&gt;op24 -->
<g id="edge36" class="edge">
<title>op22&#45;&gt;op24</title>
<path fill="none" stroke="black" d="M725.59,-122.71C733.61,-123.05 743.43,-123.48 752.46,-123.86"/>
<polygon fill="black" stroke="black" points="752.39,-127.36 762.53,-124.29 752.69,-120.37 752.39,-127.36"/>
</g>
<!-- op23&#45;&gt;op24 -->
<g id="edge37" class="edge">
<title>op23&#45;&gt;op24</title>
<path fill="none" stroke="black" d="M652.27,-232.15C671.22,-229.2 703.75,-221.92 726,-205 731.66,-200.7 753.32,-166.59 767.13,-144.32"/>
<polygon fill="black" stroke="black" points="770.23,-145.97 772.51,-135.62 764.27,-142.29 770.23,-145.97"/>
</g>
<!-- op24&#45;&gt;n24 -->
<g id="edge38" class="edge">
<title>op24&#45;&gt;n24</title>
<path fill="none" stroke="black" d="M798.01,-125C805.1,-125 813.96,-125 823.74,-125"/>
<polygon fill="black" stroke="black" points="823.8,-128.5 833.8,-125 823.8,-121.5 823.8,-128.5"/>
</g>
</g>
</svg>
