<?xml version="1.0" encoding="UTF-8" standalone="no"?>
<!DOCTYPE svg PUBLIC "-//W3C//DTD SVG 1.1//EN"
 "http://www.w3.org/Graphics/SVG/1.1/DTD/svg11.dtd">
<!-- Generated by graphviz version 2.43.0 (0)
 -->
<!-- Title: ComputationGraph Pages: 1 -->
<svg width="810pt" height="152pt"
 viewBox="0.00 0.00 810.00 152.00" xmlns="http://www.w3.org/2000/svg" xmlns:xlink="http://www.w3.org/1999/xlink">
<g id="graph0" class="graph" transform="scale(1 1) rotate(0) translate(4 148)">
<title>ComputationGraph</title>
<polygon fill="white" stroke="transparent" points="-4,4 -4,-148 806,-148 806,4 -4,4"/>
<!-- n0 -->
<g id="node1" class="node">
<title>n0</title>
<path fill="lightblue" stroke="black" d="M47.5,-144C47.5,-144 16.5,-144 16.5,-144 10.5,-144 4.5,-138 4.5,-132 4.5,-132 4.5,-120 4.5,-120 4.5,-114 10.5,-108 16.5,-108 16.5,-108 47.5,-108 47.5,-108 53.5,-108 59.5,-114 59.5,-120 59.5,-120 59.5,-132 59.5,-132 59.5,-138 53.5,-144 47.5,-144"/>
<text text-anchor="middle" x="32" y="-122.3" font-family="Times,serif" font-size="14.00">a = 2</text>
</g>
<!-- op4 -->
<g id="node9" class="node">
<title>op4</title>
<path fill="lightgreen" stroke="black" d="M112,-111C112,-111 106,-105 106,-105 103,-102 103,-96 106,-93 106,-93 112,-87 112,-87 115,-84 121,-84 124,-87 124,-87 130,-93 130,-93 133,-96 133,-102 130,-105 130,-105 124,-111 124,-111 121,-114 115,-114 112,-111"/>
<text text-anchor="middle" x="118" y="-95.3" font-family="Times,serif" font-size="14.00">*</text>
</g>
<!-- n0&#45;&gt;op4 -->
<g id="edge1" class="edge">
<title>n0&#45;&gt;op4</title>
<path fill="none" stroke="black" d="M59.58,-117.46C70.68,-113.89 83.45,-109.78 94.13,-106.35"/>
<polygon fill="black" stroke="black" points="95.52,-109.58 103.97,-103.19 93.38,-102.92 95.52,-109.58"/>
</g>
<!-- n1 -->
<g id="node2" class="node">
<title>n1</title>
<path fill="lightblue" stroke="black" d="M52,-90C52,-90 12,-90 12,-90 6,-90 0,-84 0,-78 0,-78 0,-66 0,-66 0,-60 6,-54 12,-54 12,-54 52,-54 52,-54 58,-54 64,-60 64,-66 64,-66 64,-78 64,-78 64,-84 58,-90 52,-90"/>
<text text-anchor="middle" x="32" y="-68.3" font-family="Times,serif" font-size="14.00">x = 10</text>
</g>
<!-- n1&#45;&gt;op4 -->
<g id="edge2" class="edge">
<title>n1&#45;&gt;op4</title>
<path fill="none" stroke="black" d="M64.28,-82.05C74.17,-85.23 84.92,-88.69 94.12,-91.64"/>
<polygon fill="black" stroke="black" points="93.12,-95 103.71,-94.73 95.26,-88.34 93.12,-95"/>
</g>
<!-- n2 -->
<g id="node3" class="node">
<title>n2</title>
<path fill="lightblue" stroke="black" d="M216,-63C216,-63 184,-63 184,-63 178,-63 172,-57 172,-51 172,-51 172,-39 172,-39 172,-33 178,-27 184,-27 184,-27 216,-27 216,-27 222,-27 228,-33 228,-39 228,-39 228,-51 228,-51 228,-57 222,-63 216,-63"/>
<text text-anchor="middle" x="200" y="-41.3" font-family="Times,serif" font-size="14.00">b = 3</text>
</g>
<!-- op5 -->
<g id="node10" class="node">
<title>op5</title>
<path fill="lightgreen" stroke="black" d="M276,-84C276,-84 270,-78 270,-78 267,-75 267,-69 270,-66 270,-66 276,-60 276,-60 279,-57 285,-57 288,-60 288,-60 294,-66 294,-66 297,-69 297,-75 294,-78 294,-78 288,-84 288,-84 285,-87 279,-87 276,-84"/>
<text text-anchor="middle" x="282" y="-68.3" font-family="Times,serif" font-size="14.00">+</text>
</g>
<!-- n2&#45;&gt;op5 -->
<g id="edge5" class="edge">
<title>n2&#45;&gt;op5</title>
<path fill="none" stroke="black" d="M228.08,-54.14C237.83,-57.43 248.73,-61.11 258.09,-64.27"/>
<polygon fill="black" stroke="black" points="257.26,-67.68 267.86,-67.56 259.5,-61.05 257.26,-67.68"/>
</g>
<!-- n3 -->
<g id="node4" class="node">
<title>n3</title>
<path fill="lightblue" stroke="black" d="M405.5,-36C405.5,-36 370.5,-36 370.5,-36 364.5,-36 358.5,-30 358.5,-24 358.5,-24 358.5,-12 358.5,-12 358.5,-6 364.5,0 370.5,0 370.5,0 405.5,0 405.5,0 411.5,0 417.5,-6 417.5,-12 417.5,-12 417.5,-24 417.5,-24 417.5,-30 411.5,-36 405.5,-36"/>
<text text-anchor="middle" x="388" y="-14.3" font-family="Times,serif" font-size="14.00">y = &#45;2</text>
</g>
<!-- op6 -->
<g id="node11" class="node">
<title>op6</title>
<path fill="lightgreen" stroke="black" d="M488,-57C488,-57 482,-51 482,-51 479,-48 479,-42 482,-39 482,-39 488,-33 488,-33 491,-30 497,-30 500,-33 500,-33 506,-39 506,-39 509,-42 509,-48 506,-51 506,-51 500,-57 500,-57 497,-60 491,-60 488,-57"/>
<text text-anchor="middle" x="494" y="-41.3" font-family="Times,serif" font-size="14.00">&#45;</text>
</g>
<!-- n3&#45;&gt;op6 -->
<g id="edge7" class="edge">
<title>n3&#45;&gt;op6</title>
<path fill="none" stroke="black" d="M417.69,-25.45C434.01,-29.69 454.19,-34.92 469.55,-38.91"/>
<polygon fill="black" stroke="black" points="468.75,-42.32 479.3,-41.44 470.5,-35.54 468.75,-42.32"/>
</g>
<!-- n4 -->
<g id="node5" class="node">
<title>n4</title>
<path fill="lightyellow" stroke="black" d="M215,-117C215,-117 185,-117 185,-117 179,-117 173,-111 173,-105 173,-105 173,-93 173,-93 173,-87 179,-81 185,-81 185,-81 215,-81 215,-81 221,-81 227,-87 227,-93 227,-93 227,-105 227,-105 227,-111 221,-117 215,-117"/>
<text text-anchor="middle" x="200" y="-95.3" font-family="Times,serif" font-size="14.00">20</text>
</g>
<!-- n4&#45;&gt;op5 -->
<g id="edge4" class="edge">
<title>n4&#45;&gt;op5</title>
<path fill="none" stroke="black" d="M227.19,-90.16C237.23,-86.77 248.6,-82.94 258.28,-79.67"/>
<polygon fill="black" stroke="black" points="259.64,-82.9 268,-76.39 257.4,-76.27 259.64,-82.9"/>
</g>
<!-- n5 -->
<g id="node6" class="node">
<title>n5</title>
<path fill="lightyellow" stroke="black" d="M428,-90C428,-90 348,-90 348,-90 342,-90 336,-84 336,-78 336,-78 336,-66 336,-66 336,-60 342,-54 348,-54 348,-54 428,-54 428,-54 434,-54 440,-60 440,-66 440,-66 440,-78 440,-78 440,-84 434,-90 428,-90"/>
<text text-anchor="middle" x="388" y="-68.3" font-family="Times,serif" font-size="14.00">y_pred = 23</text>
</g>
<!-- n5&#45;&gt;op6 -->
<g id="edge8" class="edge">
<title>n5&#45;&gt;op6</title>
<path fill="none" stroke="black" d="M440.09,-58.74C450.31,-56.08 460.58,-53.42 469.32,-51.15"/>
<polygon fill="black" stroke="black" points="470.31,-54.51 479.11,-48.61 468.55,-47.73 470.31,-54.51"/>
</g>
<!-- n6 -->
<g id="node7" class="node">
<title>n6</title>
<path fill="lightyellow" stroke="black" d="M590,-63C590,-63 560,-63 560,-63 554,-63 548,-57 548,-51 548,-51 548,-39 548,-39 548,-33 554,-27 560,-27 560,-27 590,-27 590,-27 596,-27 602,-33 602,-39 602,-39 602,-51 602,-51 602,-57 596,-63 590,-63"/>
<text text-anchor="middle" x="575" y="-41.3" font-family="Times,serif" font-size="14.00">&#45;25</text>
</g>
<!-- op7 -->
<g id="node12" class="node">
<title>op7</title>
<path fill="lightgreen" stroke="black" d="M650,-57C650,-57 644,-51 644,-51 641,-48 641,-42 644,-39 644,-39 650,-33 650,-33 653,-30 659,-30 662,-33 662,-33 668,-39 668,-39 671,-42 671,-48 668,-51 668,-51 662,-57 662,-57 659,-60 653,-60 650,-57"/>
<text text-anchor="middle" x="656" y="-41.3" font-family="Times,serif" font-size="14.00">x²</text>
</g>
<!-- n6&#45;&gt;op7 -->
<g id="edge10" class="edge">
<title>n6&#45;&gt;op7</title>
<path fill="none" stroke="black" d="M602.31,-45C610.42,-45 619.37,-45 627.56,-45"/>
<polygon fill="black" stroke="black" points="627.75,-48.5 637.75,-45 627.75,-41.5 627.75,-48.5"/>
</g>
<!-- n7 -->
<g id="node8" class="node">
<title>n7</title>
<path fill="lightyellow" stroke="black" d="M790,-63C790,-63 722,-63 722,-63 716,-63 710,-57 710,-51 710,-51 710,-39 710,-39 710,-33 716,-27 722,-27 722,-27 790,-27 790,-27 796,-27 802,-33 802,-39 802,-39 802,-51 802,-51 802,-57 796,-63 790,-63"/>
<text text-anchor="middle" x="756" y="-41.3" font-family="Times,serif" font-size="14.00">loss = 625</text>
</g>
<!-- op4&#45;&gt;n4 -->
<g id="edge3" class="edge">
<title>op4&#45;&gt;n4</title>
<path fill="none" stroke="black" d="M136.36,-99C144.1,-99 153.54,-99 162.71,-99"/>
<polygon fill="black" stroke="black" points="162.85,-102.5 172.85,-99 162.85,-95.5 162.85,-102.5"/>
</g>
<!-- op5&#45;&gt;n5 -->
<g id="edge6" class="edge">
<title>op5&#45;&gt;n5</title>
<path fill="none" stroke="black" d="M300.17,-72C307.38,-72 316.23,-72 325.5,-72"/>
<polygon fill="black" stroke="black" points="325.66,-75.5 335.66,-72 325.66,-68.5 325.66,-75.5"/>
</g>
<!-- op6&#45;&gt;n6 -->
<g id="edge9" class="edge">
<title>op6&#45;&gt;n6</title>
<path fill="none" stroke="black" d="M512.14,-45C519.64,-45 528.75,-45 537.64,-45"/>
<polygon fill="black" stroke="black" points="537.87,-48.5 547.87,-45 537.87,-41.5 537.87,-48.5"/>
</g>
<!-- op7&#45;&gt;n7 -->
<g id="edge11" class="edge">
<title>op7&#45;&gt;n7</title>
<path fill="none" stroke="black" d="M674.07,-45C681.4,-45 690.42,-45 699.74,-45"/>
<polygon fill="black" stroke="black" points="699.92,-48.5 709.92,-45 699.92,-41.5 699.92,-48.5"/>
</g>
</g>
</svg>
