<?xml version="1.0" encoding="UTF-8" standalone="no"?>
<!DOCTYPE svg PUBLIC "-//W3C//DTD SVG 1.1//EN"
 "http://www.w3.org/Graphics/SVG/1.1/DTD/svg11.dtd">
<!-- Generated by graphviz version 2.43.0 (0)
 -->
<!-- Title: ComputationGraph Pages: 1 -->
<svg width="855pt" height="152pt"
 viewBox="0.00 0.00 855.35 152.00" xmlns="http://www.w3.org/2000/svg" xmlns:xlink="http://www.w3.org/1999/xlink">
<g id="graph0" class="graph" transform="scale(1 1) rotate(0) translate(4 148)">
<title>ComputationGraph</title>
<polygon fill="white" stroke="transparent" points="-4,4 -4,-148 851.35,-148 851.35,4 -4,4"/>
<!-- n0 -->
<g id="node1" class="node">
<title>n0</title>
<path fill="lightblue" stroke="black" d="M47.5,-144C47.5,-144 16.5,-144 16.5,-144 10.5,-144 4.5,-138 4.5,-132 4.5,-132 4.5,-120 4.5,-120 4.5,-114 10.5,-108 16.5,-108 16.5,-108 47.5,-108 47.5,-108 53.5,-108 59.5,-114 59.5,-120 59.5,-120 59.5,-132 59.5,-132 59.5,-138 53.5,-144 47.5,-144"/>
<text text-anchor="middle" x="32" y="-122.3" font-family="Times,serif" font-size="14.00">a = 2</text>
</g>
<!-- op4 -->
<g id="node9" class="node">
<title>op4</title>
<path fill="lightgreen" stroke="black" d="M114.05,-113.19C114.05,-113.19 106.95,-106.09 106.95,-106.09 103.41,-102.55 103.41,-95.45 106.95,-91.91 106.95,-91.91 114.05,-84.81 114.05,-84.81 117.59,-81.26 124.69,-81.26 128.23,-84.81 128.23,-84.81 135.33,-91.91 135.33,-91.91 138.88,-95.45 138.88,-102.55 135.33,-106.09 135.33,-106.09 128.23,-113.19 128.23,-113.19 124.69,-116.74 117.59,-116.74 114.05,-113.19"/>
<text text-anchor="middle" x="121.14" y="-95.3" font-family="Times,serif" font-size="14.00">*</text>
</g>
<!-- n0&#45;&gt;op4 -->
<g id="edge1" class="edge">
<title>n0&#45;&gt;op4</title>
<path fill="none" stroke="black" d="M59.62,-117.75C70.77,-114.3 83.68,-110.3 94.7,-106.88"/>
<polygon fill="black" stroke="black" points="96.05,-110.13 104.57,-103.82 93.98,-103.44 96.05,-110.13"/>
</g>
<!-- n1 -->
<g id="node2" class="node">
<title>n1</title>
<path fill="lightblue" stroke="black" d="M52,-90C52,-90 12,-90 12,-90 6,-90 0,-84 0,-78 0,-78 0,-66 0,-66 0,-60 6,-54 12,-54 12,-54 52,-54 52,-54 58,-54 64,-60 64,-66 64,-66 64,-78 64,-78 64,-84 58,-90 52,-90"/>
<text text-anchor="middle" x="32" y="-68.3" font-family="Times,serif" font-size="14.00">x = 10</text>
</g>
<!-- n1&#45;&gt;op4 -->
<g id="edge2" class="edge">
<title>n1&#45;&gt;op4</title>
<path fill="none" stroke="black" d="M64.46,-81.75C74.48,-84.85 85.44,-88.25 94.96,-91.2"/>
<polygon fill="black" stroke="black" points="94.02,-94.57 104.61,-94.19 96.1,-87.89 94.02,-94.57"/>
</g>
<!-- n2 -->
<g id="node3" class="node">
<title>n2</title>
<path fill="lightblue" stroke="black" d="M222.28,-63C222.28,-63 190.28,-63 190.28,-63 184.28,-63 178.28,-57 178.28,-51 178.28,-51 178.28,-39 178.28,-39 178.28,-33 184.28,-27 190.28,-27 190.28,-27 222.28,-27 222.28,-27 228.28,-27 234.28,-33 234.28,-39 234.28,-39 234.28,-51 234.28,-51 234.28,-57 228.28,-63 222.28,-63"/>
<text text-anchor="middle" x="206.28" y="-41.3" font-family="Times,serif" font-size="14.00">b = 3</text>
</g>
<!-- op5 -->
<g id="node10" class="node">
<title>op5</title>
<path fill="lightgreen" stroke="black" d="M288.45,-90.33C288.45,-90.33 278.61,-80.49 278.61,-80.49 274.37,-76.24 274.37,-67.76 278.61,-63.51 278.61,-63.51 288.45,-53.67 288.45,-53.67 292.69,-49.43 301.18,-49.43 305.42,-53.67 305.42,-53.67 315.26,-63.51 315.26,-63.51 319.51,-67.76 319.51,-76.24 315.26,-80.49 315.26,-80.49 305.42,-90.33 305.42,-90.33 301.18,-94.57 292.69,-94.57 288.45,-90.33"/>
<text text-anchor="middle" x="296.94" y="-68.3" font-family="Times,serif" font-size="14.00">+</text>
</g>
<!-- n2&#45;&gt;op5 -->
<g id="edge5" class="edge">
<title>n2&#45;&gt;op5</title>
<path fill="none" stroke="black" d="M234.36,-53.25C244.45,-56.32 255.94,-59.82 266.24,-62.96"/>
<polygon fill="black" stroke="black" points="265.47,-66.38 276.05,-65.94 267.51,-59.68 265.47,-66.38"/>
</g>
<!-- n3 -->
<g id="node4" class="node">
<title>n3</title>
<path fill="lightblue" stroke="black" d="M429.09,-36C429.09,-36 394.09,-36 394.09,-36 388.09,-36 382.09,-30 382.09,-24 382.09,-24 382.09,-12 382.09,-12 382.09,-6 388.09,0 394.09,0 394.09,0 429.09,0 429.09,0 435.09,0 441.09,-6 441.09,-12 441.09,-12 441.09,-24 441.09,-24 441.09,-30 435.09,-36 429.09,-36"/>
<text text-anchor="middle" x="411.59" y="-14.3" font-family="Times,serif" font-size="14.00">y = &#45;2</text>
</g>
<!-- op6 -->
<g id="node11" class="node">
<title>op6</title>
<path fill="lightgreen" stroke="black" d="M512.53,-57.74C512.53,-57.74 506.16,-51.37 506.16,-51.37 502.97,-48.18 502.97,-41.82 506.16,-38.63 506.16,-38.63 512.53,-32.26 512.53,-32.26 515.71,-29.08 522.08,-29.08 525.26,-32.26 525.26,-32.26 531.63,-38.63 531.63,-38.63 534.82,-41.82 534.82,-48.18 531.63,-51.37 531.63,-51.37 525.26,-57.74 525.26,-57.74 522.08,-60.92 515.71,-60.92 512.53,-57.74"/>
<text text-anchor="middle" x="518.89" y="-41.3" font-family="Times,serif" font-size="14.00">&#45;</text>
</g>
<!-- n3&#45;&gt;op6 -->
<g id="edge7" class="edge">
<title>n3&#45;&gt;op6</title>
<path fill="none" stroke="black" d="M441.37,-25.38C457.69,-29.56 477.91,-34.75 493.46,-38.73"/>
<polygon fill="black" stroke="black" points="492.82,-42.18 503.38,-41.28 494.56,-35.4 492.82,-42.18"/>
</g>
<!-- n4 -->
<g id="node5" class="node">
<title>n4</title>
<path fill="lightyellow" stroke="black" d="M221.28,-117C221.28,-117 191.28,-117 191.28,-117 185.28,-117 179.28,-111 179.28,-105 179.28,-105 179.28,-93 179.28,-93 179.28,-87 185.28,-81 191.28,-81 191.28,-81 221.28,-81 221.28,-81 227.28,-81 233.28,-87 233.28,-93 233.28,-93 233.28,-105 233.28,-105 233.28,-111 227.28,-117 221.28,-117"/>
<text text-anchor="middle" x="206.28" y="-95.3" font-family="Times,serif" font-size="14.00">20</text>
</g>
<!-- n4&#45;&gt;op5 -->
<g id="edge4" class="edge">
<title>n4&#45;&gt;op5</title>
<path fill="none" stroke="black" d="M233.4,-91.05C243.7,-87.91 255.58,-84.29 266.2,-81.06"/>
<polygon fill="black" stroke="black" points="267.36,-84.36 275.91,-78.1 265.32,-77.66 267.36,-84.36"/>
</g>
<!-- n5 -->
<g id="node6" class="node">
<title>n5</title>
<path fill="lightyellow" stroke="black" d="M451.59,-90C451.59,-90 371.59,-90 371.59,-90 365.59,-90 359.59,-84 359.59,-78 359.59,-78 359.59,-66 359.59,-66 359.59,-60 365.59,-54 371.59,-54 371.59,-54 451.59,-54 451.59,-54 457.59,-54 463.59,-60 463.59,-66 463.59,-66 463.59,-78 463.59,-78 463.59,-84 457.59,-90 451.59,-90"/>
<text text-anchor="middle" x="411.59" y="-68.3" font-family="Times,serif" font-size="14.00">y_pred = 23</text>
</g>
<!-- n5&#45;&gt;op6 -->
<g id="edge8" class="edge">
<title>n5&#45;&gt;op6</title>
<path fill="none" stroke="black" d="M463.7,-58.9C473.98,-56.26 484.34,-53.6 493.21,-51.33"/>
<polygon fill="black" stroke="black" points="494.37,-54.65 503.19,-48.77 492.63,-47.86 494.37,-54.65"/>
</g>
<!-- n6 -->
<g id="node7" class="node">
<title>n6</title>
<path fill="lightyellow" stroke="black" d="M616.2,-63C616.2,-63 586.2,-63 586.2,-63 580.2,-63 574.2,-57 574.2,-51 574.2,-51 574.2,-39 574.2,-39 574.2,-33 580.2,-27 586.2,-27 586.2,-27 616.2,-27 616.2,-27 622.2,-27 628.2,-33 628.2,-39 628.2,-39 628.2,-51 628.2,-51 628.2,-57 622.2,-63 616.2,-63"/>
<text text-anchor="middle" x="601.2" y="-41.3" font-family="Times,serif" font-size="14.00">&#45;25</text>
</g>
<!-- op7 -->
<g id="node12" class="node">
<title>op7</title>
<path fill="lightgreen" stroke="black" d="M683.29,-64.16C683.29,-64.16 672.61,-53.49 672.61,-53.49 668.36,-49.24 668.36,-40.76 672.61,-36.51 672.61,-36.51 683.29,-25.84 683.29,-25.84 687.53,-21.59 696.01,-21.59 700.26,-25.84 700.26,-25.84 710.94,-36.51 710.94,-36.51 715.18,-40.76 715.18,-49.24 710.94,-53.49 710.94,-53.49 700.26,-64.16 700.26,-64.16 696.01,-68.41 687.53,-68.41 683.29,-64.16"/>
<text text-anchor="middle" x="691.77" y="-41.3" font-family="Times,serif" font-size="14.00">x²</text>
</g>
<!-- n6&#45;&gt;op7 -->
<g id="edge10" class="edge">
<title>n6&#45;&gt;op7</title>
<path fill="none" stroke="black" d="M628.29,-45C636.27,-45 645.21,-45 653.77,-45"/>
<polygon fill="black" stroke="black" points="653.94,-48.5 663.94,-45 653.94,-41.5 653.94,-48.5"/>
</g>
<!-- n7 -->
<g id="node8" class="node">
<title>n7</title>
<path fill="lightyellow" stroke="black" d="M835.35,-63C835.35,-63 767.35,-63 767.35,-63 761.35,-63 755.35,-57 755.35,-51 755.35,-51 755.35,-39 755.35,-39 755.35,-33 761.35,-27 767.35,-27 767.35,-27 835.35,-27 835.35,-27 841.35,-27 847.35,-33 847.35,-39 847.35,-39 847.35,-51 847.35,-51 847.35,-57 841.35,-63 835.35,-63"/>
<text text-anchor="middle" x="801.35" y="-41.3" font-family="Times,serif" font-size="14.00">loss = 625</text>
</g>
<!-- op4&#45;&gt;n4 -->
<g id="edge3" class="edge">
<title>op4&#45;&gt;n4</title>
<path fill="none" stroke="black" d="M142.69,-99C150.57,-99 159.82,-99 168.75,-99"/>
<polygon fill="black" stroke="black" points="168.99,-102.5 178.99,-99 168.99,-95.5 168.99,-102.5"/>
</g>
<!-- op5&#45;&gt;n5 -->
<g id="edge6" class="edge">
<title>op5&#45;&gt;n5</title>
<path fill="none" stroke="black" d="M323.78,-72C331.52,-72 340.36,-72 349.37,-72"/>
<polygon fill="black" stroke="black" points="349.56,-75.5 359.56,-72 349.56,-68.5 349.56,-75.5"/>
</g>
<!-- op6&#45;&gt;n6 -->
<g id="edge9" class="edge">
<title>op6&#45;&gt;n6</title>
<path fill="none" stroke="black" d="M538.12,-45C545.77,-45 554.95,-45 563.87,-45"/>
<polygon fill="black" stroke="black" points="564.13,-48.5 574.13,-45 564.13,-41.5 564.13,-48.5"/>
</g>
<!-- op7&#45;&gt;n7 -->
<g id="edge11" class="edge">
<title>op7&#45;&gt;n7</title>
<path fill="none" stroke="black" d="M719.36,-45C727.23,-45 736.15,-45 745.12,-45"/>
<polygon fill="black" stroke="black" points="745.22,-48.5 755.22,-45 745.22,-41.5 745.22,-48.5"/>
</g>
</g>
</svg>
